<svg id="Layer_8" data-name="Layer 8" xmlns="http://www.w3.org/2000/svg" viewBox="0 0 250 220"><defs><style>.cls-1{fill:#249fa6;}.cls-2{fill:none;stroke:#249fa6;stroke-miterlimit:10;stroke-width:10px;}</style></defs><title>inj_baywang</title><path class="cls-1" d="M128.1,221.09a76,76,0,0,1-9-19.06,143.27,143.27,0,0,1-.62-20.83c.71-13.81,3.08-27.3,5.89-40.48s6-26.14,8.42-39.12l.86-4.89.83-4.83c.23-1.56.45-3.12.58-4.67.07-.78.15-1.55.15-2.33,0-.39,0-.78,0-1.16a4.92,4.92,0,0,1,.16-1.15A66.08,66.08,0,0,0,137,73.08a46.64,46.64,0,0,0,.22-5c0-1.69-.1-3.38-.22-5.13,4.34,5.49,7,12.54,8.3,19.76a8.27,8.27,0,0,1-.08,2.69c-.11.89-.13,1.79-.23,2.67-.15,1.78-.39,3.54-.65,5.28l-.87,5.05-.88,5c-2.51,13.32-5.7,26.36-8.47,39.35s-5,25.93-5.68,38.86a114.25,114.25,0,0,0,.67,19.24c-.07.81-.18,1.63-.27,2.45l-.14,1.24c0,.41,0,.82-.06,1.23-.1,1.65-.16,3.3-.29,5s-.12,3.37-.13,5.07S128.18,219.31,128.1,221.09Z"/><path class="cls-1" d="M187,192a20.14,20.14,0,0,1,3.92,7.29,25,25,0,0,1,1.08,7.29,24.66,24.66,0,0,1-1.06,7.29,20,20,0,0,1-3.94,7.29,20,20,0,0,1-3.94-7.29,24.66,24.66,0,0,1-1.06-7.29,25,25,0,0,1,1.08-7.29A20.14,20.14,0,0,1,187,192Z"/><path class="cls-1" d="M241,63a112.44,112.44,0,0,0,2.48,15.17,93,93,0,0,0,.09,14.39,210.64,210.64,0,0,0,4.52,29.1c2.12,9.68,4.7,19.32,7.42,28.95l4.18,14.47c0,2.62,0,5.25-.13,7.91l-.19,4c-.11,1.34-.2,2.67-.36,4-.83-1.08-1.56-2.18-2.36-3.26l-2.24-3.28c-1.5-2.18-2.9-4.38-4.31-6.59l-4.19-14.54c-2.75-9.73-5.38-19.55-7.57-29.53a220.35,220.35,0,0,1-4.73-30.52,130.23,130.23,0,0,1-.2-15.77c.21-.65.45-1.3.68-1.95l.77-1.93c.52-1.27,1.1-2.53,1.73-3.75s1.34-2.41,2-3.57c.35-.58.78-1.14,1.17-1.69S240.58,63.53,241,63Z"/><path class="cls-1" d="M121.95,162.78c3,.95,5.94,2,8.87,3.08s5.84,2.2,8.74,3.35c5.79,2.31,11.5,4.74,17.19,7.25s11.31,5.11,16.89,7.82,11.14,5.45,16.65,8.28l-5,.22q8.27-5.32,16.69-10.41c5.63-3.37,11.28-6.71,17-9.9s11.51-6.34,17.38-9.33c2.94-1.48,5.89-3,8.88-4.37l4.49-2.1c1.52-.66,3-1.36,4.56-2-1.22,1.13-2.49,2.2-3.73,3.3l-3.8,3.19c-2.54,2.12-5.12,4.17-7.71,6.21-5.18,4.06-10.46,8-15.79,11.83s-10.73,7.57-16.15,11.25-10.94,7.24-16.48,10.74l-2.45,1.55-2.53-1.32c-5.49-2.87-11-5.8-16.37-8.82s-10.79-6.12-16.13-9.28-10.61-6.46-15.84-9.86c-2.61-1.71-5.21-3.41-7.77-5.21S124.46,164.69,121.95,162.78Z"/><path class="cls-2" d="M242,131s-19,13-54,13-55-10-55-10"/><circle class="cls-1" cx="188.5" cy="106.5" r="2.5"/></svg>