<svg id="wrist" xmlns="http://www.w3.org/2000/svg" viewBox="0 0 250 220"><defs><style>.cls-1{fill:none;stroke:#249fa6;stroke-miterlimit:10;stroke-width:10px;}.cls-2{fill:#249fa6;}</style></defs><title>inj_pulso</title><path class="cls-1" d="M252,53c-33.34,26.47-64,58-97,84"/><path class="cls-1" d="M253.19,142.93C234,164,214,184,195,204"/><path class="cls-2" d="M195,125a84.3,84.3,0,0,1-4.94,8.06q-2.63,3.87-5.5,7.5c-1.89,2.44-3.87,4.8-5.87,7.13l-3.06,3.44-3.14,3.36-8-1.47s-.06-.1-.1-.17l-.15-.27-.33-.58c-.23-.39-.49-.78-.75-1.17-.52-.78-1.11-1.51-1.7-2.24a25.31,25.31,0,0,0-4-3.83,20,20,0,0,0-9.88-4.06,32.51,32.51,0,0,0-11.94,1A113.85,113.85,0,0,0,123,146a40.19,40.19,0,0,1,10.61-9.23,30.36,30.36,0,0,1,14.29-4.46,25.33,25.33,0,0,1,15.31,4.49,29.89,29.89,0,0,1,5.9,5.35,31,31,0,0,1,2.35,3.16c.36.55.7,1.11,1,1.7l.49.9.24.48.27.59-8-1.47,3.36-3.14,3.44-3.06c2.33-2,4.68-4,7.13-5.87s4.92-3.74,7.5-5.5A84.3,84.3,0,0,1,195,125Z"/><path class="cls-2" d="M155,179c-.66-2.58-1.29-5.14-2-7.66s-1.42-5-2.24-7.47a62,62,0,0,0-2.72-7,15.76,15.76,0,0,0-1.62-2.77,2.43,2.43,0,0,0-.73-.69c-.14,0-.18.08-.47,0-.55-.17-1.45-.69-2.44-1.09a25.63,25.63,0,0,0-3.29-1c-2.33-.54-4.77-1-7.25-1.33-5-.71-10.06-1.16-15.17-1.47s-10.25-.48-15.39-.53l-7.78,0c-2.6,0-5.14,0-7.62.12-1.25,0-2.44.15-3.65.23s-2.37.23-3.46.47a20.91,20.91,0,0,0-6.07,1.9,11.17,11.17,0,0,0-1.3.71l-1.21.83c-.39.3-.73.66-1.1,1-.18.17-.38.31-.55.5l-.49.58A23.44,23.44,0,0,0,65,159.68l-1.32,3.17a20.66,20.66,0,0,0-.82,3,34.81,34.81,0,0,0-.56,6.8,68.5,68.5,0,0,0,1.84,14.43,95.29,95.29,0,0,0,4.43,14.17c.92,2.29,1.93,4.53,3,6.65a34.53,34.53,0,0,0,3.64,5.71,7.39,7.39,0,0,0,1.52,1.48s0,0-.12,0a1.28,1.28,0,0,0-.29-.06l-.23,0H76c-.06,0-.18,0-.11,0h.05l.14-.07a7.45,7.45,0,0,0,1.8-1.27,17.54,17.54,0,0,0,1.95-2.21,21.51,21.51,0,0,0,2.86-5.57,17,17,0,0,0,.73-3c.06-.52.09-1,.1-1.55,0-.26,0-.51.09-.76s.06-.51.1-.77a18.27,18.27,0,0,0,.08-6.4,23.71,23.71,0,0,0-2.19-6.55,29.79,29.79,0,0,0-4.12-6.19A52.59,52.59,0,0,0,72,175a37.94,37.94,0,0,1,13.89,8.63,27.27,27.27,0,0,1,7.79,16.17,13.67,13.67,0,0,1-.38,4.71,37.72,37.72,0,0,1-1.16,4.54,31.44,31.44,0,0,1-4.28,8.3A27.33,27.33,0,0,1,84.63,221,17,17,0,0,1,80,224.11c-.25.11-.49.21-.76.31l-.89.26a9.29,9.29,0,0,1-2,.3h-.62l-.72-.06a9.26,9.26,0,0,1-1.25-.28,9.45,9.45,0,0,1-1.91-.84A16.18,16.18,0,0,1,67.55,220a43.91,43.91,0,0,1-4.8-7.44A83.23,83.23,0,0,1,59.27,205a105.21,105.21,0,0,1-4.9-15.69,78.29,78.29,0,0,1-2.09-16.58A44.66,44.66,0,0,1,53,164a30.62,30.62,0,0,1,1.22-4.52c.55-1.39,1.1-2.71,1.69-4.06a33.34,33.34,0,0,1,5-7.73l.79-.9c.27-.29.59-.56.89-.83.61-.54,1.19-1.11,1.84-1.6l2-1.39a20.53,20.53,0,0,1,2.12-1.17,30.83,30.83,0,0,1,8.79-2.8c1.47-.31,2.87-.4,4.29-.59s2.8-.22,4.16-.27c2.73-.11,5.41-.13,8-.13l7.88,0q8,.07,15.91.54c5.31.33,10.62.79,16,1.55,2.69.39,5.39.86,8.14,1.5,1.39.33,2.77.74,4.24,1.17a13.54,13.54,0,0,1,4.66,2.15,10.91,10.91,0,0,1,2.45,2.54,12.63,12.63,0,0,1,1.32,2.64,24.24,24.24,0,0,1,1.13,4.55,55.69,55.69,0,0,1,.56,8.33c0,2.72-.11,5.39-.28,8.06S155.41,176.37,155,179Z"/><path class="cls-1" d="M61,195s-27,27,15,25"/><path class="cls-1" d="M104,226c4.54-6.26,17.23-23.74,24.48-13.84,2.59,3.54,3.25,9.16,3.63,13.71"/><path class="cls-2" d="M88.29,204a17.92,17.92,0,0,1,3.85-4.26,21.37,21.37,0,0,1,4.84-3,17.36,17.36,0,0,1,6-1.5,13.77,13.77,0,0,1,3.59.23,11.45,11.45,0,0,1,3.92,1.61,10.47,10.47,0,0,1,3.19,3.31,11.75,11.75,0,0,1,1.41,3.89,14.13,14.13,0,0,1-.55,6.65,17.4,17.4,0,0,1-2.73,5.18,18.84,18.84,0,0,1-4.11,4c-.68-3.92-.52-7.39-1-10.19a13.61,13.61,0,0,0-.88-3.44,3.67,3.67,0,0,0-.51-.79,2.56,2.56,0,0,0-.36-.27,3.28,3.28,0,0,0-.73-.36,9,9,0,0,0-1.44-.35,31.52,31.52,0,0,0-4.09-.32C95.61,204.31,92.23,204.45,88.29,204Z"/><path class="cls-2" d="M179,181a25.92,25.92,0,0,1,8.31,2.55,25.36,25.36,0,0,1,7.14,5.19,19.82,19.82,0,0,1,4.9,8.44,16.78,16.78,0,0,1,.57,5.22,18,18,0,0,1-.33,2.59l-.34,1.46c-.14.48-.28.93-.43,1.31a31.41,31.41,0,0,1-1.91,4c-.68,1.23-1.36,2.43-2.1,3.59-1.45,2.33-3,4.56-4.61,6.74s-3.32,4.29-5.15,6.32a33.43,33.43,0,0,1-6,5.57,33.87,33.87,0,0,0,1.7-3.64l1.52-3.69,3-7.36c1-2.44,2-4.88,2.89-7.29.45-1.21.93-2.4,1.34-3.59s.81-2.37,1-3.34a4.92,4.92,0,0,0,.11-.61,1.42,1.42,0,0,1,0-.15l0-.36a8.76,8.76,0,0,0-.15-1.38,16.73,16.73,0,0,0-.63-2.62,28.47,28.47,0,0,0-2.62-5.48c-1.15-1.93-2.54-4-4-6.16A50.53,50.53,0,0,1,179,181Z"/></svg>