<svg xmlns="http://www.w3.org/2000/svg" viewBox="0 0 1920 1080"><defs><style>.cls-1{fill:#7da69c;}.cls-2{fill:#6b9c93;}.cls-3{fill:#336875;}.cls-17,.cls-31,.cls-4,.cls-8{fill:#002931;}.cls-4{opacity:0.2;}.cls-5{fill:#318395;}.cls-6{fill:#386e95;}.cls-7,.cls-9{fill:#658186;}.cls-7{opacity:0.6;}.cls-8{opacity:0.19;}.cls-10{fill:#94b0b2;}.cls-11{fill:#5e8692;}.cls-12{fill:#4f6a86;}.cls-13{fill:#869dac;}.cls-14{fill:#89b8bd;}.cls-15{fill:none;stroke:#248ba6;stroke-miterlimit:10;stroke-width:6px;}.cls-16{fill:#00424a;}.cls-17{opacity:0.49;}.cls-18{fill:#88a4b2;}.cls-19{fill:#6095b2;}.cls-20{fill:#88a493;}.cls-21{fill:#006168;}.cls-22{fill:#249fa6;}.cls-23{fill:#00799c;}.cls-24{fill:#57598e;opacity:0.46;}.cls-25{fill:#61a1c4;}.cls-26{fill:#8b8bc4;}.cls-27{fill:#8da1c4;}.cls-28{fill:#bd8677;}.cls-29{fill:#e09a95;}.cls-30{fill:#247279;}.cls-32{fill:#007f87;}.cls-33{fill:#31567a;}.cls-34{fill:#60a9b8;}.cls-35{fill:#004a68;}.cls-36{fill:#004359;}.cls-37{fill:#004f63;}.cls-38{fill:#005b73;}.cls-39{fill:#247490;}.cls-40{fill:#004256;}.cls-41{fill:#005160;}.cls-42{opacity:0.15;}</style></defs><title>pt_bg</title><g id="Layer_2" data-name="Layer 2"><polyline class="cls-1" points="0 621 511 401 511 0 0 0 0 637"/><rect class="cls-2" x="510.5" width="1409.5" height="400.5"/><polygon class="cls-3" points="1920 400.5 510.63 400.5 0 608.29 0.5 1080 1920 1080 1920 400.5"/><path class="cls-4" d="M560.1,771.55h0l28.31-26s78.81-3.21,86.14-.38A17.39,17.39,0,0,1,682.66,770h0s2.36,3.77-4.71,3.77-113.14.63-117.85-.31,0-1.88,0-1.88"/><path class="cls-4" d="M648.76,728.82h0l21.07-15.29s65.46-4,70.17-1.53-3.53,18.19-8.64,25.31h0s1.29,2.72-3.47,2.17-76.18-8.38-79.28-9.39.15-1.27.15-1.27"/><ellipse class="cls-5" cx="658.24" cy="712.79" rx="14.24" ry="22.79"/><ellipse class="cls-6" cx="665.65" cy="712.56" rx="13.67" ry="21.88"/><path class="cls-5" d="M668,703.93l53.53,2-3.42,19.37-51.39-3a7.37,7.37,0,0,1-6.89-8.27l.45-3.6A7.49,7.49,0,0,1,668,703.93Z"/><path class="cls-6" d="M702.12,719.34l-42.16-2s2.54,5.78,5.7,5.7,42.16,2.28,42.16,2.28Z"/><ellipse class="cls-6" cx="716.36" cy="716.21" rx="14.24" ry="22.79"/><ellipse class="cls-5" cx="723.2" cy="716.21" rx="14.24" ry="22.79"/><rect class="cls-7" x="1186.33" y="173" width="152.67" height="227.5"/><path class="cls-4" d="M1271,467v4s33,144,35,146,210,1,211,0,0-3,0-3Z"/><polyline class="cls-7" points="837 405 841 405 841 195 837 195 837 405"/><path class="cls-8" d="M473,398.3S477.65,364,490.32,369,473,398.3,473,398.3"/><rect class="cls-9" x="1030" y="212" width="89" height="64"/><rect class="cls-10" x="1035" y="217" width="79" height="54"/><path class="cls-11" d="M1037.33,271S1034,223,1060,225s16,25,33,22,20,22,20,22-49-20-57-15S1037.33,271,1037.33,271Z"/><rect class="cls-10" x="999" y="288" width="28" height="34"/><rect class="cls-10" x="1035" y="288" width="40" height="50"/><path class="cls-7" d="M857,202l7-9,16-4,97,4s2,49-1,46S857,202,857,202Z"/><polygon class="cls-7" points="1030 212 1045 211 1114 211 1119 212 1030 212"/><path class="cls-7" d="M1920.25.45,1920,0H0S503,17,525,17s1387,5,1395,12l.25.22Z"/><path class="cls-12" d="M454,182s-21,0-19-34,24.93-20.06,25.47-17S454,182,454,182Z"/><ellipse class="cls-9" cx="452.01" cy="153.58" rx="15.99" ry="28.5" transform="translate(-4.55 14.1) rotate(-1.78)"/><ellipse class="cls-10" cx="455.03" cy="153.55" rx="12.73" ry="22.69" transform="translate(-4.55 14.19) rotate(-1.78)"/><polygon class="cls-13" points="457.55 136 459 135.64 459 133.82 457.79 133.22 457.47 136 457.55 136"/><polygon class="cls-13" points="448.55 140 450 139.64 450 137.82 448.79 137.22 448.47 140 448.55 140"/><polygon class="cls-13" points="444.59 151 446.67 150.48 446.67 147.87 444.93 147 444.47 151 444.59 151"/><polygon class="cls-13" points="445.59 164 447.67 163.48 447.67 160.87 445.93 160 445.47 164 445.59 164"/><polygon class="cls-13" points="451.55 173 453 172.64 453 170.82 451.79 170.22 451.47 173 451.55 173"/><polygon class="cls-13" points="460.55 173 462 172.64 462 170.82 460.79 170.22 460.47 173 460.55 173"/><polygon class="cls-9" points="462 155 448 143 448 144 462 155 463 144 462 144 462 155"/><rect class="cls-14" x="1194.08" y="182" width="136.92" height="218.5"/><ellipse class="cls-5" cx="581.68" cy="741.46" rx="17.68" ry="28.29"/><ellipse class="cls-6" cx="590.88" cy="741.18" rx="16.98" ry="27.16"/><polygon class="cls-5" points="1395 467 1271 467 1307 614 1517 614 1395 467"/><path class="cls-5" d="M593.74,730.47,660.2,733,656,757l-63.8-3.68a9.15,9.15,0,0,1-8.55-10.27l.56-4.47A9.29,9.29,0,0,1,593.74,730.47Z"/><path class="cls-6" d="M636.15,749.6l-52.34-2.48s3.15,7.17,7.07,7.07S643.22,757,643.22,757Z"/><ellipse class="cls-6" cx="653.83" cy="745.71" rx="17.68" ry="28.29"/><ellipse class="cls-5" cx="662.32" cy="745.71" rx="17.68" ry="28.29"/><path class="cls-15" d="M1170.54,1077.8C1183,1070,1194,1063,1206,1054c33-22,61-42,89-69,9-9,17-19,19-32,1-16-17-23-29-29-8-3-15-6-23-9-10-3-20-6-30-10-42-13-83-22-124-38-14-5-31-10-39-24-7-12,4-22,14-26,43-17,89-14,135-6,16,2,34,4,44,18,10,13-6,24-17,29-13,5-26,7-40,8-35,1-71-2-103-16-4-2-10-5-7-10,3-7,12-7,19-9,32-5,63-4,95,0l6,3c4,5-2,10-7,12a102.11,102.11,0,0,1-42,6"/><polygon class="cls-16" points="1195.04 1081.06 1212.5 1069.5 1184.5 1042.5 1125.94 1081.06 1195.04 1081.06"/><rect class="cls-16" x="1118" y="844" width="50" height="17"/><polygon class="cls-8" points="591.59 1081.06 637 861 496 861 410 874 280.38 1081.06 591.59 1081.06"/><polyline class="cls-4" points="977 400.5 979 411 691 411 701 401.35 977 400.5"/></g><g id="Layer_4" data-name="Layer 4"><path class="cls-17" d="M131,717.83S437,733.46,447,726s60-77,60-77H495l-5.77,10.26L128,660.41Z"/><polygon class="cls-8" points="495 649 86 649 38 720 443 737 515 649 495 649"/><path class="cls-17" d="M353.09,810l-25,25L-.86,836.85V939.77c121.9,1.56,272,1.89,280-5.77C292.65,921,386,807.44,386,807.44Z"/><polygon class="cls-8" points="292 500 -0.86 754.02 -0.86 1081.06 182.53 1081.06 637 490 292 500"/><path class="cls-17" d="M317.84,606.36s213.35,4,220.19-1.21S576,555,576,555l-10,3-8,7-174.65.95Z"/><polygon class="cls-8" points="573.32 559.08 354.19 561.9 283 607.98 533.43 610 582.91 559.08 573.32 559.08"/><path class="cls-17" d="M428,523.53s184.14,2.74,187.84-.82S637,490,637,490l-4-1-3.79,6.56L462,496.11Z"/><polygon class="cls-8" points="636.91 491.44 518.48 493.36 480 524.63 615.36 526 642.1 491.44 636.91 491.44"/><path class="cls-4" d="M487,712.11h0l36-74.39s100.31-9.19,109.64-1.1,18.33,38.64,10.33,71h0s3,10.78-6,10.78-144,1.8-150-.9,0-5.39,0-5.39"/><path class="cls-4" d="M635.72,512.32h0L653,487s36.63-4.09,40,1,7,16,10.38,31.52h0s.43,6.21-3.46,5.65-63,4-65.39,2.16,1.19-15,1.19-15"/></g><g id="Layer_6" data-name="Layer 6"><path class="cls-9" d="M626,195l3,1s1,203,0,204.5-7,2.5-7,2.5Z"/><rect class="cls-18" x="841" y="195" width="136" height="210"/><rect class="cls-10" x="932" y="200" width="41" height="71"/><polyline class="cls-9" points="968 234 968 243 961 243 961 234 968 234"/><polygon class="cls-18" points="944 219 961 219 961 218 943 218 943 219 944 219"/><polygon class="cls-18" points="944 217 961 217 961 216 943 216 943 217 944 217"/><polygon class="cls-18" points="944 215 961 215 961 214 943 214 943 215 944 215"/><polygon class="cls-18" points="944 213 961 213 961 212 943 212 943 213 944 213"/><rect class="cls-10" x="888" y="200" width="41" height="71"/><polyline class="cls-9" points="924 234 924 243 917 243 917 234 924 234"/><polygon class="cls-18" points="900 219 917 219 917 218 899 218 899 219 900 219"/><polygon class="cls-18" points="900 217 917 217 917 216 899 216 899 217 900 217"/><polygon class="cls-18" points="900 215 917 215 917 214 899 214 899 215 900 215"/><polygon class="cls-18" points="900 213 917 213 917 212 899 212 899 213 900 213"/><rect class="cls-10" x="844" y="200" width="41" height="71"/><polyline class="cls-9" points="880 234 880 243 873 243 873 234 880 234"/><polygon class="cls-18" points="856 219 873 219 873 218 855 218 855 219 856 219"/><polygon class="cls-18" points="856 217 873 217 873 216 855 216 855 217 856 217"/><polygon class="cls-18" points="856 215 873 215 873 214 855 214 855 215 856 215"/><polygon class="cls-18" points="856 213 873 213 873 212 855 212 855 213 856 213"/><rect class="cls-10" x="932" y="273" width="41" height="71"/><polyline class="cls-9" points="968 307 968 316 961 316 961 307 968 307"/><polygon class="cls-18" points="944 292 961 292 961 291 943 291 943 292 944 292"/><polygon class="cls-18" points="944 290 961 290 961 289 943 289 943 290 944 290"/><polygon class="cls-18" points="944 288 961 288 961 287 943 287 943 288 944 288"/><polygon class="cls-18" points="944 286 961 286 961 285 943 285 943 286 944 286"/><rect class="cls-10" x="932" y="273" width="41" height="71"/><polyline class="cls-9" points="968 307 968 316 961 316 961 307 968 307"/><polygon class="cls-18" points="944 292 961 292 961 291 943 291 943 292 944 292"/><polygon class="cls-18" points="944 290 961 290 961 289 943 289 943 290 944 290"/><polygon class="cls-18" points="944 288 961 288 961 287 943 287 943 288 944 288"/><polygon class="cls-18" points="944 286 961 286 961 285 943 285 943 286 944 286"/><rect class="cls-10" x="888" y="273" width="41" height="71"/><polyline class="cls-9" points="924 307 924 316 917 316 917 307 924 307"/><polygon class="cls-18" points="900 292 917 292 917 291 899 291 899 292 900 292"/><polygon class="cls-18" points="900 290 917 290 917 289 899 289 899 290 900 290"/><polygon class="cls-18" points="900 288 917 288 917 287 899 287 899 288 900 288"/><polygon class="cls-18" points="900 286 917 286 917 285 899 285 899 286 900 286"/><rect class="cls-10" x="844" y="273" width="41" height="71"/><polyline class="cls-9" points="880 307 880 316 873 316 873 307 880 307"/><polygon class="cls-18" points="856 292 873 292 873 291 855 291 855 292 856 292"/><polygon class="cls-18" points="856 290 873 290 873 289 855 289 855 290 856 290"/><polygon class="cls-18" points="856 288 873 288 873 287 855 287 855 288 856 288"/><polygon class="cls-18" points="856 286 873 286 873 285 855 285 855 286 856 286"/><rect class="cls-10" x="932" y="346" width="41" height="48"/><polyline class="cls-9" points="968 368.99 968 375.07 961 375.07 961 368.99 968 368.99"/><polygon class="cls-18" points="944 358.85 961 358.85 961 358.17 943 358.17 943 358.85 944 358.85"/><polygon class="cls-18" points="944 357.49 961 357.49 961 356.82 943 356.82 943 357.49 944 357.49"/><polygon class="cls-18" points="944 356.14 961 356.14 961 355.46 943 355.46 943 356.14 944 356.14"/><polygon class="cls-18" points="944 354.79 961 354.79 961 354.11 943 354.11 943 354.79 944 354.79"/><rect class="cls-10" x="888" y="346" width="41" height="48"/><polyline class="cls-9" points="924 368.99 924 375.07 917 375.07 917 368.99 924 368.99"/><polygon class="cls-18" points="900 358.85 917 358.85 917 358.17 899 358.17 899 358.85 900 358.85"/><polygon class="cls-18" points="900 357.49 917 357.49 917 356.82 899 356.82 899 357.49 900 357.49"/><polygon class="cls-18" points="900 356.14 917 356.14 917 355.46 899 355.46 899 356.14 900 356.14"/><polygon class="cls-18" points="900 354.79 917 354.79 917 354.11 899 354.11 899 354.79 900 354.79"/><rect class="cls-10" x="844" y="346" width="41" height="48"/><polyline class="cls-9" points="880 368.99 880 375.07 873 375.07 873 368.99 880 368.99"/><polygon class="cls-18" points="856 358.85 873 358.85 873 358.17 855 358.17 855 358.85 856 358.85"/><polygon class="cls-18" points="856 357.49 873 357.49 873 356.82 855 356.82 855 357.49 856 357.49"/><polygon class="cls-18" points="856 356.14 873 356.14 873 355.46 855 355.46 855 356.14 856 356.14"/><polygon class="cls-18" points="856 354.79 873 354.79 873 354.11 855 354.11 855 354.79 856 354.79"/><rect class="cls-18" x="701" y="195" width="136" height="210"/><rect class="cls-10" x="792" y="200" width="41" height="71"/><polyline class="cls-9" points="828 234 828 243 821 243 821 234 828 234"/><polygon class="cls-18" points="804 219 821 219 821 218 803 218 803 219 804 219"/><polygon class="cls-18" points="804 217 821 217 821 216 803 216 803 217 804 217"/><polygon class="cls-18" points="804 215 821 215 821 214 803 214 803 215 804 215"/><polygon class="cls-18" points="804 213 821 213 821 212 803 212 803 213 804 213"/><rect class="cls-10" x="748" y="200" width="41" height="71"/><polyline class="cls-9" points="784 234 784 243 777 243 777 234 784 234"/><polygon class="cls-18" points="760 219 777 219 777 218 759 218 759 219 760 219"/><polygon class="cls-18" points="760 217 777 217 777 216 759 216 759 217 760 217"/><polygon class="cls-18" points="760 215 777 215 777 214 759 214 759 215 760 215"/><polygon class="cls-18" points="760 213 777 213 777 212 759 212 759 213 760 213"/><rect class="cls-10" x="704" y="200" width="41" height="71"/><polyline class="cls-9" points="740 234 740 243 733 243 733 234 740 234"/><polygon class="cls-18" points="716 219 733 219 733 218 715 218 715 219 716 219"/><polygon class="cls-18" points="716 217 733 217 733 216 715 216 715 217 716 217"/><polygon class="cls-18" points="716 215 733 215 733 214 715 214 715 215 716 215"/><polygon class="cls-18" points="716 213 733 213 733 212 715 212 715 213 716 213"/><rect class="cls-10" x="792" y="273" width="41" height="71"/><polyline class="cls-9" points="828 307 828 316 821 316 821 307 828 307"/><polygon class="cls-18" points="804 292 821 292 821 291 803 291 803 292 804 292"/><polygon class="cls-18" points="804 290 821 290 821 289 803 289 803 290 804 290"/><polygon class="cls-18" points="804 288 821 288 821 287 803 287 803 288 804 288"/><polygon class="cls-18" points="804 286 821 286 821 285 803 285 803 286 804 286"/><rect class="cls-10" x="792" y="273" width="41" height="71"/><polyline class="cls-9" points="828 307 828 316 821 316 821 307 828 307"/><polygon class="cls-18" points="804 292 821 292 821 291 803 291 803 292 804 292"/><polygon class="cls-18" points="804 290 821 290 821 289 803 289 803 290 804 290"/><polygon class="cls-18" points="804 288 821 288 821 287 803 287 803 288 804 288"/><polygon class="cls-18" points="804 286 821 286 821 285 803 285 803 286 804 286"/><rect class="cls-10" x="748" y="273" width="41" height="71"/><polyline class="cls-9" points="784 307 784 316 777 316 777 307 784 307"/><polygon class="cls-18" points="760 292 777 292 777 291 759 291 759 292 760 292"/><polygon class="cls-18" points="760 290 777 290 777 289 759 289 759 290 760 290"/><polygon class="cls-18" points="760 288 777 288 777 287 759 287 759 288 760 288"/><polygon class="cls-18" points="760 286 777 286 777 285 759 285 759 286 760 286"/><rect class="cls-10" x="704" y="273" width="41" height="71"/><polyline class="cls-9" points="740 307 740 316 733 316 733 307 740 307"/><polygon class="cls-18" points="716 292 733 292 733 291 715 291 715 292 716 292"/><polygon class="cls-18" points="716 290 733 290 733 289 715 289 715 290 716 290"/><polygon class="cls-18" points="716 288 733 288 733 287 715 287 715 288 716 288"/><polygon class="cls-18" points="716 286 733 286 733 285 715 285 715 286 716 286"/><rect class="cls-10" x="792" y="346" width="41" height="48"/><polyline class="cls-9" points="828 368.99 828 375.07 821 375.07 821 368.99 828 368.99"/><polygon class="cls-18" points="804 358.85 821 358.85 821 358.17 803 358.17 803 358.85 804 358.85"/><polygon class="cls-18" points="804 357.49 821 357.49 821 356.82 803 356.82 803 357.49 804 357.49"/><polygon class="cls-18" points="804 356.14 821 356.14 821 355.46 803 355.46 803 356.14 804 356.14"/><polygon class="cls-18" points="804 354.79 821 354.79 821 354.11 803 354.11 803 354.79 804 354.79"/><rect class="cls-10" x="748" y="346" width="41" height="48"/><polyline class="cls-9" points="784 368.99 784 375.07 777 375.07 777 368.99 784 368.99"/><polygon class="cls-18" points="760 358.85 777 358.85 777 358.17 759 358.17 759 358.85 760 358.85"/><polygon class="cls-18" points="760 357.49 777 357.49 777 356.82 759 356.82 759 357.49 760 357.49"/><polygon class="cls-18" points="760 356.14 777 356.14 777 355.46 759 355.46 759 356.14 760 356.14"/><polygon class="cls-18" points="760 354.79 777 354.79 777 354.11 759 354.11 759 354.79 760 354.79"/><rect class="cls-10" x="704" y="346" width="41" height="48"/><polyline class="cls-9" points="740 368.99 740 375.07 733 375.07 733 368.99 740 368.99"/><polygon class="cls-18" points="716 358.85 733 358.85 733 358.17 715 358.17 715 358.85 716 358.85"/><polygon class="cls-18" points="716 357.49 733 357.49 733 356.82 715 356.82 715 357.49 716 357.49"/><polygon class="cls-18" points="716 356.14 733 356.14 733 355.46 715 355.46 715 356.14 716 356.14"/><polygon class="cls-18" points="716 354.79 733 354.79 733 354.11 715 354.11 715 354.79 716 354.79"/><rect class="cls-18" x="503" y="195" width="123" height="210"/><rect class="cls-10" x="585.3" y="200" width="37.08" height="71"/><polyline class="cls-9" points="617.86 234 617.86 243 611.53 243 611.53 234 617.86 234"/><polygon class="cls-18" points="596.15 219 611.53 219 611.53 218 595.25 218 595.25 219 596.15 219"/><polygon class="cls-18" points="596.15 217 611.53 217 611.53 216 595.25 216 595.25 217 596.15 217"/><polygon class="cls-18" points="596.15 215 611.53 215 611.53 214 595.25 214 595.25 215 596.15 215"/><polygon class="cls-18" points="596.15 213 611.53 213 611.53 212 595.25 212 595.25 213 596.15 213"/><rect class="cls-10" x="545.51" y="200" width="37.08" height="71"/><polyline class="cls-9" points="578.07 234 578.07 243 571.74 243 571.74 234 578.07 234"/><polygon class="cls-18" points="556.36 219 571.74 219 571.74 218 555.46 218 555.46 219 556.36 219"/><polygon class="cls-18" points="556.36 217 571.74 217 571.74 216 555.46 216 555.46 217 556.36 217"/><polygon class="cls-18" points="556.36 215 571.74 215 571.74 214 555.46 214 555.46 215 556.36 215"/><polygon class="cls-18" points="556.36 213 571.74 213 571.74 212 555.46 212 555.46 213 556.36 213"/><rect class="cls-10" x="505.71" y="200" width="37.08" height="71"/><polyline class="cls-9" points="538.27 234 538.27 243 531.94 243 531.94 234 538.27 234"/><polygon class="cls-18" points="516.57 219 531.94 219 531.94 218 515.66 218 515.66 219 516.57 219"/><polygon class="cls-18" points="516.57 217 531.94 217 531.94 216 515.66 216 515.66 217 516.57 217"/><polygon class="cls-18" points="516.57 215 531.94 215 531.94 214 515.66 214 515.66 215 516.57 215"/><polygon class="cls-18" points="516.57 213 531.94 213 531.94 212 515.66 212 515.66 213 516.57 213"/><rect class="cls-10" x="585.3" y="273" width="37.08" height="71"/><polyline class="cls-9" points="617.86 307 617.86 316 611.53 316 611.53 307 617.86 307"/><polygon class="cls-18" points="596.15 292 611.53 292 611.53 291 595.25 291 595.25 292 596.15 292"/><polygon class="cls-18" points="596.15 290 611.53 290 611.53 289 595.25 289 595.25 290 596.15 290"/><polygon class="cls-18" points="596.15 288 611.53 288 611.53 287 595.25 287 595.25 288 596.15 288"/><polygon class="cls-18" points="596.15 286 611.53 286 611.53 285 595.25 285 595.25 286 596.15 286"/><rect class="cls-10" x="585.3" y="273" width="37.08" height="71"/><polyline class="cls-9" points="617.86 307 617.86 316 611.53 316 611.53 307 617.86 307"/><polygon class="cls-18" points="596.15 292 611.53 292 611.53 291 595.25 291 595.25 292 596.15 292"/><polygon class="cls-18" points="596.15 290 611.53 290 611.53 289 595.25 289 595.25 290 596.15 290"/><polygon class="cls-18" points="596.15 288 611.53 288 611.53 287 595.25 287 595.25 288 596.15 288"/><polygon class="cls-18" points="596.15 286 611.53 286 611.53 285 595.25 285 595.25 286 596.15 286"/><rect class="cls-10" x="545.51" y="273" width="37.08" height="71"/><polyline class="cls-9" points="578.07 307 578.07 316 571.74 316 571.74 307 578.07 307"/><polygon class="cls-18" points="556.36 292 571.74 292 571.74 291 555.46 291 555.46 292 556.36 292"/><polygon class="cls-18" points="556.36 290 571.74 290 571.74 289 555.46 289 555.46 290 556.36 290"/><polygon class="cls-18" points="556.36 288 571.74 288 571.74 287 555.46 287 555.46 288 556.36 288"/><polygon class="cls-18" points="556.36 286 571.74 286 571.74 285 555.46 285 555.46 286 556.36 286"/><rect class="cls-10" x="505.71" y="273" width="37.08" height="71"/><polyline class="cls-9" points="538.27 307 538.27 316 531.94 316 531.94 307 538.27 307"/><polygon class="cls-18" points="516.57 292 531.94 292 531.94 291 515.66 291 515.66 292 516.57 292"/><polygon class="cls-18" points="516.57 290 531.94 290 531.94 289 515.66 289 515.66 290 516.57 290"/><polygon class="cls-18" points="516.57 288 531.94 288 531.94 287 515.66 287 515.66 288 516.57 288"/><polygon class="cls-18" points="516.57 286 531.94 286 531.94 285 515.66 285 515.66 286 516.57 286"/><rect class="cls-10" x="585.3" y="346" width="37.08" height="48"/><polyline class="cls-9" points="617.86 368.99 617.86 375.07 611.53 375.07 611.53 368.99 617.86 368.99"/><polygon class="cls-18" points="596.15 358.85 611.53 358.85 611.53 358.17 595.25 358.17 595.25 358.85 596.15 358.85"/><polygon class="cls-18" points="596.15 357.49 611.53 357.49 611.53 356.82 595.25 356.82 595.25 357.49 596.15 357.49"/><polygon class="cls-18" points="596.15 356.14 611.53 356.14 611.53 355.46 595.25 355.46 595.25 356.14 596.15 356.14"/><polygon class="cls-18" points="596.15 354.79 611.53 354.79 611.53 354.11 595.25 354.11 595.25 354.79 596.15 354.79"/><rect class="cls-10" x="545.51" y="346" width="37.08" height="48"/><polyline class="cls-9" points="578.07 368.99 578.07 375.07 571.74 375.07 571.74 368.99 578.07 368.99"/><polygon class="cls-18" points="556.36 358.85 571.74 358.85 571.74 358.17 555.46 358.17 555.46 358.85 556.36 358.85"/><polygon class="cls-18" points="556.36 357.49 571.74 357.49 571.74 356.82 555.46 356.82 555.46 357.49 556.36 357.49"/><polygon class="cls-18" points="556.36 356.14 571.74 356.14 571.74 355.46 555.46 355.46 555.46 356.14 556.36 356.14"/><polygon class="cls-18" points="556.36 354.79 571.74 354.79 571.74 354.11 555.46 354.11 555.46 354.79 556.36 354.79"/><rect class="cls-10" x="505.71" y="346" width="37.08" height="48"/><polyline class="cls-9" points="538.27 368.99 538.27 375.07 531.94 375.07 531.94 368.99 538.27 368.99"/><polygon class="cls-18" points="516.57 358.85 531.94 358.85 531.94 358.17 515.66 358.17 515.66 358.85 516.57 358.85"/><polygon class="cls-18" points="516.57 357.49 531.94 357.49 531.94 356.82 515.66 356.82 515.66 357.49 516.57 357.49"/><polygon class="cls-18" points="516.57 356.14 531.94 356.14 531.94 355.46 515.66 355.46 515.66 356.14 516.57 356.14"/><polygon class="cls-18" points="516.57 354.79 531.94 354.79 531.94 354.11 515.66 354.11 515.66 354.79 516.57 354.79"/><polygon class="cls-19" points="893 182 930 182 930 195 892.67 195 893 182"/><polygon class="cls-11" points="864 195 894 169 901 176 874.33 195 864 195"/><rect class="cls-20" x="923" y="190" width="32" height="5"/><rect class="cls-5" x="783.13" y="184" width="17.88" height="11"/><rect class="cls-5" x="755.63" y="190" width="25.38" height="5"/><polygon class="cls-18" points="1003 294 1020 294 1020 293 1002 293 1002 294 1003 294"/><polygon class="cls-18" points="1003 296 1020 296 1020 295 1002 295 1002 296 1003 296"/><polygon class="cls-18" points="1003 298 1020 298 1020 297 1002 297 1002 298 1003 298"/><polygon class="cls-18" points="1003 300 1020 300 1020 299 1002 299 1002 300 1003 300"/><polygon class="cls-18" points="1003 309 1020 309 1020 308 1002 308 1002 309 1003 309"/><polygon class="cls-18" points="1003 311 1020 311 1020 310 1002 310 1002 311 1003 311"/><polygon class="cls-18" points="1003 313 1020 313 1020 312 1002 312 1002 313 1003 313"/><polygon class="cls-18" points="1003 315 1020 315 1020 314 1002 314 1002 315 1003 315"/><polygon class="cls-18" points="1003 317 1020 317 1020 316 1002 316 1002 317 1003 317"/><polygon class="cls-18" points="1039 293 1056 293 1056 292 1038 292 1038 293 1039 293"/><polygon class="cls-18" points="1039 295 1056 295 1056 294 1038 294 1038 295 1039 295"/><polygon class="cls-18" points="1039 297 1056 297 1056 296 1038 296 1038 297 1039 297"/><polygon class="cls-18" points="1039.83 321 1071 321 1071 320 1038 320 1038 321 1039.83 321"/><polygon class="cls-18" points="1039.61 314 1067 314 1067 313 1038 313 1038 314 1039.61 314"/><polygon class="cls-18" points="1039.83 323 1071 323 1071 322 1038 322 1038 323 1039.83 323"/><polygon class="cls-18" points="1039.83 325 1071 325 1071 324 1038 324 1038 325 1039.83 325"/><polygon class="cls-18" points="1039.83 327 1071 327 1071 326 1038 326 1038 327 1039.83 327"/><polygon class="cls-18" points="1039.83 329 1071 329 1071 328 1038 328 1038 329 1039.83 329"/><polygon class="cls-18" points="1039.83 331 1071 331 1071 330 1038 330 1038 331 1039.83 331"/><polygon class="cls-18" points="1002.39 307 1009 307 1009 301 1002 301 1002 307 1002.39 307"/><polygon class="cls-18" points="1010.39 307 1017 307 1017 301 1010 301 1010 307 1010.39 307"/><polygon class="cls-18" points="1057.39 298 1064 298 1064 292 1057 292 1057 298 1057.39 298"/><polygon class="cls-18" points="1065.39 298 1072 298 1072 292 1065 292 1065 298 1065.39 298"/><polygon class="cls-18" points="1038.75 311.6 1051.53 311.6 1051.53 300 1038 300 1038 311.6 1038.75 311.6"/><polygon class="cls-18" points="1054.22 311.6 1067 311.6 1067 300 1053.47 300 1053.47 311.6 1054.22 311.6"/><polygon class="cls-18" points="1039.83 319 1071 319 1071 315 1038 315 1038 319 1039.83 319"/><path class="cls-16" d="M598,856s-100-8-142,0-164,193-164,193H548Z"/><path class="cls-21" d="M575.9,1081.06C586.14,1031.25,613,899.71,613,890c0-12-15-34-15-34l-49,193,14.46,32.06Z"/><path class="cls-22" d="M563.76,1081.06C557.4,1066.55,549.59,1049,549,1049H292l-13.2,32.06Z"/></g><g id="Layer_7" data-name="Layer 7"><circle class="cls-23" cx="536.84" cy="406.33" r="16.52" transform="translate(-55.39 726.58) rotate(-65.52)"/><path class="cls-24" d="M526.46,393.48S521,407.75,541.1,413.32c0,0,9.5,1.35,10.89-.4s-1.81,3.54-2.52,4-11.7,5-19-2.5-9.9-12.24-9.9-12.24S523.28,395.52,526.46,393.48Z"/><path class="cls-25" d="M548.77,397.77c-.49-.22-3-2.56-2.3-3.44s2.75,2.45,2.75,2.45S550.25,398.45,548.77,397.77Z"/><circle class="cls-26" cx="503.5" cy="396.5" r="30.5"/><path class="cls-24" d="M476.22,382.85S478,411,516,405c0,0,17-5,18-9s-.33,7.33-1.17,8.67S517,422,499,415s-26-13-26-13S472.43,388.71,476.22,382.85Z"/><path class="cls-27" d="M517,373c-1,0-7-2-6.5-4s6.5,2,6.5,2S520,373,517,373Z"/><circle class="cls-28" cx="422" cy="421" r="56"/><path class="cls-24" d="M371.91,395.94s3.27,51.68,73,40.66c0,0,31.21-9.18,33-16.52s-.61,13.46-2.14,15.91-29.07,31.83-62.12,19S366,431.1,366,431.1,365,406.69,371.91,395.94Z"/><path class="cls-29" d="M446.79,377.85c-1.84,0-12.85-3.67-11.93-7.37"/></g><g id="Layer_3" data-name="Layer 3"><line class="cls-21" x1="632.67" y1="471.94" x2="610.81" y2="494.08"/><path class="cls-30" d="M532.18,491.58c1.6,0,78.63,2.49,78.63,2.49v-3.74l-78.63-2.49Z"/><polygon class="cls-31" points="632.67 467.89 532.18 466.64 455 487.84 610.81 490.34 632.67 467.89"/><polygon class="cls-30" points="396.63 438.62 606.82 438.58 610.81 520.58 616.14 520.58 612.68 424.23 401.68 424.3 396.63 438.62"/><polygon class="cls-21" points="619.61 516.84 616.14 520.58 612.68 424.23 635.87 409.27 639.07 488.46 636.93 490.34 633.74 419.25 616.14 432.03 619.61 516.84"/><polygon class="cls-32" points="629.61 422.25 632.67 490.34 636.93 490.34 633.74 419.25 629.61 422.25"/><path class="cls-33" d="M308,399.29l312.71-1.87S642,399.69,642,404.06l-22.73,18.62s-2,1.56-8,1.56-185.34,2.18-185.34,2.18H240Z"/><polygon class="cls-21" points="531.85 557.38 565.18 523.71 565.6 529.96 531.85 564.11 531.85 557.38"/><path class="cls-34" d="M228,396.09s8.18,12.17,18.25,12.17,19.51,18.57,27.69,15.37S350.71,402.5,357,402.5c0,0-22.65-31.38-52.86-32.66S228,396.09,228,396.09Z"/><path class="cls-30" d="M410.44,560.27c2.47,0,121.41,3.85,121.41,3.85v-5.77l-121.41-3.85Z"/><polygon class="cls-31" points="565.6 523.71 410.44 521.78 410.44 554.49 531.85 558.34 565.6 523.71"/><polygon class="cls-30" points="201.15 478.56 525.67 478.49 531.85 605 540.08 605 534.73 456.37 121 462 201.15 478.56"/><polygon class="cls-21" points="545.43 599.23 540.08 605 534.73 456.37 570.53 433.28 575.47 555.46 572.18 558.34 567.24 448.67 540.08 468.39 545.43 599.23"/><polygon class="cls-30" points="560.87 453.3 565.6 558.34 572.18 558.34 567.24 448.67 560.87 453.3"/><path class="cls-35" d="M181,425l366.13-10S580,418.51,580,425.24L544.91,454s-3,2.41-12.35,2.41S244,462,244,462l-128-2.27Z"/><polygon class="cls-21" points="442.9 649.48 494.2 605.27 494.83 613.48 442.9 658.32 442.9 649.48"/><path class="cls-30" d="M256.07,653.27c3.8,0,186.83,5.05,186.83,5.05v-7.58l-186.83-5.05Z"/><polygon class="cls-31" points="494.83 605.27 256.07 602.75 256.07 645.69 442.9 650.74 494.83 605.27"/><polygon class="cls-30" points="447.33 516.86 -0.86 516.99 -0.86 545.99 433.4 545.91 442.9 712 455.57 712 447.33 516.86"/><polygon class="cls-21" points="463.8 704.42 455.57 712 447.33 516.86 502.43 486.55 510.03 646.95 504.97 650.74 497.37 506.76 455.57 532.65 463.8 704.42"/><polygon class="cls-30" points="487.56 512.83 494.83 650.74 504.97 650.74 497.37 506.76 487.56 512.83"/><path class="cls-36" d="M466.42,462.55,34.55,466.34-.86,483.78v37.5H3.63s426-4.42,440.37-4.42,19-3.16,19-3.16L517,476C517,467.16,466.42,462.55,466.42,462.55Z"/><polygon class="cls-21" points="270.5 813.5 351.5 743.5 352.5 756.5 270.5 827.5 270.5 813.5"/><path class="cls-30" d="M-.86,808.14v11.94c70.1,1.84,271.36,7.42,271.36,7.42v-12Z"/><polygon class="cls-31" points="-0.86 739.75 -0.86 808.14 270.5 815.5 352.5 743.5 -0.86 739.75"/><polygon class="cls-30" points="277.5 603.5 -0.86 608.15 -0.86 649.5 255.5 649.5 270.5 912.5 290.5 912.5 277.5 603.5"/><polygon class="cls-21" points="303.5 900.5 290.5 912.5 277.5 603.5 364.5 555.5 376.5 809.5 368.5 815.5 356.5 587.5 290.5 628.5 303.5 900.5"/><polygon class="cls-30" points="341.01 597.12 352.5 815.5 368.5 815.5 356.5 587.5 341.01 597.12"/><path class="cls-37" d="M354.5,517.5-.86,523v86.29c102.53-2,293.87-5.75,303.36-5.75,13,0,15-5,15-5l100-69C417.5,515.5,354.5,517.5,354.5,517.5Z"/><polygon class="cls-21" points="48.6 1081.06 133.75 1000.25 132.21 978.27 23.7 1081.06 48.6 1081.06"/><polygon class="cls-31" points="-0.86 976.7 -0.86 1081.06 26.95 1081.06 133.75 978.27 -0.86 976.7"/><polygon class="cls-30" points="-0.86 1081.06 31.1 1081.06 18.07 741.57 -0.86 741.92 -0.86 1081.06"/><polygon class="cls-21" points="51.08 1081.06 38.12 783.84 139.92 714.52 157.52 1081.06 170.38 1081.06 152.26 660.41 18.07 741.57 31.1 1081.06 51.08 1081.06"/><polygon class="cls-30" points="157.52 1081.06 139.92 714.52 116.03 730.78 132.84 1081.06 157.52 1081.06"/><path class="cls-38" d="M136.83,596.17-.86,598.48V742.62c32.44-.65,53.82-1,57.49-1,20.05,0,23.14-8.45,23.14-8.45L234,616.46C234,592.79,136.83,596.17,136.83,596.17Z"/><path class="cls-39" d="M155.85,418.34S128,423.37,128,432.7s94,21.32,101,16-.33-14.52-.33-14.52S213.69,414.63,155.85,418.34Z"/><path class="cls-22" d="M99,415c-31.82-1.33-74.62,17.12-99.86,29.71v28.82A22.86,22.86,0,0,0,7,475c16,0,31,29,44,24s122-33,132-33C183,466,147,417,99,415Z"/><path class="cls-22" d="M138,411s4,12.24,17,15.58,62,1.11,71,14.47,16,7.79,16,7.79,13-5.57,13-8.9,6,0,6-3.34,18-7.38,21-9.61,0-6-46-28.24S138,411,138,411Z"/></g><g id="Layer_5" data-name="Layer 5"><path class="cls-40" d="M546,576s-10,2-15-25l-6,5s7,25,20,24S546,576,546,576Z"/><path class="cls-40" d="M646,669s-3.79,5.92-7,3-12-69-12-69l-5-14-74,3-31,79-10-1,39-87h82Z"/><path class="cls-41" d="M487,721s6,3,9,0c0,0,39-105,43-109s6-7,16-7,49-2,52-2,11,1,13,11,17,102,17,102,6,3,6,0c0,0-13-120-28-118-11.89,1.59-63,0-69,2s-20,21-24,33S487,721,487,721Z"/><path class="cls-36" d="M645,585s8,14-18,18-90,4-92,0,5.18-24.7,5.18-24.7Z"/><path class="cls-41" d="M539,606.75s-23.73-1.69-30.86-51.72S505,517,505,517s11.36,78.55,37.18,86.28Z"/><path class="cls-21" d="M645,585s-86,12-105,4c0,0-6.18-15,10.91-23.49S631,558,641,563,645,585,645,585Z"/><path class="cls-21" d="M514,569s17-10,17-14-22.39-78.19-25.69-78.59S494,477,494,487,504,564,514,569Z"/><path class="cls-36" d="M496,482s23.44,79,22.72,83.51S514,569,514,569s-9-5-9-13S485,475,496,482Z"/><path class="cls-40" d="M657.06,441.69s-4.76,1.23-7.13-15.4l-2.85,3.08s3.33,15.4,9.51,14.78S657.06,441.69,657.06,441.69Z"/><path class="cls-40" d="M701,500s-2.47,2.8-4,1-1.41-42.68-1.41-42.68l-2.38-8.62L658,451.54,643.27,500.2l-4.76-.62L657.06,446h39Z"/><path class="cls-41" d="M629,531s2.85,1.85,4.28,0c0,0,18.55-64.67,20.45-67.13s2.85-4.31,7.61-4.31,23.31-1.23,24.73-1.23,5.23.62,6.18,6.77,8.09,62.82,8.09,62.82,2.85,1.85,2.85,0c0,0-6.18-73.91-13.32-72.67-5.66,1-30,0-32.82,1.23s-9.51,12.93-11.42,20.32S629,531,629,531Z"/><path class="cls-36" d="M704.15,447.23s3.81,8.62-8.56,11.09-42.81,2.46-43.76,0,2.46-15.21,2.46-15.21Z"/><path class="cls-41" d="M653.73,460.63s-11.29-1-14.68-31.85-1.49-23.42-1.49-23.42,5.4,48.38,17.68,53.14Z"/><path class="cls-21" d="M704.15,447.23s-40.9,7.39-49.94,2.46c0,0-2.94-9.22,5.19-14.46s38.09-4.63,42.85-1.55S704.15,447.23,704.15,447.23Z"/><path class="cls-22" d="M641.84,437.38s8.09-6.16,8.09-8.62-10.65-48.15-12.22-48.4-5.38.36-5.38,6.52S637.09,434.3,641.84,437.38Z"/><path class="cls-21" d="M633.28,383.8s11.15,48.67,10.81,51.44-2.25,2.15-2.25,2.15-4.28-3.08-4.28-8S628,379.48,633.28,383.8Z"/></g></svg>