<svg xmlns="http://www.w3.org/2000/svg" viewBox="0 0 245 251.33"><defs><style>.cls-1{fill:#8689d7;}.cls-2{fill:#fed1ba;}.cls-3{fill:#e79788;}</style></defs><title>about_2</title><g id="Layer_2" data-name="Layer 2"><path class="cls-1" d="M214.53,65S183,36.58,157.7,53.64,98.2,80,90.3,73.31s-93.1,5.47-77.77,40.92,39.46,41.2,33.32,51-48.95,37.9-12.73,56.43,119.39,2.57,129.67-13.8,4.65-27.15,39.81-23.91S242.14,88.57,214.53,65Z"/></g><g id="Layer_1" data-name="Layer 1"><path class="cls-2" d="M203.85,128.28s-18.41-30.1-60-6.36c0,0-15.14-17.37-55.74,2.41,0,0,8.09-37,12.73-47.13l4.3-10.67s5.5-10.67,13.42-10.67,19.61-4.13,25.29-3.44,13.42-4.3,13.42-6,1.89-4.64-2.92-5.85-3.35-2.32-1.55-4.13,6.19-6,6.19-7.57,1.38-2.92-3.78-5.68-15.83-6.88-18.92-6.88S123.17,13.37,117,25.07s-23.4,27.7-24.77,29.07A210.5,210.5,0,0,0,45.76,120s-6.36,12-6.36,17.89,4.82,17.89,15.14,22.54S91,181.78,143,175.07c0,0,43,9.63,59.86,2.92C202.82,178,217.1,152.88,203.85,128.28Z"/><path class="cls-3" d="M89.75,157.76s49.64,9,54.15-2.07C143.9,155.69,142.14,177.57,89.75,157.76Z"/><path class="cls-3" d="M138,37.25l10.33,1.17s5-8.83,2.5-8.83S138,37.25,138,37.25Z"/></g></svg>