<svg xmlns="http://www.w3.org/2000/svg" viewBox="0 0 241 222"><defs><style>.cls-1{fill:#8388e1;}.cls-18,.cls-2{fill:#324b4d;}.cls-2{opacity:0.19;}.cls-11,.cls-3{fill:none;stroke-miterlimit:10;}.cls-3{stroke:#e6f4f1;}.cls-4{fill:#ccc;}.cls-5{fill:#bec2c5;}.cls-6{fill:#e6f4f1;}.cls-7{fill:#e6e6e6;}.cls-8,.cls-9{fill:#b3b3b3;}.cls-8{opacity:0.1;}.cls-10{fill:#c2c2c2;}.cls-11{stroke:#324b4d;stroke-width:0.5px;}.cls-12{fill:#865134;}.cls-13{fill:#6d482c;}.cls-14{fill:#a63b00;}.cls-15{fill:#e7b595;}.cls-16{fill:#333;}.cls-17{fill:#81482c;}</style></defs><title>anoba_4</title><g id="Layer_4" data-name="Layer 4"><path class="cls-1" d="M229.71,96c24.39,26.58-1.59,21.91-22.71,61s-95.68,87-145,46S-12.23,118.66,12.39,88.35,72.2,104.8,78.88,78.71s-29.6-47.63-1.84-67S188.89-.67,195.2,39.85,212.47,77.24,229.71,96Z"/></g><g id="Layer_3" data-name="Layer 3"><path class="cls-2" d="M108,165s47-9,65-3-2,22-43,25-61-1-60-7S92,169,108,165Z"/><polyline class="cls-3" points="180.5 84 180.5 72.5 183.5 49.5 165.5 79.5 166.5 94.5"/><path class="cls-4" d="M203.44,89.48l-.94,27s-1.37,5.05-11.5,6.5c-7,1-21,1-24.5-6.5v-27Z"/><polyline class="cls-5" points="185 97 185 103 188 103 188 97 185 98"/><polyline class="cls-6" points="185.13 43.25 185 50 184 50 184 43 185.13 43.25"/><ellipse class="cls-7" cx="185.5" cy="90.5" rx="18.5" ry="6.5"/><polygon class="cls-8" points="189.08 87.02 180 90 180 91 190.81 87.46 189.08 87.02"/><path class="cls-9" d="M203,93s-3.81,4.64-18.41,4.32-18-4.59-18-4.59L167,93s0,5,18,5S203,93,203,93Z"/><polygon class="cls-9" points="190.88 87.48 190 86 189.01 86.33 189 87 190.88 87.48"/><polyline class="cls-4" points="181 89 180 91 179 90 180 88 189 85 190 86 181 89 180 88"/><path class="cls-4" d="M166.5,92.58s2,2.92,7,3.92,19.5,1.5,25-1c5.31-2.41,4.5-2.5,4.5-2.5V91a22.36,22.36,0,0,1-12.64,4.22c-7.86.28-13,1.29-19.93-2.22l-3.93-2.5Z"/><polyline class="cls-3" points="203.5 94.5 204.5 78.5 185.5 49.5 186.5 85.5 186.5 101"/><polygon class="cls-5" points="203.31 93.19 203.16 97.5 202.5 97.5 202.44 94.17 203.31 93.19"/><polyline class="cls-5" points="168 118 167 98 167.27 93.35 166.5 92.73 166 117"/><path class="cls-10" d="M166,117c26,7,36.83-10,36.83-10l.17,11s-3,6-18,6S166,117,166,117Z"/></g><g id="Layer_2" data-name="Layer 2"><line class="cls-11" x1="73.5" y1="70.9" x2="73.5" y2="121"/><polygon class="cls-12" points="58 70 61 74 186 43 186 41 58 70"/><path class="cls-13" d="M186,43,60,73a1,1,0,0,0,1,1c1,0,125-30,125-30Z"/><path class="cls-14" d="M146.5,164.5l1-2s3,1,3,2-1,4-10,4-12,0-13-2,1-4,1-4Z"/><path class="cls-15" d="M145.33,140.58S134.5,157.5,135.5,159.5s14,3,13,5-15,4-17,2-5-2-2-9,8-20.6,8-20.6Z"/><path class="cls-16" d="M120.19,47.57,117.5,46.5a4.33,4.33,0,0,1-2-4c0-3-5-14,2-17S124,24,126,23s12.5,1.5,13.5,3.5-2,8-2,8-2-4-4-4-7-1-9,1-3,6-3,8-2,1-2,1l-1.08-1.71L119,40s-2,2.25,0,4A3.15,3.15,0,0,1,120.19,47.57Z"/><path class="cls-17" d="M127,110s27.5,5.5,27.5,11.5-3,18-3,18-8,3-12-1-19-10-19-11-2-16-2-16Z"/><path class="cls-15" d="M145.26,72.65s1.24,3.85,2.24,1.85,6-20,6-20-6-1-5-3,3-4,3-2,1,2,1,2l1.5.5,1.5-.5L158,51s-5.5,36.5-12.5,36.5-6.33-13.93-6.33-13.93"/><path class="cls-15" d="M96.54,80.54s-2,7-3,6-2-16-1-17,6-5,5-7c0,0,0-2-4,3,0,0-7,4-8,3s0,2,1,2-5,25,1,27,14.34-9.41,14.34-9.41Z"/><path class="cls-14" d="M118.5,178.5s9,1,8,3-7,2-13,2-18,0-18-2,1-4,2-4S118.5,178.5,118.5,178.5Z"/><path class="cls-15" d="M125.22,151.62,108.5,174.5s-2,2,13,5-21,4-24,0,4-5,4-7,12.43-23.6,12.43-23.6Z"/><path class="cls-12" d="M94.56,105.08s-23.07,21.27-1,28.09l15.57,4.18s5.17,6-4.13,7.65c0,0,11.16,12.31,21,12,0,0,5.15-7.45,7.59-10.77s8.78-8.3,2.5-14.1S118,112,118,112Z"/><path class="cls-18" d="M117.5,58.5s-15,0-22,19c0,0,3,11,8,11l6-7S90,100,89,106c0,0,27,15,42,2,0,0-2.5-6.5,1.5-18.5s6-13,6-16c0,0,7,1,9-3,0,0-1-23-14-16"/><path class="cls-15" d="M121.12,48.5l.38,6a6.83,6.83,0,0,1-4,4c-3,1,3,8,9,6s8-9,7-10c0,0-3,1-3,0v-3Z"/><path class="cls-15" d="M137.5,34.5s0,16-7,17-12-5-12-7c0,0-2,1-2-1s1-4,2-3c0,0-.5-7.5,4.5-9.5s6-4,10-1S137.5,30.5,137.5,34.5Z"/><path class="cls-14" d="M109,183s10-6,15.83-1.81C124.83,181.19,114,181,109,183Z"/><path class="cls-14" d="M121.49,179s3.51,0,3.51,2"/><path class="cls-14" d="M143.82,162.25c-.31,0,4.18-2.25,5.18,2.75C149,165,148.64,162.5,143.82,162.25Z"/><path class="cls-14" d="M137,168s8.8-7.64,11.9-3.32A33.82,33.82,0,0,0,137,168Z"/><path class="cls-16" d="M125,48s3-4,6-4a5.2,5.2,0,0,1,4.37,2.78L131,45l-6,3"/><path class="cls-15" d="M151.94,48.67s3.54-3.07,5.8-1.37c0,0,1.26.7.26.7s-3,1-3,0-1,2-2,1S151.94,48.67,151.94,48.67Z"/><polygon class="cls-15" points="157.14 52.98 158.85 50.65 157 51 157.14 52.98"/><path class="cls-15" d="M84.28,63.7S85,63,88,62s3-1,5-1,2,2,1,2-2,1-3,0-4,2-4,1S83.56,65.41,84.28,63.7Z"/><path class="cls-4" d="M92.44,125.48,88,175s.13,4.55-10,6c-7,1-16.5.5-20-7l-2-46Z"/><ellipse class="cls-7" cx="74.5" cy="126.5" rx="18.5" ry="6.5"/><polygon class="cls-5" points="87.29 132.52 87 173 88 173 92.1 129.21 87.29 132.52"/><polygon class="cls-5" points="59.77 131.52 60 140 57 138 56 128.21 59.77 131.52"/><path class="cls-9" d="M92,129s-3.81,4.64-18.41,4.32-18-4.59-18-4.59L56,129s0,5,18,5S92,129,92,129Z"/><polygon class="cls-9" points="79.88 123.48 79 122 78.01 122.33 78 123 79.88 123.48"/><polyline class="cls-4" points="70 125 69 127 68 126 69 124 78 121 79 122 70 125 69 124"/><path class="cls-4" d="M56,129s1.5,2.5,6.5,3.5,19.5,1.5,25-1c5.31-2.41,4.5-2.5,4.5-2.5l1-2a28.25,28.25,0,0,1-13.64,4.22c-7.86.28-13,1.29-19.93-2.22L56,127Z"/><line class="cls-11" x1="72.5" y1="71" x2="57.5" y2="134.5"/><line class="cls-11" x1="74.5" y1="69.55" x2="90.5" y2="135.5"/><polyline class="cls-9" points="89 138 91 136 91.28 136.05 88 138"/><polygon class="cls-7" points="88 138 91 133 91.4 136.06 91 136 91 134 89 138 88 138"/><polyline class="cls-9" points="58.77 137 57 135 56.75 135.05 59.65 137"/><polygon class="cls-7" points="59.65 137 57 132 56.65 135.06 57 135 57 133 58.77 137 59.65 137"/><path class="cls-11" d="M90.64,133.61s.86,1.89-.14,1.89"/><path class="cls-11" d="M57.5,134.5s-1-2,0-2"/><path class="cls-10" d="M88.91,164.86S82.5,177.5,70.5,175.5s-13-12.58-13-12.58l.68,11.48s2.3,6.87,13.8,7,15.27-3.57,15.88-5.73S88.91,164.86,88.91,164.86Z"/></g></svg>