<svg xmlns="http://www.w3.org/2000/svg" viewBox="0 0 1920 809"><defs><style>.cls-1,.cls-32{fill:#312f68;}.cls-2{fill:#3b909a;}.cls-3{fill:#567c90;}.cls-4{fill:#486188;}.cls-5{fill:#7ca9bb;}.cls-14,.cls-6{fill:#42548d;}.cls-22,.cls-24,.cls-25,.cls-6{opacity:0.5;}.cls-7{fill:#5bab9f;}.cls-8{fill:#56658d;}.cls-9{fill:#247f92;}.cls-10{fill:#425e8d;}.cls-11{fill:#245e92;}.cls-12{fill:#42478d;}.cls-13{fill:#45658d;}.cls-15{fill:#56868d;}.cls-16{fill:#4a6f8b;}.cls-17{fill:#47c5c2;}.cls-18{fill:#008da2;}.cls-19{fill:#5b909f;}.cls-20{fill:#246d92;}.cls-21{fill:none;stroke:#42478d;stroke-miterlimit:10;stroke-width:0.25px;}.cls-22{fill:#424c8d;}.cls-23{fill:#424a8d;}.cls-24,.cls-30{fill:#42408d;}.cls-25{fill:#42818d;}.cls-26{fill:#294a77;}.cls-27{fill:#5bffff;}.cls-28{fill:aqua;opacity:0.05;}.cls-29{fill:#3e8392;}.cls-31{fill:#42338d;}.cls-32{opacity:0.87;}.cls-33{fill:#293874;}.cls-34{fill:#424774;}.cls-35{fill:#6877b0;}</style></defs><title>anoba_bg_final</title><g id="Layer_1" data-name="Layer 1"><path class="cls-1" d="M-.5,562.5V632L1921,616.24,1920,0H0L-.89,560.5A5.1,5.1,0,0,1-.5,562.5Z"/><path class="cls-2" d="M1413.5,494.84c-262,34.68-516-39.53-953-38.84-293.23.47-413.56,71.5-461,118.19V809H1921.33V485.44C1783.8,472.89,1577.5,473.13,1413.5,494.84Z"/><polygon class="cls-3" points="-0.5 680.8 -0.5 686.93 1921.33 781.67 1921.33 773.8 -0.5 680.8"/><polygon class="cls-4" points="-0.5 686.93 -0.5 809 1921.33 809 1921.33 781.67 -0.5 686.93"/><polygon class="cls-5" points="-0.5 585.36 -0.5 680.8 1921.33 773.76 1921.33 664.18 -0.5 585.36"/><path class="cls-6" d="M1921.33,576.56C1874.88,638.23,1798,742.77,1798,742.77l12.58,9.34s7.41-1.46,8.66-2.77c.8-.84,59.94-88.48,102.09-151Z"/><polygon class="cls-6" points="1921.33 485.95 1881 482 1791 629.48 1791 659 1862.64 636.04 1921.33 558.9 1921.33 485.95"/><path class="cls-6" d="M810,619l49,1,99-74s-44-5-45-5-102.67,70.67-102.67,70.67Z"/><polygon class="cls-5" points="-0.5 747.62 -0.5 751.6 1391 809 1474.57 808.58 -0.5 747.62"/></g><g id="Layer_2" data-name="Layer 2"><path class="cls-6" d="M180,551c0,1-41,24-41,24l33.17,17.33Z"/><polyline class="cls-7" points="122 590 122 505.35 102 505.35 102 588.85 122 590"/><polyline class="cls-8" points="122 590 231 525 229 489.58 231 488.75 231 485.49 229 485.43 229 480.34 195.75 479.62 195.38 472.98 122 505.35 122 590"/><polygon class="cls-9" points="196 474 102 505.35 122 505.35 197 477 196 474"/><polyline class="cls-10" points="434 454 434 334 434 301 429 301 429 334"/><polygon class="cls-11" points="429 301 434 300 437 300 434 301 429 301"/><polygon class="cls-12" points="437 300 437 311 434 311 434 301 437 300"/><polyline class="cls-10" points="462 454 462 334 462 301 457 301 457 334"/><polygon class="cls-11" points="457 301 462 300 465 300 462 301 457 301"/><polygon class="cls-12" points="465 300 465 311 462 311 462 301 465 300"/><polyline class="cls-10" points="909 465 909 345 909 312 904 312 904 345"/><polygon class="cls-11" points="904 312 909 311 912 311 909 312 904 312"/><polygon class="cls-12" points="912 311 912 322 909 322 909 312 912 311"/><polyline class="cls-10" points="937 465 937 345 937 312 932 312 932 345"/><polygon class="cls-11" points="932 312 937 311 940 311 937 312 932 312"/><polygon class="cls-12" points="940 311 940 322 937 322 937 312 940 311"/><polygon class="cls-13" points="983 339 377 326 172 391 810 411 983 339"/><polygon class="cls-9" points="207 342 377 304 967 322 833.75 360 207 342"/><polygon class="cls-8" points="812 406 812 416.67 958 356 957 322 951 325 835 362 812 406"/><polygon class="cls-6" points="816 386 953.55 335.98 953.05 328.48 834 367 816 386"/><polygon class="cls-8" points="810 411 972 344 960 515 810 619 810 411"/><polygon class="cls-7" points="810 619 810 411 172 391 172 593 810 619"/><polygon class="cls-14" points="780 463 789 460 839 367 953.67 328.67 953 325.33 834 359 780 463"/><path class="cls-6" d="M959,368c-2-1-109,38-109,38L817,614.33,975,511Z"/><polygon class="cls-13" points="1878 191 1088 164 953 254 1782 282 1878 191"/><polygon class="cls-7" points="953 253 952 625 1791 660 1782 282 953 253"/><polygon class="cls-8" points="1878 191 1884 526 1791 659 1782 281 1878 191"/><polygon class="cls-13" points="991 576 952 625 1571 650 1571 512 991 490 991 576"/><polygon class="cls-14" points="992 570 1571 595 1571 650 939 624 992 570"/><polygon class="cls-2" points="939 624 991 571 991 490 976 491 952 524.67 939 624"/><polygon class="cls-15" points="1584 522 1776 530 1779 654 1584 646 1584 522"/><polygon class="cls-8" points="1779 651.33 1587 643 1587 522.13 1584 522 1584 646 1779 654 1779 651.33"/><polygon class="cls-8" points="1678 526 1679 647 1680 647 1679.35 525.97 1678 526"/><polygon class="cls-10" points="1469.99 591.69 1469.99 539 1432 537 1432 590 1469.99 591.69"/><polygon class="cls-16" points="1432 535 1470 537 1469.99 508.17 1432 506.73 1432 535"/><polygon class="cls-14" points="1427.31 585.29 1427 522 1218 514 1218 577 1427.31 585.29"/><polygon class="cls-16" points="1220 575 1220 512 1427 520 1427 583 1220 575"/><polygon class="cls-14" points="1383.01 520.32 1383 583 1382 583 1381.83 520.32 1383.01 520.32"/><polygon class="cls-14" points="1330.01 518.32 1330 582 1329 582 1328.83 518.32 1330.01 518.32"/><polygon class="cls-14" points="1274 515.32 1273.99 580 1273 579 1272.83 516.32 1274 515.32"/><polygon class="cls-14" points="1433 534 1469.99 535.92 1470 537 1432 535 1432 507 1433 507 1433 534"/><polygon class="cls-16" points="1476 586 1476 526 1571 530 1571 589 1476 586"/><polygon class="cls-14" points="1477.01 526.04 1477 585 1571 589 1571 590 1476 586 1476 526 1477.01 526.04"/><polygon class="cls-17" points="1762 444 1764 512 1163 487 1163 421 1762 444"/><polygon class="cls-8" points="1765 442 1767 507 1764 512 1762 444 1765 442"/><polygon class="cls-8" points="1765 442 1166 419 1163 421 1762 444 1765 442"/><path class="cls-18" d="M1256,438.26l-10.43-.33v-.6l21.75.69v.6l-10.55-.34c0,9.26,0,15.77,0,26.63l-.77,0C1256,454,1256,447.52,1256,438.26Z"/><path class="cls-18" d="M1282.54,451c0,5.78,0,8.88,0,14.65l-.78,0c0-1.64,0-2.48,0-4.15a7.19,7.19,0,0,1-6.67,4,7.73,7.73,0,0,1-7.43-7.74,7.2,7.2,0,0,1,7.42-7.3,7.74,7.74,0,0,1,6.68,4.36c0-1.52,0-2.28,0-3.78Zm-.78,7.08a7,7,0,0,0-6.68-6.94,6.43,6.43,0,0,0-6.64,6.55,6.91,6.91,0,0,0,6.65,6.94A6.46,6.46,0,0,0,1281.76,458.05Z"/><path class="cls-18" d="M1302.46,451.62c0,7.4,0,11.48,0,18.63,0,6.24-4.67,7.4-7.61,7.31V477c2.3.07,6.83-.84,6.82-6.41,0-3.28,0-5,0-8.48a7.26,7.26,0,0,1-6.75,3.93,7.79,7.79,0,0,1-7.52-7.73,7.21,7.21,0,0,1,7.5-7.26,7.86,7.86,0,0,1,6.76,4.36c0-1.52,0-2.27,0-3.76Zm-.78,7.05a7,7,0,0,0-6.76-6.93,6.44,6.44,0,0,0-6.72,6.51,7,7,0,0,0,6.74,6.93A6.46,6.46,0,0,0,1301.68,458.67Z"/><path class="cls-18" d="M1308.92,459.69c0-3.16,0-4.76,0-7.86l.8,0c0,3.1,0,4.7,0,7.86a6.05,6.05,0,0,0,5.87,6.13,5.44,5.44,0,0,0,5.82-5.26c0-3.35,0-5,0-8.33l.8,0c0,5.74,0,8.82,0,14.56l-.8,0c0-1.34,0-2,0-3.37a6.38,6.38,0,0,1-5.9,3.19A6.83,6.83,0,0,1,1308.92,459.69Z"/><path class="cls-18" d="M1329.06,452.52l.8,0c0,1.49,0,2.24,0,3.75a7.39,7.39,0,0,1,6.93-3.87v.77a6.45,6.45,0,0,0-6.92,6.36c0,3,0,4.56,0,7.53l-.8,0C1329.09,461.33,1329.08,458.26,1329.06,452.52Z"/><path class="cls-18" d="M1339.91,460a7.23,7.23,0,0,1,7.67-7.17,8,8,0,0,1,7.77,7.71,7.24,7.24,0,0,1-7.7,7.17A7.94,7.94,0,0,1,1339.91,460Zm14.63.47a7.12,7.12,0,0,0-7-6.91,6.45,6.45,0,0,0-6.87,6.43,7.09,7.09,0,0,0,6.93,6.91A6.47,6.47,0,0,0,1354.54,460.45Z"/><path class="cls-18" d="M1376.6,441.84l9.94.37c4.77.18,8.71,3.47,8.75,7.76s-3.85,7.87-8.62,7.69l-9.14-.34c0,4.56,0,6.91.08,11.4l-.82,0C1376.71,457.73,1376.67,451.25,1376.6,441.84ZM1386.66,457c4.3.12,7.84-3.08,7.81-7s-3.63-7-8-7.13l-9-.34c0,5.15.06,8.15.11,14.15Z"/><path class="cls-18" d="M1401.1,442.76l.82,0c.06,5.68.09,9.06.15,15.75a7.29,7.29,0,0,1,6.69-3.46,7.5,7.5,0,0,1,7.35,7.3c0,3.13,0,4.7.08,7.76l-.83,0c0-3,0-4.57-.08-7.65a6.54,6.54,0,0,0-6.44-6.61c-2.95-.11-6.78,1.83-6.74,5.92,0,3.16,0,4.75.07,7.85l-.82,0C1401.25,458.65,1401.2,452.2,1401.1,442.76Z"/><path class="cls-18" d="M1428.45,481.53c2.41.09,7.15-.8,7.08-6.34,0-3-.06-4.53-.09-7.65a6.57,6.57,0,0,1-6.09,3.11,7.05,7.05,0,0,1-6.91-6.9c0-3.12-.05-4.7-.08-7.77l.83,0c0,3.07.05,4.64.09,7.77a6.26,6.26,0,0,0,6.15,6.11c3.24.12,6-2.11,6-5.16,0-3.31-.06-5-.1-8.24l.83,0c.09,7.31.13,11.3.22,18.39.08,6.19-4.81,7.35-7.9,7.23Z"/><path class="cls-18" d="M1441.81,467.27l.83,0c0,1.85,2.1,3.17,4.56,3.26,2.3.09,4.39-1.07,4.36-3s-2.14-3.16-4.44-3.25c-2.89-.11-5.37-1.77-5.4-4.1,0-2.07,2-3.81,5.22-3.68a7.34,7.34,0,0,1,3.34.94l-.55.53a6.52,6.52,0,0,0-2.78-.7c-2.22-.09-4.46,1-4.43,2.88,0,1.74,1.9,3.26,4.4,3.36,2.73.11,5.45,1.63,5.48,4,0,2.55-2.64,3.86-5.18,3.76C1444.16,471.21,1441.84,469.38,1441.81,467.27Z"/><path class="cls-18" d="M1457.35,453.26a.71.71,0,0,1,.78-.67.81.81,0,0,1,.8.74.71.71,0,0,1-.78.68A.81.81,0,0,1,1457.35,453.26Zm.49,4.12.83,0c.08,5.68.12,8.7.2,14.37l-.83,0C1458,466.08,1457.92,463.06,1457.85,457.38Z"/><path class="cls-18" d="M1464.33,464.63c-.06-4.08,3.47-7.22,7.83-7s8,3.61,8.06,7.68-3.47,7.21-7.84,7S1464.39,468.71,1464.33,464.63Zm15.06.56a7.33,7.33,0,0,0-7.21-6.88c-3.93-.16-7.06,2.64-7,6.31a7.31,7.31,0,0,0,7.21,6.88C1476.31,471.66,1479.44,468.86,1479.39,465.2Z"/><path class="cls-18" d="M1486.61,459.3c.05,3.31.08,5,.13,8.37a6.69,6.69,0,0,0,2.22,4.71l-.59.56a7.84,7.84,0,0,1-2.47-5.38c-.05-3.32-.08-5-.13-8.29l-2.46-.1v-.77l2.46.1c0-2.31-.06-3.46-.09-5.68l.83,0c0,2.22.06,3.36.09,5.68l3.14.13v.76Z"/><path class="cls-18" d="M1495.88,446.53l.83,0c.11,5.74.16,9.09.27,15.73a7.34,7.34,0,0,1,6.74-3.41,7.6,7.6,0,0,1,7.47,7.27c.05,3.1.08,4.66.13,7.7l-.83,0c-.05-3-.08-4.54-.13-7.59a6.62,6.62,0,0,0-6.55-6.58c-3-.12-6.84,1.79-6.78,5.86.05,3.13.08,4.71.13,7.79l-.83,0C1496.15,462.37,1496.06,456.07,1495.88,446.53Z"/><path class="cls-18" d="M1532.28,467.37l-15.07-.61a7.33,7.33,0,0,0,7.23,6.82,7,7,0,0,0,5.05-1.76l.65.57a8,8,0,0,1-5.68,2c-4.37-.17-8-3.59-8.08-7.65s3.45-7.18,7.82-7S1532.2,463.32,1532.28,467.37Zm-.89-.81a7.5,7.5,0,0,0-7.18-6.11c-3.66-.15-6.63,2.24-7,5.54Z"/><path class="cls-18" d="M1537.31,460.63l.83,0c0,1.46,0,2.2.07,3.68a7.55,7.55,0,0,1,7.11-3.74v.76c-3.65-.15-7.14,2.28-7.07,6.18.05,3,.08,4.47.14,7.39l-.83,0C1537.47,469.26,1537.42,466.28,1537.31,460.63Z"/><path class="cls-18" d="M1564.36,461.76c.11,5.63.16,8.59.27,14.21l-.83,0c0-1.6,0-2.41-.08-4a7.48,7.48,0,0,1-7,3.75c-4.36-.17-8-3.58-8.07-7.62s3.44-7.15,7.79-7a8.6,8.6,0,0,1,7.17,4.33c0-1.48,0-2.21-.07-3.67Zm-.7,6.85c-.07-3.63-3.29-6.66-7.21-6.82s-7,2.61-7,6.25,3.3,6.67,7.22,6.83S1563.73,472.24,1563.66,468.61Z"/><path class="cls-18" d="M1571.09,461.68l.83,0c0,1.6,0,2.41.08,4a7.44,7.44,0,0,1,7-3.73c4.34.18,8,3.58,8,7.59s-3.41,7.12-7.76,6.95a8.56,8.56,0,0,1-7.15-4.3c.13,6.74.19,10.15.32,16.06l-.83,0C1571.4,478.67,1571.29,472.49,1571.09,461.68Zm15.11,7.92c-.07-3.61-3.28-6.64-7.19-6.8s-7,2.6-7,6.22,3.29,6.65,7.2,6.8S1586.26,473.22,1586.19,469.6Z"/><path class="cls-18" d="M1598.28,488.13c2.4.09,7.09-.85,7-6.32-.06-2.94-.08-4.47-.14-7.52a6.49,6.49,0,0,1-6,3,7.06,7.06,0,0,1-6.93-6.79c-.06-3.06-.09-4.6-.14-7.62l.83,0c.06,3,.09,4.56.14,7.62a6.26,6.26,0,0,0,6.17,6c3.23.13,6-2.06,5.92-5-.06-3.24-.09-4.88-.15-8.07l.83,0c.13,7.18.2,11,.33,18,.12,6.12-4.72,7.34-7.79,7.22Z"/><path class="cls-18" d="M1626.53,464.9c-.13-7.4,6.38-12.52,14.44-12.16a16.74,16.74,0,0,1,10.32,4l-.54.41a15.79,15.79,0,0,0-9.77-3.75c-7.67-.34-13.75,4.52-13.63,11.56s6.39,13,14,13.31a13.83,13.83,0,0,0,9.71-3.34l.55.52A14.73,14.73,0,0,1,1641.4,479C1633.36,478.66,1626.66,472.3,1626.53,464.9Z"/><path class="cls-18" d="M1671.28,473l-14.6-.58a7.08,7.08,0,0,0,7,6.62,6.83,6.83,0,0,0,4.9-1.73l.62.56a7.8,7.8,0,0,1-5.51,2c-4.23-.16-7.76-3.48-7.82-7.42s3.38-7,7.62-6.81S1671.23,469.06,1671.28,473Zm-.85-.78a7.23,7.23,0,0,0-6.93-5.93,6.28,6.28,0,0,0-6.79,5.39Z"/><path class="cls-18" d="M1676.19,466.44l.8,0,0,2.86a6.34,6.34,0,0,1,5.67-3c4.44.18,6.75,3.36,6.78,6.27,0,3.26,0,4.9.08,8.11l-.8,0c0-3.21,0-4.86-.08-8.12,0-2.62-2-5.33-5.94-5.5a5.21,5.21,0,0,0-5.68,5.29c0,3.17.06,4.77.09,7.9l-.8,0C1676.29,474.79,1676.25,471.92,1676.19,466.44Z"/><path class="cls-18" d="M1696.78,468c0,3.17,0,4.79.07,8a6.34,6.34,0,0,0,2.08,4.5l-.56.54a7.44,7.44,0,0,1-2.32-5.14c0-3.18,0-4.78-.07-7.93l-2.36-.1v-.73l2.36.1c0-2.22,0-3.32,0-5.47l.8,0c0,2.15,0,3.25,0,5.47l3,.12v.73Z"/><path class="cls-18" d="M1719.43,474.82l-14.27-.54a6.84,6.84,0,0,0,6.78,6.47,6.73,6.73,0,0,0,4.8-1.71l.6.54a7.68,7.68,0,0,1-5.4,1.93c-4.13-.14-7.55-3.4-7.58-7.27s3.36-6.87,7.51-6.7S1719.41,471,1719.43,474.82Zm-.83-.76a7,7,0,0,0-6.72-5.81,6.22,6.22,0,0,0-6.69,5.3Z"/><path class="cls-18" d="M1724.28,468.41l.79,0c0,1.39,0,2.09,0,3.49a7.25,7.25,0,0,1,6.75-3.56v.72c-3.43-.14-6.76,2.18-6.75,5.87,0,2.81,0,4.23,0,7l-.78,0C1724.3,476.58,1724.29,473.78,1724.28,468.41Z"/><polygon class="cls-15" points="1170 487 1169 497 1769 520 1769 507 1764 512 1170 487"/><polygon class="cls-15" points="1769 507 1767 507 1764 512 1769 507"/><polyline class="cls-15" points="1765 442 1767 445 1769 507 1767 507"/><polygon class="cls-15" points="1577 301 1769 309 1772 433 1577 425 1577 301"/><polygon class="cls-8" points="1772 430.33 1580 422 1580 301.13 1577 301 1577 425 1772 433 1772 430.33"/><polygon class="cls-8" points="1671 305 1672 426 1673 426 1672.35 304.97 1671 305"/><polygon class="cls-15" points="1369 292 1564 300 1564 424 1369 416 1369 292"/><polygon class="cls-8" points="1564 421.33 1372 413 1372 292.13 1369 292 1369 416 1564 424 1564 421.33"/><polygon class="cls-8" points="1463 296 1464 417 1465 417 1464.35 295.97 1463 296"/><polygon class="cls-15" points="1164 283 1359 291 1359 415 1164 407 1164 283"/><polygon class="cls-8" points="1359 412.33 1167 404 1167 283.13 1164 283 1164 407 1359 415 1359 412.33"/><polygon class="cls-8" points="1258 287 1259 408 1260 408 1259.35 286.97 1258 287"/><polygon class="cls-8" points="1774 299 1774 309 1767 318 1767 307 1774 299"/><polygon class="cls-9" points="1774 299 1582 293 1572 301 1767 307 1774 299"/><polygon class="cls-19" points="1767 307 1767 318 1572 311 1572 301 1767 307"/><polyline class="cls-2" points="991 490 952.37 489 945 566 991 527"/><polygon class="cls-8" points="1567 291 1567 301 1557 310 1557 299 1567 291"/><polygon class="cls-9" points="1567 291 1379 284 1365 293 1557 299 1567 291"/><polygon class="cls-19" points="1557 299 1557 310 1365 303 1365 293 1557 299"/><polygon class="cls-8" points="1363 284 1363 294 1353 303 1353 292 1363 284"/><polygon class="cls-9" points="1363 284 1175 277 1161 286 1353 292 1363 284"/><polygon class="cls-19" points="1353 292 1353 303 1161 296 1161 286 1353 292"/><polygon class="cls-6" points="1577 311 1577 325.63 1774 332 1774 309 1767 318 1577 311"/><polygon class="cls-6" points="1370 303 1370 317.63 1567 325 1567 301 1557 310 1370 303"/><polygon class="cls-6" points="1166 296 1166 310.63 1363 318 1363 294 1353 303 1166 296"/><polygon class="cls-7" points="1782 287 1782 257 953 231 953 264 1782 287"/><polygon class="cls-8" points="1878 175 1782 256 1782 284 1878 191 1878 175"/><polygon class="cls-9" points="1878 175 1869 175 1776 247 969 221 953 231 1782 257 1878 175"/><polygon class="cls-9" points="969 221 1094 149 1869 175 1861.75 180.61 1096 158 993.51 221.79 969 221"/><polygon class="cls-14" points="1017.41 223 1097 171 1842.74 195.33 1864 179 1098 155 993 222 1017.41 223"/><polygon class="cls-20" points="1780 222 1702 219 1702 185.4 1780 187.65 1780 222"/><polygon class="cls-12" points="1791 213 1780 222 1780 188 1791 180 1791 213"/><polygon class="cls-11" points="1714 178 1791 180 1780 188 1702 185.92 1714 178"/><polygon class="cls-13" points="1743 195 1743 215 1775 216 1775 196 1743 195"/><polygon class="cls-13" points="1705 194 1705 214 1737 215 1737 195 1705 194"/><line class="cls-21" x1="1775" y1="202" x2="1743" y2="201"/><line class="cls-21" x1="1775" y1="210" x2="1743" y2="209"/><line class="cls-21" x1="1775" y1="198" x2="1743" y2="197"/><line class="cls-21" x1="1775" y1="206" x2="1743" y2="205"/><line class="cls-21" x1="1775" y1="214" x2="1743" y2="213"/><line class="cls-21" x1="1737" y1="201" x2="1705" y2="200"/><line class="cls-21" x1="1737" y1="209" x2="1705" y2="208"/><polygon class="cls-20" points="1168.94 186 1108 184.38 1108 166.25 1171.53 167.47 1168.94 186"/><polygon class="cls-12" points="1176 178.3 1168.96 186 1168.96 167.66 1176 162.91 1176 178.3"/><polygon class="cls-11" points="1115.7 161.62 1176 162.91 1168.94 167.4 1108 166.53 1115.7 161.62"/><polygon class="cls-20" points="1156.5 201 1079 198.94 1079 175.89 1159.79 177.44 1156.5 201"/><polygon class="cls-12" points="1165.47 191.21 1156.53 201 1156.53 177.68 1165.47 171.63 1165.47 191.21"/><polygon class="cls-11" points="1088.79 170 1165.47 171.63 1156.5 177.34 1079 176.25 1088.79 170"/><line class="cls-21" x1="1737" y1="197" x2="1705" y2="196"/><line class="cls-21" x1="1737" y1="205" x2="1705" y2="204"/><line class="cls-21" x1="1737" y1="213" x2="1705" y2="212"/><polygon class="cls-20" points="1754.32 244 1671 240.79 1671 204.9 1754.32 207.31 1754.32 244"/><polygon class="cls-12" points="1766.07 234.39 1754.32 244 1754.32 207.68 1766.07 199.14 1766.07 234.39"/><polygon class="cls-11" points="1683.82 197 1766.07 199.14 1754.32 207.68 1671 205.46 1683.82 197"/><polygon class="cls-13" points="1714.8 215.16 1714.8 236.52 1748.98 237.59 1748.98 216.23 1714.8 215.16"/><polygon class="cls-13" points="1674.2 214.09 1674.2 235.46 1708.39 236.52 1708.39 215.16 1674.2 214.09"/><line class="cls-21" x1="1748.98" y1="222.64" x2="1714.8" y2="221.57"/><line class="cls-21" x1="1748.98" y1="231.18" x2="1714.8" y2="230.11"/><line class="cls-21" x1="1748.98" y1="218.36" x2="1714.8" y2="217.3"/><line class="cls-21" x1="1748.98" y1="226.91" x2="1714.8" y2="225.84"/><line class="cls-21" x1="1748.98" y1="235.45" x2="1714.8" y2="234.39"/><line class="cls-21" x1="1708.39" y1="221.57" x2="1674.2" y2="220.5"/><line class="cls-21" x1="1708.39" y1="230.11" x2="1674.2" y2="229.05"/><line class="cls-21" x1="1708.39" y1="217.3" x2="1674.2" y2="216.23"/><line class="cls-21" x1="1708.39" y1="225.84" x2="1674.2" y2="224.77"/><line class="cls-21" x1="1708.39" y1="234.39" x2="1674.2" y2="233.32"/><polygon class="cls-20" points="1434 230 1356 227 1356 193.4 1434 195.65 1434 230"/><polygon class="cls-12" points="1445 221 1434 230 1434 196 1445 188 1445 221"/><polygon class="cls-11" points="1368 186 1445 188 1434 196 1356 193.92 1368 186"/><polygon class="cls-13" points="1397 203 1397 223 1429 224 1429 204 1397 203"/><polygon class="cls-13" points="1359 202 1359 222 1391 223 1391 203 1359 202"/><line class="cls-21" x1="1429" y1="210" x2="1397" y2="209"/><line class="cls-21" x1="1429" y1="218" x2="1397" y2="217"/><line class="cls-21" x1="1429" y1="206" x2="1397" y2="205"/><line class="cls-21" x1="1429" y1="214" x2="1397" y2="213"/><line class="cls-21" x1="1429" y1="222" x2="1397" y2="221"/><line class="cls-21" x1="1391" y1="209" x2="1359" y2="208"/><line class="cls-21" x1="1391" y1="217" x2="1359" y2="216"/><line class="cls-21" x1="1391" y1="205" x2="1359" y2="204"/><line class="cls-21" x1="1391" y1="213" x2="1359" y2="212"/><line class="cls-21" x1="1391" y1="221" x2="1359" y2="220"/><polygon class="cls-20" points="1510 233 1432 230 1432 196 1510 198 1510 233"/><polygon class="cls-12" points="1521 223 1510 233 1510 198 1521 190 1521 223"/><polygon class="cls-11" points="1444 188 1521 190 1510 198 1432 195.92 1444 188"/><polygon class="cls-13" points="1473 205 1473 225 1505 226 1505 206 1473 205"/><polygon class="cls-13" points="1435 204 1435 224 1467 225 1467 205 1435 204"/><line class="cls-21" x1="1505" y1="212" x2="1473" y2="211"/><line class="cls-21" x1="1505" y1="220" x2="1473" y2="219"/><line class="cls-21" x1="1505" y1="208" x2="1473" y2="207"/><line class="cls-21" x1="1505" y1="216" x2="1473" y2="215"/><line class="cls-21" x1="1505" y1="224" x2="1473" y2="223"/><polyline class="cls-22" points="1148 629.82 1156 627.95 1212.17 579.33 1099.02 574 997 624 1148 629.82"/><line class="cls-21" x1="1467" y1="211" x2="1435" y2="210"/><line class="cls-21" x1="1467" y1="219" x2="1435" y2="218"/><line class="cls-21" x1="1467" y1="207" x2="1435" y2="206"/><line class="cls-21" x1="1467" y1="215" x2="1435" y2="214"/><line class="cls-21" x1="1467" y1="223" x2="1435" y2="222"/><polygon class="cls-6" points="1754 244 1780 229 1766.07 228.88 1766 234 1754 244"/><polygon class="cls-6" points="1780 222 1798 208 1791 207.68 1791 213 1780 222"/><polygon class="cls-14" points="1215 498.98 1215 578 1128 576.02 1132.4 497 1215 498.98"/><polygon class="cls-23" points="1144 633 1211.29 579.55 1211.29 498.7 1209.75 498.5 1207.02 498.53 1206 579 1138 632 1144 633"/><polyline class="cls-24" points="994 627 1101 573 1101 494.17 1095.83 494.17 1092 570 988 627 994 627"/><polygon class="cls-23" points="1179 611 1157 628 992 620 1025 605.63 1179 611"/><polygon class="cls-23" points="1200 593 1182 608 1019 599 1047 587 1200 593"/><polygon class="cls-23" points="1201.23 590 1214 579.55 1214 570 1070.64 563 1072.6 572 1051 583 1201.23 590"/><polygon class="cls-23" points="1214 540 1214 566 1079 559 1082 534 1214 540"/><polygon class="cls-23" points="1213 500.81 1213.48 536 1082.48 531.24 1084.48 497 1213 500.81"/><polyline class="cls-23" points="996 624 1049 494 1087 496 1087 566 996 624"/><polygon class="cls-15" points="988 490 989.06 458.25 1153 464 1153 496 988 490"/><polygon class="cls-15" points="988 463.83 989 232 1153 237 1153 464 988 463.83"/><polygon class="cls-15" points="1151 470 1156 470 1156 496.3 1133.83 495.33 1137 470 1151 470"/><polygon class="cls-15" points="1151 433 1156 433 1156 463 1133.83 461.9 1137 433 1151 433"/><polygon class="cls-15" points="1151 394 1156 394 1156 424 1133.83 422.9 1137 394 1151 394"/><polygon class="cls-15" points="1151 356 1156 356 1156 386 1133.83 384.9 1137 356 1151 356"/><polygon class="cls-15" points="1151 318 1156 318 1156 348 1133.83 346.9 1137 318 1151 318"/><polygon class="cls-15" points="1151 280 1156 280 1156 310 1133.83 308.9 1137 280 1151 280"/><polygon class="cls-15" points="1151 242 1156 242 1156 271 1133.83 269.94 1137 242 1151 242"/><polygon class="cls-11" points="1153 237.27 1160.69 227.18 1149 226.67 1149 237.15 1153 237.27"/><polyline class="cls-11" points="997 232.38 1009 222 997 222.54 997 232.58"/><polygon class="cls-6" points="1510 233 1524 228 1542 212 1521 212 1521 223 1510 233"/><polygon class="cls-6" points="1156 201 1169.49 189.24 1174 185 1170 185 1170 179 1168.96 178.13 1165.47 178.13 1165.5 190.88 1156 201"/><polygon class="cls-6" points="1169 186 1181 175 1176 175 1176 178 1169 186"/><polyline class="cls-7" points="879 622 879 520 859 520 859 620.61 879 622"/><polyline class="cls-8" points="879 622 986.08 530.53 986 501 988 500 988 496.07 986 496 986 489.87 952.75 489 952.38 481 879 520 879 622"/><polygon class="cls-9" points="952 475 859 520 879 520 953 481 952 475"/><polygon class="cls-19" points="781 463 834 358 207 342 126 441 781 463"/><polygon class="cls-25" points="455 603.61 455 537 495 538 496 606.5 455 603.61"/><polygon class="cls-25" points="503 538 503 596.47 792 608 792 548.25 503 538"/><polygon class="cls-25" points="728.5 546 728.5 604.75 727.25 604.75 727 546 728.5 546"/><polygon class="cls-25" points="179 524 180 581.79 449 593.33 449 537 179 524"/><polygon class="cls-25" points="792 607 505 595 505 538.25 503 538 503 596 792 608 792 607"/><polygon class="cls-25" points="449 593 180.87 581 180.87 524.25 179 524 179 582 449 594 449 593"/><polygon class="cls-25" points="664.5 544 664.5 602.75 663.25 602.75 663 544 664.5 544"/><polygon class="cls-25" points="601.5 542 601.5 600.75 600.25 600.75 600 542 601.5 542"/><polygon class="cls-25" points="549.5 539 549.5 597.75 548.25 597.75 548 539 549.5 539"/><polygon class="cls-25" points="402.5 535 402.5 591.75 401.25 591.75 401 535 402.5 535"/><polygon class="cls-25" points="355.5 533 355.5 589.75 354.25 589.75 354 533 355.5 533"/><polygon class="cls-25" points="298.5 530 298.5 586.75 297.25 586.75 297 530 298.5 530"/><polygon class="cls-25" points="235.5 527 235.5 583.75 234.25 583.75 234 527 235.5 527"/><path class="cls-6" d="M383.5,450,429,368s-31-5-36-1,22,6,22,6l-41,76.5Z"/><polygon class="cls-17" points="766.5 469.5 766.5 525 205 504 205 450.5 766.5 469.5"/><polygon class="cls-25" points="767 525 770 524 770 469 767 470 767 525"/><polygon class="cls-25" points="770 469 210 450 205.13 450.69 767 470 770 469"/><polygon class="cls-19" points="790 546 175 523 175 527 790 553 790 546"/><polygon class="cls-8" points="790 553 793 551 793 545 790 546 790 553"/><polygon class="cls-9" points="793 545 182 522 175 523 790 546 793 545"/><polygon class="cls-6" points="880 620 879 520 859 520 952 475 953 489 984 489 985.5 530.5 880 620"/></g><g id="Layer_3" data-name="Layer 3"><polygon class="cls-6" points="272.5 673.5 379 600 379 449.67 370 449 369 599 258 673 272.5 673.5"/><path class="cls-19" d="M1798,744s-2,7,7,8q.63.07,1.21.1c7.88.44,8.79-4.1,8.79-4.1V42h-18Z"/><path class="cls-26" d="M1812,751s3-2,3-3l0-706h-3Z"/><path class="cls-6" d="M1798.35,748.2a4.76,4.76,0,0,1-.35-4.2l-1-702h1Z"/><polygon class="cls-14" points="1810 42 1810 752 1813 750 1812.86 42 1810 42"/><polygon class="cls-6" points="879 622 939 624 991 571 991 526.33 879 622"/><path class="cls-5" d="M1815,42h-18s-93,45-103,51c-11.5,6.9,27,10,27,10l94-51Z"/><path class="cls-8" d="M1721,103s1-8-3-9l97-52V52Z"/><path class="cls-19" d="M1718,94s-16-3-21-3l100-49h18Z"/><polygon class="cls-14" points="1810 54.91 1810 44.68 1812.65 43.26 1812.86 53.16 1810 54.91"/><polygon class="cls-26" points="1815 52 1815 42 1812.61 43.28 1812.86 53.73 1815 52"/><path class="cls-27" d="M1750.33,87.08s-9.53,10.05-23.93,13Z"/><path class="cls-28" d="M1726,100,1476,759.72S1492,800,1592,809h336L1750,87Z"/><path class="cls-19" d="M258.77,669.73s-1.75,6.13,6.13,7l1.06.09c6.91.39,7.7-3.59,7.7-3.59V54.6H257.9Z"/><path class="cls-26" d="M271,675.86s2.63-1.75,2.59-2.63l0-618.64H271Z"/><path class="cls-6" d="M259.08,673.41a4.17,4.17,0,0,1-.31-3.68L257.9,54.6h.88Z"/><polygon class="cls-14" points="269.29 54.6 269.29 676.74 271.92 674.99 271.79 54.6 269.29 54.6"/><path class="cls-5" d="M273.67,54.6H257.9S176.41,94,167.64,99.29c-10.08,6,23.66,8.76,23.66,8.76l82.37-44.69Z"/><path class="cls-8" d="M191.3,108s.88-7-2.63-7.89l85-45.57v8.76Z"/><path class="cls-19" d="M188.67,100.16s-14-2.63-18.4-2.63L257.9,54.6h15.77Z"/><polygon class="cls-14" points="269.29 65.91 269.29 56.95 271.61 55.7 271.8 64.38 269.29 65.91"/><polygon class="cls-26" points="273.67 63.36 273.67 54.6 271.58 55.72 271.8 64.88 273.67 63.36"/><path class="cls-27" d="M217,94.1a43.84,43.84,0,0,1-21,11.38Z"/><path class="cls-28" d="M216.71,94l-21,11.39L-.5,650.73v65.78c30,20.61,96.09,56.25,196.18,57.49C336.76,775.76,396,697.93,396,697.93Z"/><polygon class="cls-10" points="1145.53 632.5 1145.53 215 1140 215 1140 632.43 1145.53 632.5"/><polygon class="cls-11" points="1140 215 1150 208 1156 208 1146 215 1140 215"/><polygon class="cls-12" points="1156 216 1156 227.03 1153 227 1153 216 1149 219 1149 629 1145.53 632.82 1145.53 215 1156 208 1156 216"/><polyline class="cls-1" points="1149 219 1149 226.8 1153 227 1153 216 1149 219"/><polygon class="cls-10" points="993.53 626.68 993.53 210.97 988 210.97 988 626.62 993.53 626.68"/><polygon class="cls-11" points="988 210.97 998 204 1004 204 994 210.97 988 210.97"/><polygon class="cls-12" points="1004 211.97 1004 222.94 1001 222.92 1001 211.97 997 214.95 997 623.2 993.53 627 993.53 210.97 1004 204 1004 211.97"/><polyline class="cls-1" points="997 214.95 997 222.72 1001 222.92 1001 211.97 997 214.95"/><polygon class="cls-29" points="1147 583 1147 616 986 610 986 577.26 1147 583"/><polygon class="cls-30" points="988 576.11 986.08 577.26 1147 583 1148 582 988 576.11"/><polygon class="cls-31" points="1148 582 1148 615 1147 616 1147 583 1148 582"/><polygon class="cls-29" points="1147 545 1147 578 986 572 986 539.26 1147 545"/><polygon class="cls-11" points="988 538.11 986.08 539.26 1147 545 1148 544 988 538.11"/><polygon class="cls-31" points="1148 544 1148 577 1147 578 1147 545 1148 544"/><polygon class="cls-29" points="1147 507 1147 540 986 534 986 501.26 1147 507"/><polygon class="cls-11" points="988 500.11 986.08 501.26 1147 507 1148 506 988 500.11"/><polygon class="cls-31" points="1148 506 1148 539 1147 540 1147 507 1148 506"/><polygon class="cls-29" points="1147 469 1147 502 986 496 986 463.26 1147 469"/><polygon class="cls-11" points="988 462.11 986.08 463.26 1147 469 1148 468 988 462.11"/><polygon class="cls-31" points="1148 468 1148 501 1147 502 1147 469 1148 468"/><polygon class="cls-29" points="1147 431 1147 464 986 458 986 425.26 1147 431"/><polygon class="cls-11" points="988 424.11 986.08 425.26 1147 431 1148 430 988 424.11"/><polygon class="cls-31" points="1148 430 1148 463 1147 464 1147 431 1148 430"/><polygon class="cls-29" points="1147 393 1147 426 986 420 986 387.26 1147 393"/><polygon class="cls-11" points="988 386.11 986.08 387.26 1147 393 1148 392 988 386.11"/><polygon class="cls-31" points="1148 392 1148 425 1147 426 1147 393 1148 392"/><polygon class="cls-29" points="1147 355 1147 388 986 382 986 349.26 1147 355"/><polygon class="cls-11" points="988 348.11 986.08 349.26 1147 355 1148 354 988 348.11"/><polygon class="cls-31" points="1148 354 1148 387 1147 388 1147 355 1148 354"/><polygon class="cls-29" points="1147 317 1147 350 986 344 986 311.26 1147 317"/><polygon class="cls-11" points="988 310.11 986.08 311.26 1147 317 1148 316 988 310.11"/><polygon class="cls-31" points="1148 316 1148 349 1147 350 1147 317 1148 316"/><polygon class="cls-29" points="1147 279 1147 312 986 306 986 273.26 1147 279"/><polygon class="cls-11" points="988 272.11 986.08 273.26 1147 279 1148 278 988 272.11"/><polygon class="cls-31" points="1148 278 1148 311 1147 312 1147 279 1148 278"/><polygon class="cls-29" points="1147 241 1147 274 986 268 986 235.26 1147 241"/><polygon class="cls-11" points="988 234.11 986.08 235.26 1147 241 1148 240 988 234.11"/><polygon class="cls-31" points="1148 240 1148 273 1147 274 1147 241 1148 240"/></g><g id="Layer_6" data-name="Layer 6"><path class="cls-32" d="M558,740.28s-38,29-31,34.47,63.5,10,63.5,10,148.2,14.87,195.5,1.81c46-12.7,87.46-45.91,81-54.43-11-14.52-62.72-17.5-81-29.94-20-13.61-33-15.42-46-17.24-8.15-1.14-94-20.87-144,11.79s-37,42.64-37,42.64"/></g><g id="Layer_5" data-name="Layer 5"><path class="cls-1" d="M540,756l141,8s56,4,61,8,11-33,10-32-70-11-75-10-127-4-128-3S540,756,540,756Z"/><path class="cls-33" d="M582,775.33l7-1.7c4.83-1.4,9.68-5.81,12.12-10.56a13.41,13.41,0,0,0,1.49-7.37q0-.17,0-.33c-.36-11.22-14.69-23.41-25-22.09,0,0-13.52-1-19.91,11.64"/><path class="cls-34" d="M596.91,764.06c-4,10-16.42,15-26.9,9.91s-15.68-17.37-11.64-27.36,15.82-13.94,26.3-8.82S601,754.07,596.91,764.06Z"/><path class="cls-14" d="M593.2,763.73a16.62,16.62,0,0,1-22.47,8.43c-8.71-4.26-13-14.44-9.67-22.75s13.15-11.59,21.86-7.33S596.57,755.42,593.2,763.73Z"/><path class="cls-34" d="M582.22,745.24c-.4,3.35-4.52,8.47-6.7,8.15s-5.3-5.65-4.9-9,4.19-3.46,6.36-3.15S582.63,741.89,582.22,745.24Z"/><path class="cls-34" d="M590.56,758.77c-3.11,1.76-10.16-.07-11.25-2.06s2.48-8.29,5.59-10,4.59,1.68,5.68,3.67S593.67,757,590.56,758.77Z"/><path class="cls-34" d="M575.93,771.59c-2.89-2.42-.51-8.42.91-10.23s7.95-1.3,10.84,1.12,1.66,4.74.24,6.55S578.82,774,575.93,771.59Z"/><path class="cls-34" d="M569.64,747.56c1.69,2.07,2.88,6,1.73,7.49s-7.06,4.68-9.41,2.72.33-10.15,1.49-11.61S567.67,745.15,569.64,747.56Z"/><path class="cls-34" d="M572.07,770.19c-2.15,1.41-6.87-5-7.74-6.39s.82-4.24,3-5.65a4.18,4.18,0,0,1,5.59,1.21C573.76,760.72,574.23,768.77,572.07,770.19Z"/><path class="cls-34" d="M576.86,757.68a2,2,0,0,1-2.84,1,2.4,2.4,0,0,1-1.25-3,2,2,0,0,1,2.84-1A2.4,2.4,0,0,1,576.86,757.68Z"/><path class="cls-33" d="M717.3,788l7.75-2.24a20.94,20.94,0,0,0,12.32-10.5,17.35,17.35,0,0,0,1.86-8.82l0-.34c-1-11.47-17.73-22.94-29.2-20.86,0,0-15.15-.09-21.58,13.33"/><ellipse class="cls-34" cx="709.68" cy="767.81" rx="20.35" ry="23.19" transform="translate(-258.74 1161.95) rotate(-69.4)"/><path class="cls-35" d="M754.5,674.5c-10-7-63.16-21.66-129.75-13.67C602.5,663.5,587.5,676.5,575.5,681.5c-10.56,4.4-39.64,21.16-53,32s11.94,45.13,14,46,17,0,17,0,5-21.83,24-22,28,26,28,26l76.94,4s1.7-21.15,27.77-20.75,26.8,28.4,26.8,28.4,31.19,2.08,33.18,2,12,12.52,61.3-16.58,32-34,32-34,2.6-6.7-9-16-74-18-74-18Z"/><path class="cls-6" d="M719,726h6s59.67-17.33,56.83-33.17L777,692Z"/><path class="cls-17" d="M683,699l14,9a89,89,0,0,1,14,11l8.5,7.5s53-17,61-34l-26-18S728,678,683,699Z"/><path class="cls-14" d="M708.81,770.77a2.2,2.2,0,0,1-2.82,1,2,2,0,0,1-1.42-2.51,2.2,2.2,0,0,1,2.82-1A2,2,0,0,1,708.81,770.77Z"/><ellipse class="cls-14" cx="709.18" cy="769.11" rx="16.92" ry="19.28" transform="translate(-260.28 1162.33) rotate(-69.4)"/><path class="cls-34" d="M714,757c-.29,3.74-4.65,9.73-7.09,9.56s-6.2-5.82-5.91-9.56,4.51-4.16,7-4S714.29,753.26,714,757Z"/><path class="cls-23" d="M721,759s-10,6-8,10,7,3,7,3-7.67-.17-8.83-2.58,3-8.92,6.42-10.67A3.89,3.89,0,0,1,721,759Z"/><path class="cls-34" d="M724,771c-3.38,2-11.35.64-12.68-1.31S713.62,761,717,759s5.22,1.4,6.55,3.36S727.38,769,724,771Z"/><path class="cls-34" d="M709,784c-3.37-2.27-1-8.59.44-10.54s8.19-.73,11.56,1.54,2.13,4.74.64,6.69S712.37,786.27,709,784Z"/><path class="cls-34" d="M700,761c2,2,3.56,6,2.36,7.55s-7.62,5.3-10.36,3.45-.2-10.42,1-12S697.67,758.67,700,761Z"/><path class="cls-34" d="M704,784c-2.33,1.6-8-4.65-9-6s.67-4.4,3-6a4.91,4.91,0,0,1,6.31.84C705.35,774.19,706.33,782.4,704,784Z"/><ellipse class="cls-34" cx="706.3" cy="769.97" rx="2.21" ry="2.5" transform="translate(-262.95 1160.19) rotate(-69.4)"/><path class="cls-14" d="M864,726s-28,33-68,43-25-1-34-4-28-3-28-3a34.36,34.36,0,0,1,3,14l33,2s7,4,15,2,28.75-5.5,49.88-19.75,29.88-22.5,31-27.37c0,0,2.13-4.87-1.87-5.87"/><path class="cls-17" d="M854.33,727s9.16-3.9,7.67-8-7.51-9.75-9-9c0,0,6.3-3.88-3,2Z"/><path class="cls-17" d="M765,761s-.52-10,5.83-12.71,11.12.9,22.17-4.29l14.74,11.89S795.87,762.78,765,761"/><path class="cls-7" d="M774.19,747.31S777,758.75,776,761.38L765,762S763,748,774.19,747.31Z"/><path class="cls-14" d="M800,742s13,11,14,11,40-16,38-25-4-13-4-13S848,727,800,742Z"/><path class="cls-6" d="M730,728s65,11,65,14,15,13,17,12h0l-4,2-15-12s-51-14-64-16"/><path class="cls-6" d="M783,697s63,9,65,16a104.06,104.06,0,0,0,6,15v-1l-5-15s6-4-66-15"/><path class="cls-17" d="M711,729l-70-7.34V691.08S675,690,711,729Z"/><path class="cls-17" d="M636,720.44V691.08s-38-3.08-53,6.12l-1,18.35Z"/><path class="cls-17" d="M578,715.55l1-17.12s-13,9.78-13,12.23-3,3.67,12,4.89"/><path class="cls-17" d="M563.2,700.93S619,661,633,662C633,662,604,664,563.2,700.93Z"/><path class="cls-14" d="M529.88,751H553s5-14,18-16,26,1,32,19l76,4s12-18,32-15,26.25,15.5,27.13,19.75,2.75,12.75,2.75,12.75l-4-.12s-1.37-26.87-25.62-28.62S683,765,683,768l-81-4s-1.15-10.15-3-12c-3-3-7-14-21-14s-23,12-24,22h0s-16,1-18,0S529.88,751,529.88,751Z"/><polygon class="cls-6" points="642 730 642 733 652 734 652 731 642 730"/><polygon class="cls-6" points="582 725 582 728 592 729 592 726 582 725"/></g></svg>