<svg id="Layer_10" data-name="Layer 10" xmlns="http://www.w3.org/2000/svg" viewBox="0 0 250 220"><defs><style>.cls-1{fill:#249fa6;}</style></defs><title>inj_bukod</title><path class="cls-1" d="M133,79c2.26,4.14,4.35,8.36,6.43,12.61s4,8.58,5.74,13c.9,2.22,1.73,4.48,2.45,6.84.35,1.19.7,2.39,1,3.68a17,17,0,0,1,.47,4.42,12.82,12.82,0,0,1-.21,1.54l-.05.55c0,.45-.07,1-.1,1.52-.05,1.08-.08,2.22-.1,3.36l-.05,7c0,2.33-.34,4.66-.57,7s-.4,4.68-.6,7c-.39,4.7-.82,9.41-1.39,14.16-.28,2.38-.6,4.76-1,7.18a60.86,60.86,0,0,1-1.65,7.5c-.2.66-.44,1.36-.74,2.1a12.62,12.62,0,0,1-1.38,2.57c-.1.13-.17.24-.29.39l-.38.44a7.45,7.45,0,0,1-1,.92,6.46,6.46,0,0,1-.77.48,5.13,5.13,0,0,1-.93.42l-.55.16-.28.07-.21,0-.18,0c-.46.08-1,.19-1.53.31-2.15.46-4.37,1-6.56,1.62-4.38,1.19-8.73,2.56-12.94,4.13a68.57,68.57,0,0,0-11.81,5.51,17.4,17.4,0,0,0-4.14,3.35,3.14,3.14,0,0,0-.63,1.06s0,0,0,.05,0,.31,0,.58v1.75a18.49,18.49,0,0,0,.42,5.17.38.38,0,0,0,.1.21s0,.14.08.15a.17.17,0,0,1,.09.1c0,.05.13.07.17.13s.06.12.22.17l.37.18.18.11.27.09.54.18a9.19,9.19,0,0,0,1.27.32l.67.15.75.11c.51.07,1,.16,1.51.21l1.6.14c2.15.17,4.4.23,6.66.24H156l-4.5,2.83c.95-1.92,1.86-3.59,2.84-5.34s2-3.42,3-5.11c2.07-3.37,4.27-6.65,6.57-9.87a118.26,118.26,0,0,1,15.84-18c1.52-1.34,3.1-2.66,4.69-3.92l4.79-3.47c3.14-2.26,6.3-4.48,9.51-6.67s6.44-4.33,9.79-6.41c1.68-1,3.38-2.06,5.19-3,.91-.49,1.83-1,2.85-1.45.49-.24,1-.47,1.62-.7a14.59,14.59,0,0,1,2.16-.66A10.89,10.89,0,0,1,222,148s0,0,.13,0a3.24,3.24,0,0,0,.38-.07c.15,0,.3-.05.47-.11a18.52,18.52,0,0,0,2.16-.69,28.37,28.37,0,0,0,4.37-2.12,24.36,24.36,0,0,0,7.09-6.25,18.08,18.08,0,0,0,3.45-8.22,23,23,0,0,0,.14-4.62,27.73,27.73,0,0,0-.83-4.77,37.68,37.68,0,0,0-3.82-9.26,19.29,19.29,0,0,0-6.21-6.62,26.78,26.78,0,0,0-3.91-1.77,17.45,17.45,0,0,0-4.35-1.1,21.93,21.93,0,0,0-4.8,0c-.82.08-1.64.21-2.45.37-.4.08-.81.18-1.2.28l-.58.16c-.17,0-.4.13-.47.14l-1.13.33a5,5,0,0,1-.55,0l-.31,0-.5-.07a5.72,5.72,0,0,1-.76-.21,6.14,6.14,0,0,1-1.16-.54,6,6,0,0,1-.88-.61,5.5,5.5,0,0,1-.73-.63,13.82,13.82,0,0,1-2-2.56,20.75,20.75,0,0,1-1.33-2.54c-.19-.42-.38-.84-.55-1.27l-.44-1.26a61.32,61.32,0,0,1-2.43-10l-.41-2.49-.31-2.49-.29-2.49-.2-2.49c-.31-3.31-.43-6.64-.57-9.94.85,3.21,1.6,6.42,2.55,9.58l.68,2.37.75,2.34.74,2.34.83,2.29a56.66,56.66,0,0,0,3.86,8.7l.56,1c.2.32.41.61.61.91a14.42,14.42,0,0,0,1.25,1.67,6.78,6.78,0,0,0,1.25,1.13.6.6,0,0,0,.24.13c.06,0,.16.1.16.05s.08,0,0-.06l-.16-.05-.2,0h-.15a2.56,2.56,0,0,0-.4,0l-1.13.33.85-.43.76-.35c.51-.23,1-.44,1.52-.63,1-.39,2.06-.74,3.12-1a30.76,30.76,0,0,1,6.61-1.06,25.35,25.35,0,0,1,7,.59,19.43,19.43,0,0,1,6.51,3,30.47,30.47,0,0,1,5.34,4.56,35.22,35.22,0,0,1,4,5.42,47.39,47.39,0,0,1,4.92,11.9,37.69,37.69,0,0,1,1.12,6.52,32.92,32.92,0,0,1-.22,6.84,29.47,29.47,0,0,1-1.87,6.72,28,28,0,0,1-3.45,6,34.31,34.31,0,0,1-10,8.87,38.31,38.31,0,0,1-5.95,2.89,28.31,28.31,0,0,1-3.31,1c-.28.08-.61.14-.93.21s-.66.12-1,.17a11.35,11.35,0,0,1-1.29.1c-.19,0-.05,0,0,0h.13c.08,0,.2,0,.14,0s-.29.09-.58.19-.64.26-1,.44c-.72.33-1.49.74-2.27,1.15-1.56.85-3.14,1.8-4.71,2.77-3.16,2-6.3,4-9.42,6.17s-6.23,4.31-9.29,6.52l-4.51,3.27c-.73.53-1.38,1.14-2.07,1.7s-1.39,1.12-2,1.74A108.44,108.44,0,0,0,172,198.35c-2.14,3-4.21,6.08-6.15,9.24-1,1.59-1.9,3.18-2.81,4.79s-1.81,3.28-2.55,4.79L159.12,220h-45.3c-2.42,0-4.85-.08-7.37-.28l-1.9-.16c-.64-.07-1.31-.18-2-.27l-1-.15-1-.23a17.81,17.81,0,0,1-2.13-.55L97.3,218l-.56-.2-.6-.3a11.6,11.6,0,0,1-2.4-1.46,8.72,8.72,0,0,1-1.16-1c-.36-.4-.72-.81-1.05-1.23a8.81,8.81,0,0,1-.83-1.35,7.6,7.6,0,0,1-.63-1.37c-.16-.45-.3-.9-.44-1.35s-.17-.82-.25-1.23a18.68,18.68,0,0,1-.28-2.26c-.1-1.41-.1-2.67-.1-3.87v-1.76a14,14,0,0,1,.28-2.85,12.66,12.66,0,0,1,2.6-5.11A26.7,26.7,0,0,1,98.5,187a77.88,77.88,0,0,1,13.6-6.39c4.57-1.7,9.17-3.14,13.82-4.41,2.33-.63,4.65-1.22,7.08-1.75.62-.13,1.21-.26,1.91-.38l.26,0h-.1l-.17,0-.34.1c-.24.1-.39.16-.54.24a3.72,3.72,0,0,0-.39.25,2.87,2.87,0,0,0-.38.33l-.09.11,0,0a4.67,4.67,0,0,0,.25-.53c.14-.35.29-.75.42-1.21a51.88,51.88,0,0,0,1.34-6.22c.36-2.2.67-4.46.94-6.73.54-4.55,1-9.17,1.35-13.8.19-2.32.39-4.64.52-7s.17-4.68.52-7,.75-4.67,1.17-7c.21-1.19.44-2.38.7-3.62.14-.62.27-1.25.46-1.94.09-.35.2-.73.34-1.16,0-.11.06,0,.1-.19a9.24,9.24,0,0,0,.13-2.58c0-1-.17-2.13-.31-3.22-.31-2.21-.73-4.46-1.17-6.73-.91-4.53-2-9.07-3.21-13.6S134.27,83.54,133,79Z"/><path class="cls-1" d="M191,106a12.53,12.53,0,0,1,2.19,9,16.14,16.14,0,0,1-4,8.85,17.76,17.76,0,0,1-3.78,3.06,17.58,17.58,0,0,1-4.3,1.92c-.18.06-.36.13-.55.18l-.57.11c-.38.07-.75.14-1.14.19-.76.12-1.51.2-2.26.26A20.63,20.63,0,0,1,172,129a26.78,26.78,0,0,1,3.48-2.72c.54-.44,1.08-.87,1.61-1.26s1.1-.71,1.57-1.16c1-.85,2-1.5,2.83-2.35.21-.2.44-.39.67-.58l.34-.28.29-.32c.39-.42.79-.82,1.21-1.21a28.92,28.92,0,0,0,3.92-5.61A46.17,46.17,0,0,0,191,106Z"/></svg>