<svg id="balikat" xmlns="http://www.w3.org/2000/svg" viewBox="0 0 250 220"><defs><style>.cls-1{fill:#249fa6;}.cls-2{fill:none;stroke:#249fa6;stroke-miterlimit:10;stroke-width:10px;}</style></defs><title>inj_balikat</title><path class="cls-1" d="M256,56c-2.6,1.87-5.26,3.62-7.92,5.38s-5.38,3.43-8.09,5.11-5.46,3.3-8.23,4.9l-4.17,2.37a35.43,35.43,0,0,1-4.25,2.19c-1.49.56-3,1-4.49,1.63l-4.46,1.71c-3,1.13-6,2.22-9,3.28-6,2.09-12.16,4.06-18.47,5.66-3.15.81-6.38,1.49-9.69,2l-2.51.36-2.58.25c-.87.07-1.78.08-2.67.12-.48,0-.82,0-1.21,0h-1.14a148,148,0,0,0-18.2,1.4c-12,1.7-23.89,4.84-34.39,10.28a61.42,61.42,0,0,0-14.23,10,47.06,47.06,0,0,0-10,13.72,49.36,49.36,0,0,0-3,8l-.54,2.12-.53,2.27-1,4.55c-1.33,6.08-2.54,12.21-3.67,18.36s-2.19,12.32-3.21,18.51c-.5,3.1-1,6.19-1.47,9.3a33.91,33.91,0,0,1-.73,4.66l-1.22,4.58c-1.67,6.11-3.23,12.25-5.06,18.36-.91,3.05-1.8,6.11-2.83,9.14-.52,1.51-1.06,3-1.66,4.51-.3.74-.62,1.49-1,2.21A6.6,6.6,0,0,1,63,235a6.32,6.32,0,0,0,.74-2.21q.22-1.15.36-2.32c.19-1.56.32-3.12.43-4.69q.33-4.71.55-9.44L66,197.4l.23-4.75a33.3,33.3,0,0,1,.74-4.67c.56-3.11,1-6.23,1.54-9.35,1-6.24,2.09-12.47,3.25-18.71s2.38-12.46,3.74-18.68l1-4.66.54-2.33c.18-.77.42-1.64.62-2.46a59.36,59.36,0,0,1,3.6-9.67A57.1,57.1,0,0,1,93.38,105.5a71.39,71.39,0,0,1,16.53-11.67c11.91-6.15,24.76-9.49,37.63-11.32A158,158,0,0,1,167,81h1.22c.4,0,.84,0,1.15,0,.68,0,1.35,0,2-.09l2.12-.2,2.16-.31c2.9-.48,5.84-1.1,8.79-1.85,5.89-1.5,11.78-3.39,17.63-5.41,2.92-1,5.84-2.08,8.75-3.19s5.82-2.21,8.65-3.52A38,38,0,0,1,224,65l4.55-1.27,9.12-2.56Z"/><path class="cls-1" d="M197,107.5c5.39-1,10.81-1.62,16.25-2.22q4.08-.4,8.18-.72t8.22-.4c2.74-.08,5.51-.34,8.3-.45a30.48,30.48,0,0,1,8.33.8,36.28,36.28,0,0,1,8.16,2.94c.66.34,1.33.73,2,1.12s1.28.87,1.89,1.35a13.22,13.22,0,0,1,1.73,1.67,9.66,9.66,0,0,1,.75,1,11.64,11.64,0,0,1,.58,1.08l-.66.75a23.73,23.73,0,0,0-4-.18l-3.9.13c-2.59.09-5.19.15-7.8.11a42.78,42.78,0,0,1-7.8-.85c-2.61-.52-5.23-1.11-7.89-1.43s-5.32-.66-8-.94-5.36-.64-8-.93L197,108.5Z"/><path class="cls-2" d="M146,171s-14,27-4,53"/><path class="cls-1" d="M130,161a19.82,19.82,0,0,1,7.43,1.09,27.45,27.45,0,0,1,3.48,1.42c.57.26,1.12.56,1.68.85s1.08.63,1.6,1a38.23,38.23,0,0,1,10.69,10.44,41.17,41.17,0,0,1,3.56,6.55,34.15,34.15,0,0,1,1.35,3.45c.36,1.18.68,2.37,1,3.56a22.07,22.07,0,0,1,.63,3.62c.14,1.22.24,2.44.32,3.66a31.58,31.58,0,0,1-.17,3.7A29.36,29.36,0,0,1,161,204a54.14,54.14,0,0,1-4-6c-.64-1-1.25-1.93-1.82-2.9-.3-.48-.56-1-.83-1.45s-.62-.93-.89-1.4c-.59-.93-1.16-1.86-1.69-2.8s-1.17-1.81-1.73-2.71c-1.07-1.85-2.34-3.53-3.43-5.33-2.4-3.44-4.84-6.81-7.56-10.14S133.47,164.6,130,161Z"/></svg>