<svg id="siko" xmlns="http://www.w3.org/2000/svg" viewBox="0 0 250 220"><defs><style>.cls-1{fill:none;stroke:#249fa6;stroke-miterlimit:10;stroke-width:10px;}.cls-2{fill:#249fa6;}</style></defs><title>inj_siko</title><path class="cls-1" d="M208,226c-18.6-23.25-39-51-58-74"/><path class="cls-1" d="M259,57c-19-2-38-2-57,4-14,5-24,13-37,21-23,16-41,31-64,46-6,4-12,6-19,9-4,1-6,8-3,12,6,7,13,12,19,20,1,1,3,2,4,3,9,11,19,21,29,31,3,4,6,7,9,11,3,3,10.3,9.18,13,12"/><path class="cls-2" d="M254,104c-2.25,1.84-4.5,3.62-6.76,5.31s-4.5,3.38-6.73,5c-2.5,1-5,1.92-7.42,3s-4.84,2.16-7.17,3.33c-1.19.56-2.28,1.2-3.42,1.79-.57.3-1.07.63-1.61.95s-1.1.63-1.55,1l-1.43,1-1.13,1c-.11.09-.16.13-.31.26L216,127c-.3.29-.61.57-.9.82-.59.52-1.17,1-1.74,1.46a130.38,130.38,0,0,1-14.12,9.54,164.17,164.17,0,0,1-30.53,14.27A95.49,95.49,0,0,1,152,157.22a51.66,51.66,0,0,1-8.87-1.68,43.71,43.71,0,0,1-4.21-1.51,31.29,31.29,0,0,1-3.89-2c1.45-.26,2.82-.41,4.18-.78s2.67-.68,4-1a78.13,78.13,0,0,0,7.43-2.85,85.64,85.64,0,0,0,15-3.69,154.37,154.37,0,0,0,28.62-13.39,121.22,121.22,0,0,0,13-8.74c.49-.39,1-.78,1.39-1.16.24-.2.43-.38.62-.56l.29-.27.46-.41c.65-.57,1.33-1.17,2-1.69l1.93-1.34c.65-.47,1.28-.81,1.92-1.2s1.28-.78,1.91-1.12c1.27-.66,2.54-1.4,3.82-2,5.08-2.55,10.23-4.65,15.35-6.8q4.26-.55,8.55-.8C248.2,104,251.09,103.91,254,104Z"/><path class="cls-1" d="M241.88,221.45C240,205,234,190,228,175c-7-22,0-45,9.75-65"/></svg>