<svg id="finger" xmlns="http://www.w3.org/2000/svg" viewBox="0 0 250 220"><defs><style>.cls-1{fill:none;stroke:#249fa6;stroke-miterlimit:10;stroke-width:10px;}</style></defs><title>inj_daliri</title><path class="cls-1" d="M259,212s-52-34-52-64,16-63,16-63-23-10-34,38L141,67s-7-6-13,0,38,64,38,64-40-56-51-48,34,64,34,64-21.29-18.14-26-15c-12,8,22,45,30,39s-5-25-5-25"/><path class="cls-1" d="M122,150s-25-4-16,14,23,25,29,19S136,161,122,150Z"/><path class="cls-1" d="M205,235l-30-28s-40-6-46-21"/></svg>