<svg xmlns="http://www.w3.org/2000/svg" viewBox="0 0 230.11 209.87"><defs><style>.cls-1{fill:#8b8bc4;}.cls-2{fill:#d16566;}.cls-3{fill:#ffcbcd;}.cls-4{fill:none;stroke:#e6f4f1;stroke-miterlimit:10;}.cls-5{fill:#b8596a;}.cls-6{fill:#fff;}</style></defs><title>katawan_1</title><g id="Layer_1" data-name="Layer 1"><path class="cls-1" d="M215.85,79.19c42.67,59.65,9.76,164.83-66.45,151S91.6,184.74,45.58,189.36-2.74,150.24,14.52,99.63,90.45,14.51,132.44,24.86,202,59.89,215.85,79.19Z" transform="translate(-4.61 -23.03)"/></g><g id="Layer_2" data-name="Layer 2"><path class="cls-2" d="M89.24,142.54c3.15-4.72-1.38-11.76-.07-18.52,5.55,6.12,13.38,5.52,19,10.67.24-4.86-.55-8.8-1.28-13.71,2.82,2.09,5.69,3.2,8.51,5.29l.14-2.92c1.94.09,2.87,1.11,3.75,3.11,3.15-4.72.47-9.72,1.68-14.54,7.59,4.27,13.14,10.39,21.75,13.73-.59-7.83-3.13-15.75-5.67-23.67l.78,0C127.6,90,115.15,79.58,100,72.53L37.52,40.61c23.67,23.73,20.57,69.72,42.24,105.07a31.17,31.17,0,0,0,.83-5.52C84.48,140.36,88.13,145.41,89.24,142.54Z" transform="translate(-4.61 -23.03)"/><path class="cls-2" d="M147.43,118.64l-.78,0c2.54,7.92,5.08,15.84,5.67,23.67-8.61-3.34-14.16-9.46-21.75-13.73-1.21,4.81,1.47,9.82-1.68,14.54-.88-2-1.8-3-3.75-3.11l-.14,2.92c-2.82-2.09-5.69-3.2-8.51-5.29.74,4.91,1.52,8.85,1.28,13.71-5.6-5.15-13.42-4.55-19-10.67-1.3,6.76,3.23,13.8.07,18.52-1.11,2.87-4.77-2.18-8.66-2.37a31.17,31.17,0,0,1-.83,5.52c10.33,16.85,26.28,31.29,53.46,39.74,0,0,46.65,10.77,49.41,30.86C192.25,232.89,186,164.1,147.43,118.64Z" transform="translate(-4.61 -23.03)"/><path class="cls-3" d="M37.52,40.61s14.54,22.5,16.31,29.3c0,0,1.42-12.47,13.86-13.88" transform="translate(-4.61 -23.03)"/><path class="cls-3" d="M176,214.62s10.21,2.22,12.64-4.08c0,0,3.86,17.65,3.63,22.35C192.25,232.89,190.88,223,176,214.62Z" transform="translate(-4.61 -23.03)"/><path class="cls-3" d="M149.61,128.24c13.11,19.06,32.94,58.11,37.83,85.76" transform="translate(-4.61 -23.03)"/><path class="cls-3" d="M59.75,54.36s46.17,18.55,81.59,62.82" transform="translate(-4.61 -23.03)"/><path class="cls-3" d="M90.21,156.78c.44.36,19.08,17.58,19.52,17.94,24.36,20.07,64.86,30.75,71.21,42.33" transform="translate(-4.61 -23.03)"/><path class="cls-3" d="M55,57.11s7.91,47.16,25.63,83.06" transform="translate(-4.61 -23.03)"/><path class="cls-4" d="M58.13,54.28" transform="translate(-4.61 -23.03)"/><path class="cls-3" d="M120.66,116.6C90.74,83.77,60.16,56,60.16,56" transform="translate(-4.61 -23.03)"/><path class="cls-3" d="M185.36,216.54c-2.68-18.05-32.48-60.83-55-86.83" transform="translate(-4.61 -23.03)"/><path class="cls-4" d="M54.17,55.68" transform="translate(-4.61 -23.03)"/><path class="cls-4" d="M56.52,59.16" transform="translate(-4.61 -23.03)"/><path class="cls-3" d="M116.07,150.11c3.61,3.59,7.24,11.35,15,18.45l52.6,48" transform="translate(-4.61 -23.03)"/><path class="cls-3" d="M51.72,53.18l6,3.44s25,47.1,50.48,77.26" transform="translate(-4.61 -23.03)"/><path class="cls-5" d="M79.71,146.65l-.4-8.06,8.38,3.54s2-4.51.31-6.32,1.44-13.74,1.44-13.74l17.8,11.71-.68-13.31,6.45,4.23,3.05-2.63,3,2.42.66-13.61L141,123.78l.76-4.71.91,6.57-6.31-2.56-15.49-10.2s2.31,10.91-1.68,14.54c0,0-1.32-3-3.75-3.11l-.14,2.92-7.74-4.74s1.49,11.42.51,13.16c0,0-5.91-5.21-12.55-6.2,0,0-4.91-2.12-6.42-4.47,0,0,3.41,14.53-.75,19.37l-7.32-3.16Z" transform="translate(-4.61 -23.03)"/><path class="cls-5" d="M89.38,162.3l2-4.49s5.83,3.8,7.32,3.38,3.63-9.41,3-10.09-2-8.87-2-8.87,4.6,2.91,18.11,9.07c0,0,2.16-5,1.25-8.13a30.06,30.06,0,0,0-1.2-3.71l7.18,3.42,1.12-2,2.77,2.15s3.16-3.16,3-5.32-.56-6-.11-6.83,9.74,10,20.56,11.34l-21.75-13.73a29.41,29.41,0,0,0-.32,6.33c.33,2-1.34,7.06-1.34,7.06s-2-2.38-3.77-2l-.12,2.59s-8.3-4.47-8.53-5l1.25,12.79s-19.64-9.12-18.94-9.75c0,0-.47,8.13.33,10.37s-.45,8-1.45,8.46c0,0-6.89-3.18-7.7-2.91Z" transform="translate(-4.61 -23.03)"/><polygon class="cls-6" points="160.1 32.58 149.54 30.16 155.49 42.27 145.45 51.96 158.1 67.42 145.34 81.39 168 68.65 155.32 52.89 162.39 43.38 160.1 32.58"/><path class="cls-5" d="M206.44,72.89" transform="translate(-4.61 -23.03)"/><polygon class="cls-6" points="190.65 53.83 186.52 64.15 176.87 67.17 176.12 84.77 151.88 86.2 182.94 90.77 183.16 72.57 193.16 70.12 196.92 58.17 190.65 53.83"/><polygon class="cls-6" points="204.22 110.26 207.31 102.43 194.93 106.29 186 98.24 169.88 106.98 156.9 96.66 168.02 114.39 184.44 105.63 193.39 111.44 204.22 110.26"/></g></svg>