<svg xmlns="http://www.w3.org/2000/svg" viewBox="0 0 1229.36 649.78"><defs><style>.cls-1,.cls-12,.cls-17,.cls-18{fill:none;}.cls-2{fill:#cee8df;}.cls-3{fill:#90c9ab;}.cls-4{fill:blue;opacity:0.1;}.cls-5{fill:#333;}.cls-6{fill:#b67770;}.cls-7{fill:#6d6bb0;}.cls-8{fill:#dfa896;}.cls-9{fill:#e8b186;}.cls-10{fill:#be8364;}.cls-11{fill:#8b8bc4;}.cls-12{stroke:#000;}.cls-12,.cls-17,.cls-18{stroke-miterlimit:10;}.cls-13{fill:#e6f4f1;}.cls-14{fill:#324b4d;}.cls-15{fill:#324bcc;opacity:0.2;}.cls-16{fill:#249fa6;}.cls-17,.cls-18{stroke:#fff;stroke-width:3px;}.cls-18{stroke-dasharray:11.36 11.36;}.cls-19{fill:#fff;}.cls-20{fill:#dd5663;}.cls-21{fill:#f0b5b8;}.cls-22,.cls-23{fill:#c50224;}.cls-22{opacity:0.46;}</style></defs><title>katawan_2</title><g id="Layer_3" data-name="Layer 3"><path class="cls-1" d="M336.57,277.72" transform="translate(-166.46 -26.22)"/><path class="cls-1" d="M332.77,281.12" transform="translate(-166.46 -26.22)"/><path class="cls-2" d="M755,636c97,0,614-5,598-161s-146-56-81-214S995,104,935,144,734,277,668,232,417,67,295,189,176,416,262,462s-3,141,11,155S755,636,755,636Z" transform="translate(-166.46 -26.22)"/></g><g id="Layer_5" data-name="Layer 5"><path class="cls-3" d="M167,608.64S127,676,737,676s658-58.73,658-58.73S1443,562,804,562,165,600,167,608.64Z" transform="translate(-166.46 -26.22)"/><ellipse class="cls-4" cx="541.54" cy="608.78" rx="163" ry="32"/></g><g id="pv"><path class="cls-5" d="M642.15,611.24s-11.4,13-17.09,13-30.77,8.68-19.37,21.69,77.49-19.52,77.49-23.86-11.4-19.52-11.4-19.52Z" transform="translate(-166.46 -26.22)"/><path class="cls-5" d="M769.41,603.69s-3.46,17.65-9,19-37.73,2.37-26.41,15.44c24,27.71,79.1-29.49,78-33.69s-16.16-16.19-16.16-16.19Z" transform="translate(-166.46 -26.22)"/><polygon class="cls-6" points="615.86 49 640.93 69.51 572.55 284.89 540.64 289.45 615.86 49"/><path class="cls-7" d="M639.87,355.31s-65,71.58-65,103,67.23,152.91,67.23,152.91,23.93,1.08,29.63-8.68c0,0-51.28-129.05-47.86-136.65s71.79-57.48,69.51-77-1.52-47.72-10.45-49.34S639.87,355.31,639.87,355.31Z" transform="translate(-166.46 -26.22)"/><polygon class="cls-8" points="361.73 0 615.86 49 540.64 289.45 307.03 234.75 361.73 0"/><path class="cls-9" d="M395.43,213.11s-2.28,34.19,11.4,43.3c0,0,4.56,12.54,3.42,13.67a5.5,5.5,0,0,0,4.56,0s17.09,21.65,27.35,18.23,18.23-8,22.79-17.09l9.12-19.37-8-19.94s0-14.24-11.4-13.11-8,12.54-8,12.54l-3.42-34.19-41,5.7Z" transform="translate(-166.46 -26.22)"/><path class="cls-10" d="M721.4,302.91s13.06,1.37,15.34-.91,14.81-19.37,11.4-9.12c0,0,5.7-9.12,5.7-4.56s-2.28,21.65-4.56,23.93-25.07,3.42-25.07,3.42l-17-10.77Z" transform="translate(-166.46 -26.22)"/><path class="cls-9" d="M455.9,281.77s6.2-2,9.62,1.43,10.26,9.12,10.26,9.12,22.79-26.21,22.79-28.49-17.66-4.56-26.78-13.67l-.57,2.28Z" transform="translate(-166.46 -26.22)"/><path class="cls-11" d="M710.53,305.42S761.81,316.26,747,377s-19.37,56.39-10.26,79.17,63.82,136.65,63.82,136.65-16,15.18-31.91,11.93c0,0-83-135.76-89.46-161-5.13-20.06-8.52-82.19-14.81-95.43S710.53,305.42,710.53,305.42Z" transform="translate(-166.46 -26.22)"/><path class="cls-5" d="M446.15,230.78s-2.28-19.37-20.51-18.23-47.29,31.91-47.29,31.91,12-29.63,14.24-31.91-23.93,4.56-25.07,6.84,5.7-22.79,27.35-31.91c0,0-10.26-11.4-16-10.26S402.84,162.4,437,167s44.44,28.49,43.3,37.61l4.56-8s11.4,30.77-10.83,55.27l-11.4-11.4s6.27-19.94-8.55-19.94C454.12,220.52,446.15,220.52,446.15,230.78Z" transform="translate(-166.46 -26.22)"/><path class="cls-12" d="M528.19,247.3" transform="translate(-166.46 -26.22)"/><path class="cls-13" d="M532.75,247.3S506.54,253,494,257.56s-23.93,9.12-25.07,19.37,2.85,31.34,14.24,41.59,122.5,53,161.25,43.87c0,0,68.37-26.29,65.53-56.45L678.62,294l-90-21.65-28.49-8Z" transform="translate(-166.46 -26.22)"/><path class="cls-12" d="M519.08,305.42" transform="translate(-166.46 -26.22)"/><path class="cls-14" d="M547,288.9s8.94-31.31-13.76-41.29C533.23,247.6,515.09,275.22,547,288.9Z" transform="translate(-166.46 -26.22)"/><path class="cls-9" d="M513.38,299.72s37.61-20.51,61.54-18.23S694.57,310,703.69,305.42l-2.28-16s-121.93-76.35-201.7-21.65" transform="translate(-166.46 -26.22)"/><path class="cls-13" d="M511.67,303.71s21.08-12,34.76-15.38c0,0-22.79-16-13.67-41l-42.16,11.4" transform="translate(-166.46 -26.22)"/><path class="cls-15" d="M547,288.9a82.16,82.16,0,0,0-30.89,12.39s66.21-13.53,82.17-3.28c0,0-3.39-12.33-18.22-15.85s-32.28,3.21-32.28,3.21Z" transform="translate(-166.46 -26.22)"/><path class="cls-9" d="M701.41,289.47s22.79-16,22.79-12.54c0,0,10.26-6.84,10.26-4.56,0,0,2.28-2.28,2.28,4.56s2.28,1.14,2.28,5.7S733.32,302,729.9,302s-26.21,3.42-26.21,3.42" transform="translate(-166.46 -26.22)"/></g><g id="Layer_4" data-name="Layer 4"><circle class="cls-16" cx="832.54" cy="284.78" r="186"/><line class="cls-17" x1="538.77" y1="337.93" x2="544.67" y2="336.82"/><line class="cls-18" x1="555.84" y1="334.74" x2="617.26" y2="323.25"/><line class="cls-17" x1="622.84" y1="322.21" x2="628.74" y2="321.1"/><path class="cls-19" d="M691.3,373.86a3.62,3.62,0,0,0,6.22,1.79l7-10.26a1.29,1.29,0,0,0,.76.29l-.86,11.43-.07.93a3.64,3.64,0,0,0,7.05,1,3.69,3.69,0,0,0,.07-2.21v0l-.5-1,0-.06,0-.05,0-.05-4.78-10.07a1.36,1.36,0,0,0,.63-.55L717,372l.46.19a3.64,3.64,0,0,0,2.41-6.86,3.09,3.09,0,0,0-.48-.12h0l-1-.08-.09,0-.06,0L707,364.23a1.46,1.46,0,0,0-.15-.83l10.31-4.92.84-.4a3.08,3.08,0,0,0,.4-.29,3.66,3.66,0,0,0,.38-5.14,3.6,3.6,0,0,0-5.11-.39l-.36.34L713,353l-6.71,9.8a1.27,1.27,0,0,0-.76-.29l.87-11.36.09-1v-.06a1.88,1.88,0,0,0,0-.42,3.64,3.64,0,0,0-7.16,1.34,2.46,2.46,0,0,0,.12.47v.06l0,.05.29.59.09.17,4.89,10.29a1.29,1.29,0,0,0-.6.54l-9.55-6.55-.53-.36a3.62,3.62,0,0,0-4.52,5.51,3.66,3.66,0,0,0,2,1.21h0l.93.07,11.36.87a1.46,1.46,0,0,0,.15.83l-10.33,5-.12,0-.7.35A3.66,3.66,0,0,0,691.3,373.86Z" transform="translate(-166.46 -26.22)"/><path class="cls-19" d="M813,344c-7.79,4.67-17.19,11.92-22.58,18.74l2.45-15-7.69-13.07C792.66,339.1,804,342.46,813,344Z" transform="translate(-166.46 -26.22)"/><circle class="cls-13" cx="832.54" cy="284.78" r="167"/><path class="cls-20" d="M837,287s154-163,298-51c0,0,42,25,5,139s-280,43-294-16S837,287,837,287Z" transform="translate(-166.46 -26.22)"/><path class="cls-21" d="M836.14,297A593.49,593.49,0,0,1,910,254.75c6.42-3.05,12.88-6,19.45-8.77,3.27-1.41,6.59-2.7,9.88-4s6.64-2.59,10-3.74l5-1.78,5.09-1.64L962,234l2.57-.75,5.15-1.49c3.47-.85,6.91-1.84,10.42-2.54,1.75-.36,3.49-.79,5.26-1.1l5.3-.92a128.23,128.23,0,0,1,21.53-1.55,102.32,102.32,0,0,1,10.77,1l5.31.72c1.77.24,3.54.46,5.29.82l10.52,2,10.41,2.42c6.91,1.75,13.78,3.6,20.56,5.79,13.59,4.23,26.92,9.22,40,14.77l4.89,2.11,4.85,2.19c3.24,1.45,6.44,3,9.65,4.5s6.39,3.1,9.54,4.72,6.28,3.3,9.37,5q-19.18-9.18-39-16.75t-40.16-13.6a336.5,336.5,0,0,0-41.21-9.44c-1.73-.34-3.48-.53-5.22-.76l-5.23-.68a98.62,98.62,0,0,0-10.4-.88,125.15,125.15,0,0,0-20.82,1.59l-5.18.88c-1.73.3-3.43.71-5.15,1.06-3.44.67-6.83,1.63-10.24,2.45-6.77,1.89-13.52,3.91-20.17,6.26-13.35,4.53-26.37,10-39.28,15.8s-25.57,12.1-38.09,18.71S848.33,289.77,836.14,297Z" transform="translate(-166.46 -26.22)"/><path class="cls-21" d="M837.71,316.18a473,473,0,0,1,76-28.81q19.56-5.68,39.56-9.74t40.28-6.35q20.29-2.16,40.74-2.34l10.21.13c3.4.06,6.8.32,10.2.47l5.1.27,5.08.48,5.08.5c1.69.17,3.39.31,5.07.58a279.18,279.18,0,0,1,40,8.06l9.72,3.06,2.43.77,2.38.9,4.76,1.8c6.42,2.21,12.49,5.3,18.67,8.06a277,277,0,0,0-38.47-12.7l-1.22-.33-1.24-.27-2.47-.53-4.94-1.07-4.94-1.06-5-.82-5-.82c-1.66-.27-3.32-.6-5-.76l-10-1.2a362.07,362.07,0,0,0-40.35-1.73c-13.47.23-26.93,1-40.33,2.53a544.86,544.86,0,0,0-79.45,15.12Q895,295.57,875.73,302C862.89,306.23,850.2,310.93,837.71,316.18Z" transform="translate(-166.46 -26.22)"/><path class="cls-21" d="M840,330.6,878.94,324q19.51-3.15,39.09-5.85c13.05-1.82,26.14-3.39,39.23-4.86s26.23-2.66,39.37-3.7c26.29-2,52.69-3.19,79.1-2.39a333.56,333.56,0,0,1,39.48,3.29,178.12,178.12,0,0,1,19.41,4,80.49,80.49,0,0,1,18.38,7.27c-12-5.62-25.05-7.89-38-9.37a379.18,379.18,0,0,0-39.28-2.11q-19.69-.11-39.38.82t-39.34,2.44c-13.11,1-26.2,2.17-39.29,3.48s-26.16,2.74-39.24,4.19-26.14,3.06-39.2,4.7l-19.6,2.42C853.09,329.12,846.57,330.07,840,330.6Z" transform="translate(-166.46 -26.22)"/><path class="cls-21" d="M842.6,343.87l76.23,3.9,38.1,1.92c12.7.63,25.4,1.25,38.1,1.76s25.4,1.06,38.11,1.47,25.41.72,38.11.94,25.41.22,38.1-.2c6.35-.18,12.69-.47,19-1.08,3.16-.28,6.3-.7,9.43-1.21A43.94,43.94,0,0,0,1147,349a44.23,44.23,0,0,1-9.08,3q-4.68,1-9.42,1.67c-6.32.91-12.67,1.5-19,2-12.72.88-25.47,1.24-38.21,1.36s-25.48,0-38.21-.27-25.46-.74-38.18-1.26-25.43-1.22-38.14-2-25.41-1.6-38.09-2.58-25.37-2-38.05-3.15l-19-1.84-9.5-1Z" transform="translate(-166.46 -26.22)"/><path class="cls-21" d="M846,359c3,.75,6,1.45,9,2.14l9,2.07q9.06,2,18.14,3.84,18.15,3.76,36.41,6.94c12.17,2.08,24.36,4.07,36.59,5.73s24.48,3.2,36.76,4.34c6.14.64,12.28,1.1,18.43,1.59s12.31.8,18.47,1,12.32.39,18.48.53c6.16,0,12.33,0,18.48-.2a351.44,351.44,0,0,0,36.85-2.79c1.53-.2,3.07-.33,4.59-.58l4.57-.73c3-.49,6.1-.93,9.11-1.63l4.53-.95c1.51-.32,3-.6,4.52-1l9-2.29c-23.42,8.11-48.26,11.91-73,13.12-6.2.4-12.41.47-18.62.59-6.21,0-12.42,0-18.62-.25s-12.4-.56-18.59-.89-12.38-.89-18.55-1.51c-24.7-2.39-49.23-6.17-73.54-11A716.4,716.4,0,0,1,846,359Z" transform="translate(-166.46 -26.22)"/><path class="cls-21" d="M855.19,375.25c2.61,1.08,5.24,2.09,7.87,3.1l7.9,3c5.29,1.95,10.59,3.85,15.92,5.65q16,5.53,32.13,10.33c10.79,3.16,21.62,6.17,32.55,8.79s21.89,5,32.95,7c5.51,1.05,11.06,1.86,16.61,2.73,5.56.7,11.12,1.47,16.7,2,2.79.29,5.58.6,8.37.76s5.59.41,8.39.56l8.4.29c1.4.08,2.8.09,4.2.08h4.2c22.39-.05,44.9-2.89,66.24-10.29l-7.87,3.12c-.66.25-1.31.53-2,.75l-2,.63-4.05,1.25c-1.35.4-2.7.87-4.06,1.23l-4.12,1c-2.75.64-5.49,1.41-8.29,1.85a206.66,206.66,0,0,1-33.78,3.58l-4.25.11c-1.42,0-2.84.08-4.25,0l-8.5-.15c-2.83-.1-5.66-.29-8.49-.43s-5.65-.38-8.48-.62c-5.65-.42-11.27-1.2-16.89-1.87-5.6-.85-11.21-1.62-16.77-2.66a497.24,497.24,0,0,1-65.71-16.73A499.75,499.75,0,0,1,855.19,375.25Z" transform="translate(-166.46 -26.22)"/><ellipse class="cls-22" cx="1036.64" cy="257.97" rx="59.03" ry="66.36" transform="translate(172.52 1040.72) rotate(-63.2)"/><polygon class="cls-23" points="863.21 170.54 877.54 194.78 863.54 213.78 888.54 237.78 863.54 256.78 877.54 282.78 864.88 291.41 872.54 282.78 859.54 254.78 882.54 237.78 859.54 212.78 874.54 194.78 863.21 170.54"/></g></svg>