<svg xmlns="http://www.w3.org/2000/svg" viewBox="0 0 681.27 271.14"><defs><style>.cls-1{fill:#8b8bc4;}.cls-2{fill:#c8d9d8;}.cls-3{fill:#be8364;}.cls-4{fill:#333;}.cls-5{fill:#63d0d7;}.cls-6{fill:#fff;}.cls-7{fill:#d8a691;}.cls-8{fill:#d6eae3;}.cls-9{fill:#006870;opacity:0.61;}.cls-10{fill:#684738;}.cls-11{fill:#c8dee3;}</style></defs><title>katawan_3</title><g id="pv"><path class="cls-1" d="M688.34,217.43c0-33.92-152.51-83.19-340.63-83.19S7.07,183.52,7.07,217.43c0,17.78,36.54,49.75,104.07,57.18,60.5,6.66,146.42,5.45,236.57,4.24,94.06-1.26,178.49.61,240.87-5.45S688.34,234.39,688.34,217.43Z" transform="translate(-7.07 -9)"/><path class="cls-2" d="M526.53,170.61s-19.23-12.24-42-1.75l3.5,5.24,35,3.5Z" transform="translate(-7.07 -9)"/><path class="cls-3" d="M178.63,181.1s7-14,1.75-19.23c0,0-36.71-19.23-33.22-55.94S190.87-9.46,252.06,46.49c0,0,9.53,14.29,5.88,50.44a31.52,31.52,0,0,0,2.1,15.33,13.26,13.26,0,0,0,2.51,4.16s-7,1.75-8.74,10.49,1.75,35-38.46,35c0,0-10.49-1.75-5.24,15.73l5.24,1.75,7,15.73-52.45,1.75,1.75-10.49Z" transform="translate(-7.07 -9)"/><path class="cls-4" d="M179.34,161.28l-4.2-20.39s-12.24-5.24-12.24-14,8.74-36.71,19.23-14c0,0,3.5-42,17.48-42s50.7-14,59.44-1.75c0,0,14,7,12.24-3.5s-7-21-3.5-21-5.24-5.24-10.49-7S255.55,20.26,248.56,22,150.66,11.52,143.67,71,152.07,150.21,179.34,161.28Z" transform="translate(-7.07 -9)"/><path class="cls-5" d="M215.34,179.35s36.71,7,43.71,17.48,22.73,83.31,22.73,83.31-161.07-1.38-161-4.32c.4-9.88,8.86-68.5,26.34-79s24.47-12.24,24.47-12.24S208.35,205.57,215.34,179.35Z" transform="translate(-7.07 -9)"/><path class="cls-6" d="M166.39,226.55" transform="translate(-7.07 -9)"/><path class="cls-6" d="M161.15,233.54" transform="translate(-7.07 -9)"/><path class="cls-7" d="M522.79,172.94s-7.75-14.62-1.94-20.1c0,0,40.67-20.1,36.8-58.48S509.23-26.27,441.45,32.21c0,0-10.55,14.94-6.52,52.73a31.25,31.25,0,0,1-2.32,16,13.74,13.74,0,0,1-2.78,4.35,14,14,0,0,1,9.68,11c1.94,9.14-1.94,36.55,42.61,36.55,0,0,11.62-1.83,5.81,16.45l-5.81,1.83-7.75,16.45,58.1,1.83-1.94-11Z" transform="translate(-7.07 -9)"/><path class="cls-8" d="M482.12,171.11s-40.67,7.31-48.42,18.28-27.91,90.67-27.91,90.67,180.9-3.71,180.91-6.66c0-10.65-9.68-73-29-84s-27.11-12.79-27.11-12.79S488.94,203,482.12,171.11Z" transform="translate(-7.07 -9)"/><path class="cls-6" d="M536.35,220.45" transform="translate(-7.07 -9)"/><path class="cls-6" d="M542.16,227.76" transform="translate(-7.07 -9)"/><polygon class="cls-9" points="483.05 184.54 485.36 190.45 469.63 241.15 481.87 263.88 492.35 242.9 488.86 190.45 492.6 186.76 491.1 180 486.34 179.27 483.05 184.54"/><path class="cls-10" d="M516,98.93s5.24-10.49,14-1.75-3.5,35-8.74,29.72l4.47,23.1s30.5-7.36,34-45.82S551,51.73,551,51.73v7S528.27-21.69,442.61,22c0,0-21,12.24-26.22,7,0,0,5.24,14,10.49,17.48,0,0-7,14-10.49,17.48,0,0,14,10.49,54.19,5.24S516,98.93,516,98.93Z" transform="translate(-7.07 -9)"/><polygon class="cls-2" points="519.45 161.61 489.73 177.34 493.23 193.08 528.19 168.6 519.45 161.61"/><polygon class="cls-2" points="489.73 177.34 479.24 158.11 470.5 161.61 480.99 191.33 489.73 177.34"/><path class="cls-2" d="M516,230l21,1.75s-5.24,19.23-12.24,21S516,230,516,230Z" transform="translate(-7.07 -9)"/><path class="cls-8" d="M258.76,79.5s-91.93,0-107-30.51c0,0-9.83,6.23-9.83,22,0,0,54.25,30.46,116.28,23.1C258.2,94.06,260.21,84.54,258.76,79.5Z" transform="translate(-7.07 -9)"/><path class="cls-11" d="M258.75,82.32l.3-7.86s-72.55.87-105.77-27.1L148,50.86S162.3,83.19,258.75,82.32Z" transform="translate(-7.07 -9)"/></g></svg>