<svg id="Layer_1" data-name="Layer 1" xmlns="http://www.w3.org/2000/svg" viewBox="0 0 334 323"><defs><style>.cls-1{fill:#90c9ab;}.cls-2,.cls-8{fill:#458da6;}.cls-3{fill:#709bb4;}.cls-4{fill:#e8b186;}.cls-5{fill:#333;}.cls-6{fill:#e6f4f1;}.cls-7{fill:#249fa6;}.cls-8{opacity:0.3;}.cls-9{fill:#7abcb4;}.cls-10{fill:#9bd1c0;}</style></defs><title>pt_1</title><polygon class="cls-1" points="333.5 74.5 53.5 74.5 54 324 334 324 333.5 74.5"/><rect class="cls-2" x="114.5" y="159.5" width="158" height="91"/><path class="cls-3" d="M334,119.33H36.5L61,0H334Z"/><path class="cls-4" d="M186.9,179.83S178,207.7,192,207.7s16.47-6.33,16.47-6.33,5.07-19-1.27-21.53S186.9,179.83,186.9,179.83Z"/><path class="cls-5" d="M205.9,192.5s1.27-2.53,2.53-1.27,1.27,6.33-1.27,6.33l.42,5.49s4.65-4.22,4.65-9.29,2.53-13.93-2.53-17.73-15.2-3.8-22.8-1.27-6.33,6.33-5.07,8.87,1.27,2.53,5.07,1.27S197,183.63,197,183.63s5.07,2.53,5.07,1.27,3.8-1.27,3.8-1.27Z"/><polygon class="cls-4" points="192.92 207.69 193.23 211.5 184.37 214.03 191.97 217.83 202.1 217.83 205.9 214.03 199.57 211.5 199.19 207.01 192.92 207.69"/><path class="cls-4" d="M202.64,212.73s10.86,1.3,12.13,12.71-2.64,23.94-2.64,23.94l-7.49.13s3.8-21.53,1.27-26.6h0l-5.07-3.8Z"/><path class="cls-4" d="M185.72,213.65s-6.42.39-7.69,10.52,0,25.2,0,25.2l3.56,0s1.51-27.72,2.77-29Z"/><path class="cls-6" d="M202.1,211.5s16.47,2.53,13.93,19c0,0-8.87,1.27-10.13,0l-1.27-7.6,1.27,7.6,1.1.5-2,18H181l2.6-25.15-.5,4.12s-7.6,0-7.6-1.27,2.53-15.2,15.2-15.2c0,0,2.53,2.53,5.07,2.53S199.57,214,202.1,211.5Z"/><path class="cls-7" d="M272.5,247.33c-2,.17-153,0-153,0V159.5h-5v91h158Z"/><polygon class="cls-8" points="110 161 119.5 171 277 171 274 159 110 161"/><polygon class="cls-8" points="53.59 119.33 61 137 334 137 334 119 53.59 119.33"/><rect class="cls-3" x="110" y="149" width="160" height="12"/><polyline class="cls-9" points="270 149 274 147 274 159 270 161"/><polygon class="cls-10" points="110 149 116 147 274 147 270 149 110 149"/><rect class="cls-2" x="115" y="312" width="158" height="11"/><path class="cls-7" d="M273,322.62c-2,0-153,0-153,0V312h-5v11H273Z"/><path class="cls-8" d="M112,0S84,92,161,92H333.54L334,0Z"/></svg>