<svg id="Layer_1" data-name="Layer 1" xmlns="http://www.w3.org/2000/svg" viewBox="0 0 280.5 323"><defs><style>.cls-1{fill:#63d0d7;}.cls-2{fill:#fff;stroke:#000;stroke-miterlimit:10;}.cls-3{fill:#81b5b4;}.cls-4{fill:#006870;}.cls-10,.cls-5,.cls-8{fill:#004f68;}.cls-6{fill:#458da6;}.cls-7{fill:#527c8d;}.cls-8{opacity:0.32;}.cls-9{fill:#a1ffff;}.cls-10,.cls-11{opacity:0.61;}</style></defs><title>pt_2</title><polygon class="cls-1" points="280.5 0 0 0 0.5 323 280.5 323 280.5 0"/><path class="cls-2" d="M204.63,174" transform="translate(-53.5)"/><path class="cls-3" d="M56,119.33" transform="translate(-53.5)"/><polygon class="cls-4" points="280.5 199 200.5 197 200.5 323 280.5 323 280.5 199"/><rect class="cls-5" x="200.5" y="197" width="6" height="126"/><path class="cls-6" d="M238,190" transform="translate(-53.5)"/><polygon class="cls-7" points="168.5 195 168.5 323 31 323 31 190 168.5 195"/><polygon class="cls-5" points="168.5 195 33.5 190 33.5 323 30.5 323 30.5 190 168.5 195"/><polygon class="cls-8" points="61.5 192.6 61.5 323 60.5 323 60.5 192.54 61.5 192.6"/><polygon class="cls-8" points="109.5 192.6 109.5 323 108.5 323 108.5 192.54 109.5 192.6"/><path class="cls-1" d="M75,66" transform="translate(-53.5)"/><polygon class="cls-9" points="10.5 46 10.5 160 280.5 169 280.5 43 10.5 46"/><path class="cls-9" d="M64,57" transform="translate(-53.5)"/><path class="cls-5" d="M64,171" transform="translate(-53.5)"/><polygon class="cls-10" points="19.5 160 19.5 169 280.5 179 280.5 169 19.5 160"/><polygon class="cls-7" points="280.5 0 280.5 17 19 25 19 0 280.5 0"/><rect class="cls-5" x="18.5" width="3" height="25"/><g class="cls-11"><path class="cls-5" d="M109.35,79.08c6-.35,9.5-.5,16.92-.76,8.87-.31,17,4.16,17,14s-8.15,18.87-17,18.79l-15.68-.14c0,10.26,0,15.61,0,20.42l-1.25-.07Zm16.93,30.37c8,0,15.36-8.17,15.36-17.16s-7.37-13.39-15.51-13.13c-6.74.22-9.92.34-15.52.63q0,14.77,0,29.54Z" transform="translate(-53.5)"/><path class="cls-5" d="M175.69,78.27c-9.32.08-14.16.14-23.49.29,0-.38,0-.56,0-.91q23.78-.43,47.56-.52c0,.39,0,.59,0,1-8.42,0-13,0-22.35.12q.06,27.77.09,55.55l-1.72,0Q175.72,106,175.69,78.27Z" transform="translate(-53.5)"/><path class="cls-5" d="M230.8,105.76c0-14,6.89-28.51,22.31-28.88A19,19,0,0,1,268.78,84l-.83,1a18,18,0,0,0-14.85-6.94C238.47,78.4,232,92.6,232,105.77s6.45,27.44,21,28.27a17.59,17.59,0,0,0,14.9-6.66l.82,1.07A18.68,18.68,0,0,1,253,135.22C237.71,134.33,230.81,119.77,230.8,105.76Z" transform="translate(-53.5)"/><path class="cls-5" d="M281.36,76.62h1.24c-.11,19.53-.16,39.06-.26,58.59,10.55.31,15.76.31,26.39.33,0,.52,0,.77,0,1.27-11.12,0-16.59-.05-27.63-.42C281.2,116.46,281.25,96.54,281.36,76.62Z" transform="translate(-53.5)"/><path class="cls-5" d="M319.39,75.47l1.24-.16c-.12,20.52.23,41,.09,61.55h-1.26C319.6,116.39,319.28,95.93,319.39,75.47Z" transform="translate(-53.5)"/></g></svg>