<svg xmlns="http://www.w3.org/2000/svg" viewBox="0 0 245 251.33"><defs><style>.cls-1{fill:#cee8df;}.cls-2{fill:#b33451;}.cls-3{fill:#352235;}.cls-4{fill:#be8364;}.cls-5{fill:#353535;}.cls-6{fill:#e9fdfe;}.cls-7{fill:#61dbb5;}.cls-8{fill:#61b5b5;}.cls-9{fill:#77b8c4;}.cls-10{fill:#61909a;}</style></defs><title>about_1</title><g id="Layer_2" data-name="Layer 2"><path class="cls-1" d="M199,54.77c-24.66-1.38-96.5,30.1-121.5,18S-11,96.78,23,141s35.5,46.24,24,61.74,39,53,103.5,34S232.75,174,216,157.27,252.5,57.77,199,54.77Z"/></g><g id="Layer_1" data-name="Layer 1"><path class="cls-2" d="M92.94,229.67s66.6,4.11,73.87-6.07c0,0-9.57-49.39-8.22-56.31s-59.81,12.62-59.81,12.62S89.94,221.06,92.94,229.67Z"/><path class="cls-3" d="M179.77,151.4S158.49,157,154.94,155s2.13-8.06,10.17-7.71A36.2,36.2,0,0,1,179.77,151.4Z"/><path class="cls-4" d="M71.79,61.22s0,64,30.2,63.89,42.65-20.48,42.65-20.48l6-10.16s8.14-7.59,6.21-13.68-6.48-17.68-16.38-5.85c0,0,9.3-12.14-.33-23.72S118.33,24.86,92.84,38.4,71.79,61.22,71.79,61.22Z"/><path class="cls-4" d="M132.33,108.71l11.91,9.89s14.23-1.93,18-.51,23.18,11.09,13.48,57-23.59,55.49-35.49,35.74c-6.62-11-8-27.32-8-27.32l9-4.14s6.77,26.08,11.71,25.55c6.9-.74,9.38-67.85,2.48-67.11L92.47,156.41l5.2-3.47c-9.62,17.82-17.59,51.14-10.65,54S108.2,184.8,108.2,184.8l11.36,3.67s-41.94,74.31-47.43,11c-4.89-56.31,45.7-72.24,46.49-75.86s-8.16-9.35-8.16-9.35"/><path class="cls-5" d="M142.13,107.91S170.42,91,149.35,50.67,93.94,26.23,85.5,30.89,56.21,55.41,57.22,68s3.34,10.52,3.34,10.52L72,67.66,68.94,78.83s50.89-28,61.37-21.53,7.83,22.74,6,31.45l2.12-1.25s5.61-21,10.72-15.23,5.57,12.72-1.34,17.15S142.13,107.91,142.13,107.91Z"/><path class="cls-2" d="M158.71,174.16a126.56,126.56,0,0,0-2-32.17c0,6.62-.12,13.48-.12,13.48,9.23-9.23,23.18-4.07,23.18-4.07a47.69,47.69,0,0,0,1.14-11.27c-1.42-13.88-3.27-18.65-11.32-21.8s-22.95-.24-22.95-.24-4.66,8.21-18.7,11.36-13.83-2.61-13.83-2.61S87.85,133.11,75,159.61c0,0,1.38,7.33,18.3,9.58l5.13-11.36s-.66,22.49-.66,27.9"/><path class="cls-6" d="M145.07,136.56l-3.87-2-22.93,12.69-23.44-6.35-5.66,3.69s22.54,6.13,23.56,5.89S130,148.37,130,148.37Z"/><polygon class="cls-7" points="87.38 144.94 96.14 184.45 123.58 187.17 114.11 148.37 87.38 144.94"/><polygon class="cls-8" points="129.57 186.34 123.58 187.17 114.11 148.37 121.84 147.26 129.57 186.34"/><polygon class="cls-9" points="121.84 147.26 146.64 135.83 153.87 170.96 129.57 186.34 121.84 147.26"/><polygon class="cls-10" points="146.64 135.83 145.88 135.42 121.84 146.71 114.11 147.9 88.09 144.47 87.38 144.94 114.11 148.37 121.84 147.26 146.64 135.83"/><path class="cls-4" d="M133.49,191.79s-1.45-3.91-4.59-4.62S126.42,179.6,127,179c0,0-1.83-2.37.06-3.67s.27-.27.27-.27-2.29-1.93-.57-2.9,2.67-2.1,4.68-1.15,7.33-2.48,8.28,2.25a44.57,44.57,0,0,0,1.48,6.09"/><path class="cls-4" d="M141.2,182.48s3.23-4.48,3-4.89-.84,0-.84,0l-3.06,1.93Z"/><path class="cls-4" d="M116.66,193.67s1-4.12,3.62-5.52.32-7.9-.35-8.34c0,0,1-2.71-1-3.54s-.31-.2-.31-.2,1.56-2.39-.21-2.94-2.9-1.42-4.45,0-7.15-.72-6.81,4.07.2,9.61.2,9.61"/><path class="cls-4" d="M110.42,189.68s-4-3.6-3.92-4,.75-.19.75-.19l3.21,1.17Z"/></g></svg>