<svg xmlns="http://www.w3.org/2000/svg" viewBox="0 0 245 251.33"><defs><style>.cls-1{fill:#00a9ba;}.cls-2{fill:#324b4d;}.cls-3{fill:#e6f4f1;}.cls-4{fill:#008d67;}.cls-5{fill:#edbe88;}.cls-6{fill:#6bb9a2;}.cls-7{fill:#94b0b2;}.cls-8{fill:#007e67;}</style></defs><title>about_3</title><g id="Layer_1" data-name="Layer 1"><path class="cls-1" d="M173.55,64.34C158.69,58.59,79.91,49.81,68.07,89.49s-25.33,67.19-40.39,72.6-29.47,37.26,1.45,64.17,80.91.55,88.91,15.87,123.09-23.2,116.45-50.57-28.75-43.93-20.19-62.1C214.31,129.46,219.62,82.14,173.55,64.34Z"/></g><g id="Layer_2" data-name="Layer 2"><path class="cls-2" d="M89.61,89.35s-17-27.43-8.95-41.86,38-27.17,52-19.35,32.69,2.9,32.69,2.9-3.43,14.3-6.78,14.3c0,0,9.54,28.54-3.91,42S89.61,89.35,89.61,89.35Z"/><path class="cls-3" d="M162.79,138.35s27,2.23,29.56,9.38,19.21,55.25,4.17,75.36c0,0-7.54,6.33-74.32,6.33l.15-46.24Z"/><path class="cls-3" d="M82.21,138.35s-27,2.23-29.56,9.38S33.44,203,48.48,223.09c0,0,7.54,6.33,74.32,6.33V183.18Z"/><polygon class="cls-4" points="114.91 156.82 134.77 156.82 140.81 165.47 122.27 207.9 104.34 166.34 114.91 156.82"/><polygon class="cls-5" points="104.19 119.29 101.95 133.44 96.89 140.58 119.83 159.5 129.5 158.75 145.14 137.31 141.29 121.08 104.19 119.29"/><path class="cls-5" d="M122.65,130.16s-32.32-9.23-32.32-31.72c0,0-6.11,1.19-7.3-3.43s-.45-18.32,4-13.85c0,0-2.08-28,3.72-31.42s62.85-2.53,63.89,0S131.59,80,131.59,80Z"/><path class="cls-5" d="M122.67,130.16S155,120.93,155,98.44c0,0,6.11,1.19,7.3-3.43s.45-18.32-4-13.85c0,0,2.08-28-3.72-31.42s-62.85-2.53-63.89,0S113.73,80,113.73,80Z"/><polygon class="cls-6" points="145.14 131.35 126.7 153.99 143.35 167.54 156.61 133.44 145.14 131.35"/><polygon class="cls-6" points="101.07 131.35 119.51 153.99 102.86 167.54 89.61 133.44 101.07 131.35"/><polygon class="cls-2" points="125.86 155.4 119.15 155.4 114.91 162.63 120.38 168.28 114.91 193.9 121.02 208.27 124.52 208.27 129.95 194.64 124.96 168.13 130.7 161.73 125.86 155.4"/><polygon class="cls-7" points="154.71 134.03 166.55 136.71 175.26 147.1 161.52 153.47 180.06 167.54 122.27 214.15 122.27 207.9 154.71 134.03"/><polygon class="cls-7" points="90.15 134.09 78.31 136.77 69.59 147.16 83.33 153.53 64.79 167.6 122.65 214.21 122.65 207.96 90.15 134.09"/><polygon class="cls-8" points="129.24 158.94 130.7 157.24 139.63 164.27 136.78 167.54 129.24 158.94"/><polygon class="cls-8" points="117.75 157.79 116.31 156.6 106.17 164.81 109.18 168.13 117.75 157.79"/></g></svg>