<svg xmlns="http://www.w3.org/2000/svg" viewBox="0 0 303 263"><defs><style>.cls-1{fill:#92f8b3;}.cls-2{font-size:12px;font-family:MyriadPro-Regular, Myriad Pro;}.cls-3{fill:#fcceb2;}.cls-4,.cls-8{fill:#32687c;}.cls-4{opacity:0.22;}.cls-5{fill:#249fa6;}.cls-6{fill:#39bdb1;}.cls-7{fill:#e6feff;}.cls-9{fill:#946f5c;}</style></defs><title>anoba_3</title><g id="Layer_4" data-name="Layer 4"><path class="cls-1" d="M47.14,227.78c24.1,17.81,54.38,41,76.95,20.52s64.63-62.58,119-34.88,72.84-84.13,26.67-100.54S181.54,66.7,180.51,46.18s-10.26-34.88-27.7-40S82,1,72.79,43.11s-6.36,69.08-24.73,82.76S-.05,192.9,47.14,227.78Z"/></g><g id="Layer_3" data-name="Layer 3"><text class="cls-2" transform="translate(169 144)">#946F5C</text><path class="cls-3" d="M260,59a9.94,9.94,0,0,0-1-12c6-10-2-11-2-11,2-10-10-9-10-9s2-3-4-5-10,3-10,5-1,7-6,13-4,15-4,17-7,10-8,12-38,25-48,31-10,20-38,28S32,94,32,94s-41,32-20,84c0,0,78-6,104,8s32,27,39,29,31,8,42-12,7-39,17-51,42-45,42-54V76s9-5,7-10-1-6-3-7-7,4-7,4-7-3-17,12"/><path class="cls-4" d="M190.9,89.81s13.07-1.43,13.73,6.6-3.17,26.89-17.5,34.27l-3-.13s-15.94,21.33-38,21.37c0,0-42.31,6.17-56.95-2.47s-28.67-8.25-41.14-43.83l9.25-5.6Z"/><path class="cls-5" d="M161,71,83,105l7,23,54,20,47-27s-15-41-16-42S161,71,161,71Z"/><path class="cls-5" d="M188.29,123.3s-19.79,26.2-44.79,27.2c0,0-11-47-8-63"/><path class="cls-5" d="M143,148.45s-38.53,11-48.53-1,15-57,19-59"/><path class="cls-5" d="M96.39,149.26S66.5,142.5,60.5,124.5c0,0,24-34,37-39"/><path class="cls-5" d="M61.39,123.26S44.5,102.5,49.5,93.5s28-33,51-32,55.37-4.25,55.37-4.25S154,64,168,65s37,23,36,33-11,26-15,28c0,0-11-46-33-50"/><path class="cls-6" d="M100.76,55l.24,8s8,15,24,16,26-3,28-6,3.5-10.17,3.5-10.17Z"/><path class="cls-7" d="M100.5,53.5s1,12,15,17,28,5,37-1,0-20,0-20a34.48,34.48,0,0,0-32-12C99.5,40.5,100.5,53.5,100.5,53.5Z"/><path class="cls-8" d="M187.13,124.74S172.41,84,156,76c0,0,20,8,33,50Z"/><path class="cls-8" d="M142,149l1-1s-8-56-8-60C135,88,132,84,142,149Z"/><path class="cls-8" d="M94.65,148.82C94.9,149.13,71,131,112,90,112,90,75.29,124.63,94.65,148.82Z"/><path class="cls-8" d="M62,121S80,90,95,83c0,0-3.95-3.69-34,41Z"/><path class="cls-9" d="M128,168s-1,20,29,16C157,184,137,186,128,168Z"/><path class="cls-9" d="M235,75a39.53,39.53,0,0,1,3.27-4.7,28.57,28.57,0,0,1,4-4.12,15.2,15.2,0,0,1,5.05-2.88,8.23,8.23,0,0,1,5.91.25l-.68.27a13.2,13.2,0,0,1,1.23-2.15,11.6,11.6,0,0,1,1.63-1.88,5,5,0,0,1,2.21-1.22A3.29,3.29,0,0,1,260,59l0,.09a3.28,3.28,0,0,0-2.24,0,4.57,4.57,0,0,0-1.81,1.3,10.77,10.77,0,0,0-1.39,1.83,19.85,19.85,0,0,0-1.07,2l-.21.47-.48-.2a7.89,7.89,0,0,0-5.26-.38,14.21,14.21,0,0,0-4.9,2.56,30.94,30.94,0,0,0-4.11,3.87A39.31,39.31,0,0,0,235,75Z"/><path class="cls-9" d="M232.46,65.48a53.19,53.19,0,0,1,3.19-5.57,41.06,41.06,0,0,1,3.9-5.12,26.34,26.34,0,0,1,4.81-4.35,13.28,13.28,0,0,1,6.1-2.44l-.31.15a10.91,10.91,0,0,1,1.94-1.44,7.57,7.57,0,0,1,2.24-.93,4.37,4.37,0,0,1,2.44.12,4.09,4.09,0,0,1,1.78,1.57l-.08.06a4.16,4.16,0,0,0-1.85-1.18,3.77,3.77,0,0,0-2.11.13,9.77,9.77,0,0,0-3.65,2.38l-.12.12-.18,0a14.75,14.75,0,0,0-5.72,2.17,24.47,24.47,0,0,0-4.82,4,45.15,45.15,0,0,0-4,4.91,52.94,52.94,0,0,0-3.43,5.39Z"/><path class="cls-9" d="M232.45,56.48a55.13,55.13,0,0,1,2.44-5.25,41,41,0,0,1,3-5,21.61,21.61,0,0,1,4-4.31,10.34,10.34,0,0,1,2.59-1.54,6.34,6.34,0,0,1,3.07-.44l-.53.28a10.91,10.91,0,0,1,1.71-2.33A10.44,10.44,0,0,1,251,36.18a7.28,7.28,0,0,1,2.71-.91,7.36,7.36,0,0,1,2.79.17l0,.1a8.89,8.89,0,0,0-2.68.24,7.63,7.63,0,0,0-2.39,1.08,9.55,9.55,0,0,0-2,1.74,11.64,11.64,0,0,0-1.5,2.12l-.18.33-.35,0a7.1,7.1,0,0,0-5,1.6,20.77,20.77,0,0,0-4,4,52.25,52.25,0,0,0-5.88,9.88Z"/><path class="cls-9" d="M231.46,48.48c1.37-2.87,2.81-5.72,4.44-8.46a46.81,46.81,0,0,1,2.63-4,16.19,16.19,0,0,1,1.58-1.88,5.46,5.46,0,0,1,1-.82,1.89,1.89,0,0,1,1.55-.3l-.64.29a17.34,17.34,0,0,1,2.43-4,7.72,7.72,0,0,1,1.76-1.58,2.42,2.42,0,0,1,2.3-.3l0,.09a2.32,2.32,0,0,0-2,.64,9,9,0,0,0-1.42,1.64A25.9,25.9,0,0,0,243,33.7l-.23.5-.41-.22a1,1,0,0,0-.72.18,5.11,5.11,0,0,0-.87.64,15.34,15.34,0,0,0-1.58,1.69,45,45,0,0,0-2.76,3.84c-1.72,2.66-3.35,5.39-4.86,8.18Z"/></g></svg>