<svg xmlns="http://www.w3.org/2000/svg" viewBox="0 0 1529 685"><defs><style>.cls-1{fill:#cee8df;}.cls-2{fill:#aba9bc;stroke:#aba9bc;stroke-miterlimit:10;}.cls-3{fill:#0170b3;}.cls-4{fill:#249fa6;}.cls-5{fill:#2479a6;opacity:0.46;}.cls-6{fill:#b0d264;}.cls-7{fill:#779f63;}.cls-8{fill:#0087b6;}.cls-9{fill:#1b96bf;}.cls-10{fill:#009cc9;}.cls-11{fill:#403b38;}.cls-12{fill:#be8364;}.cls-13{fill:#a63b00;}.cls-14{fill:#8b8bc4;}.cls-15{fill:#eee8a9;}.cls-16{fill:#92f8b3;}.cls-17{fill:#94b0b2;}</style></defs><title>anoba_2</title><g id="Layer_5" data-name="Layer 5"><path class="cls-1" d="M1024.85,630.94C1103,588,1104,547,1187,589s360-100,336-235S1313,192,1298,78,1003-9,969,78,614,216,518,165,143,27,161,174,80,306,38,354-22,513,83,543s109,113.16,170,97.08,771.85-9.15,771.85-9.15"/><path class="cls-2" d="M1480,676s-310-209-320-210-813,0-813,0L45,681Z"/></g><g id="Layer_4" data-name="Layer 4"><path class="cls-3" d="M1353,639s1,9,0,14S171,665,166,662s-4-11-4-11l26-12s1107-11,1110-10S1353,639,1353,639Z"/><path class="cls-4" d="M351,527S157,637,162,649s1182-4,1191-10-157-110-190-112S373,514,351,527Z"/><path class="cls-5" d="M362,571s226-45,415-33,427,0,452,25-569.65,69.87-646.33,65.94S300,617,298,606,362,571,362,571Z"/><path class="cls-5" d="M301,526s41,2,53-1,6-9-4-9S300,521,301,526Z"/><path class="cls-5" d="M482.69,513.28S549,519,556,518s11-7,0-8-72.61-6.55-73.31-1.77L482,513"/><path class="cls-5" d="M366,506s-18,4-8,8,115,2,126-8-26-16-44-12S366,506,366,506Z"/></g><g id="Layer_3" data-name="Layer 3"><circle class="cls-6" cx="389" cy="406" r="108"/><path class="cls-7" d="M484,352S464.55,534.21,298.27,464.6c0,0,53.73,87.65,151.73,30.52,0,0,44.57-26.71,46.79-82.42C496.79,412.71,500,378,484,352Z"/><path class="cls-8" d="M315.12,507.13l-.25,11.68s-.73,3.56-3.09,4.38-2.88.74-5.23-2.94S300.82,511,304,507.57s1.19-5.16,4-4.49S315.12,507.13,315.12,507.13Z"/><path class="cls-8" d="M350.67,502.48s7,7.68,1.87,17.33-13.44-6.41-12.13-10.58,2.5-9.33,4.4-8.55S350.67,502.48,350.67,502.48Z"/><path class="cls-9" d="M336.88,506.14l-27,1.23s-6.54,5.8,3.21,11.65l23.31-1.79Z"/><path class="cls-10" d="M349.33,523.2s-14,3.69-14.15-12.34,14.75-12.8,16.24-8c0,0-7.85-5.08-8.45,5s3.68,15.61,9.57,11.89Z"/><path class="cls-10" d="M315.36,507.72a10,10,0,0,0-5.17-5.4c-3.81-1.55-10.94-.69-11.78,7.43s2.14,17.8,11.71,14.64c0,0,3.57-.43,4.76-5.59,0,0-.54,3.07-3.21,3.39s-9.13-4.42-6.51-12.76S312.71,504.52,315.36,507.72Z"/><path class="cls-8" d="M496.55,491.45l-2.35,15s-1.65,4.47-5.18,5.18-4.24.51-7-4.6-6.61-12.87-1.44-16.75,2.59-6.47,6.47-5.18S496.55,491.45,496.55,491.45Z"/><path class="cls-8" d="M548.19,491s8.76,11-.29,22.64-18.12-10.35-15.53-15.53,5.18-11.65,7.76-10.35S548.19,491,548.19,491Z"/><path class="cls-11" d="M967,503s17-1,27-7,25-12,34,10,37,24,46,38c0,0,11,10,1,15s-39,8-42-5c0,0-15-24-67-20Z"/><path class="cls-12" d="M480.71,302.86s-95.91,30.47-145.56,53c0,0-37.24-7.9-42.88-10.16s-13.54-4.51-10.16-1.13,5.64,3.39,5.64,3.39-22.57-7.9-23.7-6.77,0,4.51,10.16,7.9c0,0-16.93-4.51-19.18-5.64s-9-3.39-4.51,2.26,40.62,14.67,40.62,14.67-24.82-6.77-22.57-2.26,12.41,11.28,20.31,11.28,16.93,14.67,42.88,3.39S492,349.12,495.38,329.94,480.71,302.86,480.71,302.86Z"/><path class="cls-13" d="M575.87,258.55,336.28,351.38s-5.64,27.08,0,29.34c0,0,243.17-59.24,247.68-71.65,3.75-10.31,33-52,7.72-53.24A37,37,0,0,0,575.87,258.55Z"/><path class="cls-14" d="M787.5,306.5s36-16,89,0,114,11,132,13,178-28,207-24c0,0,29.5,40.5,12.5,54.5,0,0-68,3-106,15s-143.5,42.5-210.5,43.5c0,0-69,6-92-9L779,398S734,340,787.5,306.5Z"/><path class="cls-14" d="M875,397s-22.5,97.5-37.5,112.5c0,0,78-20,132-11,0,0,8.5,34.5-3.5,51.5,0,0-38.5,5.5-69,8-33,2.71-97.5,1.5-103.5-.5s-25-150-13-174Z"/><path class="cls-12" d="M450,293s2,23,22,28,23,9,23,9a19.93,19.93,0,0,1,10-1c5,1,27,3,35-10s34-11,34-11-3-35,2-43c0,0-11,7-32-5s-19-25-45-32-49,12-49,36Z"/><path class="cls-11" d="M528.59,241.5C529,242,544,256,544,260c0,0-21,12-25,11s-36-4-33,7,1,3.53,1,3.53S475,299,476,303s-1,23-1,23-8-1-7-5-5,3-5,3-17-8-12-34,25-57,44-51S528.59,241.5,528.59,241.5Z"/><path class="cls-11" d="M1215,299s19-9,22-15-3-18,18-13,96,24,98,34-14,43-45,19c0,0-72,0-84,8S1215,299,1215,299Z"/><path class="cls-13" d="M777.5,402.5s-68-15-76-18-36-8-43-8-58.26-18.58-61.13-45.79L635.5,307.5c-5,7-5,17-5,17-8-10-53.5,20.5-53.5,20.5,2-5-2-33-2-33s7.5,10.5.5,1.5-1-46-1-46c-1-1-7.37-.48-7.37-.48s5.37-3.52,10.37-4.52,14-11,32-7,64,14,89,29,71,27,92,20c0,0,9,53-13,98"/><path class="cls-13" d="M626.5,322.5s-5,74-23,123c0,0-1,20-2,25s-9,112-15,119-24-20-24-20,2-75,0-114,10.82-93.86,15.41-114.93C577.91,340.57,602.5,322.5,626.5,322.5Z"/><path class="cls-12" d="M565.5,571.5s-2,5-4,3-52,4-53,8,4,3,4,3l21-2s-30-1-24,3,15,2,15,2-14,0-12,3,14,0,22,1a126.34,126.34,0,0,0,19,4c9,1,32.54-.92,28.77-8.46S565.5,571.5,565.5,571.5Z"/><path class="cls-15" d="M461.5,322.5S496,254,534,239c0,0-34.5-36.5-80.5-8.5s-6,84,1,88c0,0-2,11,3,12S455.5,325.5,461.5,322.5Z"/><path class="cls-16" d="M622,361s24,16.39,46,21,105,28,105,28,38-50,24-113c0,0-49,8-75-8s-112-46-134-36l-13.74,7S564,294.5,574,305.25c0,0,6-15.25,33-20.25s46,41,42,56C649,341,642.26,369,622,361Z"/><path class="cls-17" d="M676.77,268.94s29,91.81-13.38,111.94c0,0,19.53,7,23.07,5.57,0,0,47-52.92,12.29-108.18C698.75,278.27,681.54,267.88,676.77,268.94Z"/><path class="cls-17" d="M736.54,295.13s28.15,68-21.2,98.95l19.86,5.41s43.94-21,24.87-100.74Z"/><path class="cls-9" d="M527.84,493.54,489,491s-10.35,6.47,2.59,15.53l33.64,1.29Z"/><path class="cls-10" d="M542.72,517.48s-20.7,2.59-18.12-18.12,23.29-14.23,24.58-7.76c0,0-10.35-7.76-12.94,5.18s2.59,20.7,11.65,16.82Z"/><path class="cls-10" d="M496.79,492.24a13,13,0,0,0-6.47-7.76c-5.18-2.59-15.53-2.59-18.12,7.76s0,23.29,14.23,20.7c0,0,5.18,0,7.76-6.47,0,0-1.29,3.88-5.18,3.88s-12.29-7.12-7.12-17.47S493.55,487.72,496.79,492.24Z"/></g></svg>