<svg xmlns="http://www.w3.org/2000/svg" viewBox="0 0 241 222"><defs><style>.cls-1{fill:#6bb9a2;}.cls-2{fill:#fcceb2;}.cls-3{fill:#f2f2f2;stroke:#e6e6e6;stroke-miterlimit:10;}</style></defs><title>anoba_5</title><g id="Layer_4" data-name="Layer 4"><path class="cls-1" d="M222.16,22.79C184,6.33,170.82,65.4,146.78,42.46S34.26,18.42,36.45,62.12s5.46,74.29-14.2,87.4-43.7,69.92,25.13,67.73,95-45.88,130-29.5,67.73-48.07,47-71S270.23,43.55,222.16,22.79Z"/></g><g id="Layer_2" data-name="Layer 2"><path class="cls-2" d="M73.17,11.32s58.4,38.26,70.49,70.49,70.49,71.49,86.6,78.54S207.1,208.68,200,210.7,115.46,153.3,91.3,141.22,16.78,57.64,16.78,52.61,49,12.33,73.17,11.32Z"/></g><g id="Layer_3" data-name="Layer 3"><path class="cls-3" d="M145.69,85.74s6.28,14.07,11.88,17.62c0,0,4.51,5.74-7.51,16.66S123,143,102.13,147.88c0,0-18.71-10.38-17.62-10.38S145.69,85.74,145.69,85.74Z"/><path class="cls-3" d="M128.76,58.3S112,106.73,65.22,118.56c0,0,16.2,16.57,19.12,18.57,0,0,52.07-14.38,61.91-49.34,0,0-4-11.29-7.47-16S128.76,58.3,128.76,58.3Z"/><path class="cls-3" d="M158.12,103.77s-7.24,38.37-43.15,52.44L130.4,167s43.43-23.49,40.28-49.43Z"/></g></svg>