<svg xmlns="http://www.w3.org/2000/svg" viewBox="0 0 436.69 892.76" width="100%" height="100%" preserveAspectRatio="none">
	<defs>
		<style>
            .cls-1,.cls-3{fill:#bfbfbf;}
            .cls-2{fill:#898989;}
            .cls-3{stroke:#bfbfbf;}
            .cls-3,.cls-4{stroke-miterlimit:10;}
            .cls-4{fill:#f15a24;stroke:#000;}

            #neck:hover path, 
            #shoulder:hover path,
            #elbow:hover path,
            #wrist:hover path,
            #fingers:hover path,
            #back:hover path,
            #hips:hover path,
            #knees:hover path,
            #ankle:hover path{
                fill: #249FA6;
            }

		</style>
	</defs>
	<g id="neck">
        <title>
            Neck
        </title>
		<path class="cls-1" d="M368.5,157.5s8-5,9,2,0,23-10,23S368.5,157.5,368.5,157.5Z" transform="translate(-113.07 -102)" />
		<path class="cls-1" d="M293.61,157.5s-8-5-9,2,0,23,10,23S293.61,157.5,293.61,157.5Z" transform="translate(-113.07 -102)" />
		<path class="cls-1" d="M356.5,204.5l6,28c-1,3-11.5,17.5-31,29,0,0-31-17-31-31l5-26Z" transform="translate(-113.07 -102)" />
		<path class="cls-2" d="M357.36,208.84S349,227,333,227c-17,0-28.27-18.16-28.27-18.16L306,204.1l45-2.1,5.83,3.94Z" transform="translate(-113.07 -102)" />
		<path class="cls-1" d="M293.5,152.93s-5-50.93,36-50.93,42,36.38,42,50.93-7,39.5-9,44.7c-2.1,5.46-11,22.87-29,22.87-9.75,0-15.83-2.29-20.87-6a36.2,36.2,0,0,1-14.1-24.15C297.41,182.71,295.76,170.8,293.5,152.93Z" transform="translate(-113.07 -102)" />
	</g>
	<g id="shoulder">
        <title>
            Shoulder
        </title>
		<path class="cls-3" d="M399.5,245.5s72,17,57,77c0,0-30-16-37-12s-36,40-88,24v-73S361,242,362,231C362,231,382.5,241.5,399.5,245.5Z" transform="translate(-113.07 -102)" />
		<path class="cls-3" d="M263.5,245.5s-72,17-57,77c0,0,30-16,37-12s36,40,88,24v-73S301,241.25,301,230C301,230,280.5,241.5,263.5,245.5Z" transform="translate(-113.07 -102)" />
		<path class="cls-4" d="M407.14,342.8" transform="translate(-113.07 -102)" />
		<path class="cls-3" d="M405.5,383.5c3-13,1-49,.44-52.88S409,319,409,319c-35.89,30.89-77.5,15.5-77.5,15.5-48,14-76.5-15.5-76.5-15.5s-3.5-6.5-.5.5,2.91,16.2,2.91,16.2l1.09,47.8c17,2,32.5-5.5,32.5-5.5,18.36-12,40.5-10.5,40.5-10.5,6,0,24-1,38.64,8.39s35.36,7.61,35.36,7.61" transform="translate(-113.07 -102)" />
	</g>
	<g id="elbow">
        <title>
            Elbow
        </title>
		<path class="cls-3" d="M456.5,322.5s22,24,12,62c0,0,19,21,18,45-.86,19.71,8.4,45,11,51l7,18a147,147,0,0,1-27-30c-.9-.59,2.62,28.44-3,42,0,0-28-50-31-63s-7-28-11-34-4-21-4-21-14-22-15-31S399.72,338.4,409,319c0,0,7.58-7,11-8.75S441.5,313.5,456.5,322.5Z" transform="translate(-113.07 -102)" />
		<path class="cls-3" d="M191.83,383.5" transform="translate(-113.07 -102)" />
		<path class="cls-3" d="M206.83,322.5s-22,24-12,62c0,0-19,21-18,45,.86,19.71-8.4,45-11,51l-7,18a147,147,0,0,0,27-30c.9-.59-2.62,28.44,3,42,0,0,28-50,31-63s7-28,11-34,4-21,4-21,14-22,15-31,13.55-23.19,4.28-42.6c0,0-7.36-6.9-10.82-8.65S221.83,313.5,206.83,322.5Z" transform="translate(-113.07 -102)" />
	</g>
	<g id="wrist">
        <title>
            Wrist
        </title>
		<path class="cls-3" d="M511.5,544.5s-27-1-30-16c.91-.41-2.74-5.57-7-18,0,0,5-10,3-42-1-2,9.12,16,27,30l8,16A35.53,35.53,0,0,1,511.5,544.5Z" transform="translate(-113.07 -102)" />
		<path class="cls-3" d="M152.33,544.5s27-1,30-16c-.91-.41,2.74-5.57,7-18,0,0-5-10-3-42,1-2-9.12,16-27,30l-8,16A35.53,35.53,0,0,0,152.33,544.5Z" transform="translate(-113.07 -102)" />
	</g>
	<g id="fingers">
        <title>
            Fingers
        </title>
		<path class="cls-1" d="M481.57,527.79c1.07,15.29,29.93,16.71,29.93,16.71,8-18,1-30,1-30,6,2,11,8,11,8s10,13,13,15,11,5,11,5c1,0,11,11-21,5,0,0-4-1-1,4,2.51,4.19,12,20.29,15.07,25.42a7.67,7.67,0,0,1,1.07,4.38c-.1,1.56-.57,3.2-2.14,3.2-4.47,0-20-30-20-30s-3-1-1,3c1.76,3.52,13.57,24.82,16.39,29.91a9.6,9.6,0,0,1,1.23,3.84,4.38,4.38,0,0,1-1.62,4.25c-3,2-7-6-8-8-1.41-2.83-13-24-13-24a1.39,1.39,0,0,0-2,0c-1,1,0,3,0,3l13.65,25.34a6,6,0,0,1,.74,2.42c.1,1.44-.38,3.24-3.38,3.24-5,0-13-21-13-21s-3-7-4-4,6,13,6,13,2,3-2,4-12-18-12-18-5-8-8-11c0,0-7-6-7-15S481.57,527.79,481.57,527.79Z" transform="translate(-113.07 -102)" />
		<path class="cls-3" d="M181.76,527.79c-1.07,15.29-29.93,16.71-29.93,16.71-8-18-1-30-1-30-6,2-11,8-11,8s-10,13-13,15-11,5-11,5c-1,0-11,11,21,5,0,0,4-1,1,4-2.51,4.19-12,20.29-15.07,25.42a7.67,7.67,0,0,0-1.07,4.38c.1,1.56.57,3.2,2.14,3.2,4.47,0,20-30,20-30s3-1,1,3c-1.76,3.52-13.57,24.82-16.39,29.91a9.6,9.6,0,0,0-1.23,3.84,4.38,4.38,0,0,0,1.63,4.25c3,2,7-6,8-8,1.41-2.83,13-24,13-24a1.39,1.39,0,0,1,2,0c1,1,0,3,0,3l-13.65,25.34a6,6,0,0,0-.74,2.42c-.1,1.44.38,3.24,3.38,3.24,5,0,13-21,13-21s3-7,4-4-6,13-6,13-2,3,2,4,12-18,12-18,5-8,8-11c0,0,7-6,7-15S181.76,527.79,181.76,527.79Z" transform="translate(-113.07 -102)" />
	</g>
	<g id="back">
        <title>
            Back
        </title>
		<path class="cls-3" d="M405.5,383.5s-1,9,0,15-5,16-5,16-1,2-2,10,0,1,0,1S429,489,332,536V367s21.5-1.5,37.5,8.5S405.5,383.5,405.5,383.5Z" transform="translate(-113.07 -102)" />
		<path class="cls-3" d="M258.5,383.5s1,9,0,15,5,16,5,16,1,2,2,10,0,1,0,1S235,489,332,536V367s-21.5-1.5-37.5,8.5S258.5,383.5,258.5,383.5Z" transform="translate(-113.07 -102)" />
	</g>
	<g id="hips">
        <title>
            Hips
        </title>
		<path class="cls-3" d="M342.34,529.45,340.5,540.5c-4,36,16,100,16,100s6-23,29-12,25,60,25,60l16-69c12-45-24.88-155.95-24.88-155.95S395.17,503.4,342.34,529.45Z" transform="translate(-113.07 -102)" />
		<path class="cls-3" d="M341.36,540.5s-16-1-17,0S322,530.35,322,530.35l9.77,5.15,11.95-6.81Z" transform="translate(-113.07 -102)" />
		<path class="cls-3" d="M322.54,530.45l1.84,11.05c4,36-16,100-16,100s-6-23-29-12-25,60-25,60l-16-69c-12-45,24.88-155.95,24.88-155.95S269.7,504.4,322.54,530.45Z" transform="translate(-113.07 -102)" />
	</g>
	<g id="knees">
        <title>
            Knees
        </title>
		<path class="cls-3" d="M406.5,704.5v27s34,96-5,164c0,0-7-34-19,10,0,0,5-22-3-44s-18-44-11-68,3-43-1-57-12-51-10-72c0,0,1-18-1-24,0,0,6.73-24.72,31.87-10.36,0,0,18.13,11.36,22.13,58.36C410.5,688.5,407.5,694.5,406.5,704.5Z" transform="translate(-113.07 -102)" />
		<path class="cls-3" d="M258.5,705.5v27s-34,96,5,164c0,0,7-34,19,10,0,0-5-22,3-44s18-44,11-68-3-43,1-57,12-51,10-72c0,0-1-18,1-24,0,0-6.73-24.72-31.87-10.36,0,0-18.13,11.36-22.13,58.36C254.5,689.5,257.5,695.5,258.5,705.5Z" transform="translate(-113.07 -102)" />
	</g>
	<g id="ankle">
        <title>
            Ankle
        </title>
		<path class="cls-3" d="M401.5,901.5l7,36s15,18,19,20,25,20,25,24,0,4-2,5a137.8,137.8,0,0,1-16,6,30.13,30.13,0,0,1-23-4c-9-6-10-10-18-12s-11-3-12-18-4-26-3-32,4.17-21.83,4.17-21.83,6.5-24.22,11.66-21.69,7.17,12.52,7.17,12.52Z" transform="translate(-113.07 -102)" />
		<path class="cls-3" d="M263.5,902.5l-7,36s-15,18-19,20-25,20-25,24,0,4,2,5a137.8,137.8,0,0,0,16,6,30.13,30.13,0,0,0,23-4c9-6,10-10,18-12s11-3,12-18,4-26,3-32-4.17-21.83-4.17-21.83-6.5-24.22-11.66-21.69-7.17,12.52-7.17,12.52Z" transform="translate(-113.07 -102)" />
	</g>
</svg>
