<svg id="leeg" xmlns="http://www.w3.org/2000/svg" viewBox="0 0 250 220"><defs><style>.cls-1{fill:none;stroke:#249fa6;stroke-miterlimit:10;stroke-width:10px;}.cls-2{fill:#249fa6;}</style></defs><title>inj_leeg</title><path class="cls-1" d="M250.65,173.65C240,172,230,170,220,165c-8-15-5-33-4-50"/><path class="cls-1" d="M147,113c2,20,5,51-21,56-25,5-52,4-69,25-6,7-8.63,22-3,30"/><path class="cls-2" d="M170.5,154a39,39,0,0,0,5.45,2.35,13,13,0,0,0,4.66.64,21.35,21.35,0,0,0,5.06-1.05c1.81-.55,3.69-1.25,5.83-1.93a12.6,12.6,0,0,1-4,5.26,12.47,12.47,0,0,1-6.48,2.68,9.78,9.78,0,0,1-7.07-2.06,9.58,9.58,0,0,1-2.32-2.64A7.72,7.72,0,0,1,170.5,154Z"/><path class="cls-2" d="M120,192c3.15.71,5.94,1.56,8.72,2.31s5.46,1.46,8.17,2.09,5.44,1.21,8.26,1.73l4.3.81A39.68,39.68,0,0,1,154,200a23.64,23.64,0,0,1-9,2.85,28.16,28.16,0,0,1-9.46-.61,28.64,28.64,0,0,1-8.75-3.65A21.45,21.45,0,0,1,120,192Z"/><path class="cls-2" d="M239,192a21.45,21.45,0,0,1-6.78,6.59,28.64,28.64,0,0,1-8.75,3.65,28.16,28.16,0,0,1-9.46.61,23.64,23.64,0,0,1-9-2.85,39.68,39.68,0,0,1,4.55-1.06l4.3-.81c2.81-.53,5.54-1.11,8.26-1.73s5.41-1.33,8.17-2.09S235.85,192.71,239,192Z"/><path class="cls-2" d="M113,66a74,74,0,0,0,11.42,20.71,14.74,14.74,0,0,1,1.34,2.43,22.29,22.29,0,0,0,1.43,2.37A52.28,52.28,0,0,0,130.46,96a47.5,47.5,0,0,0,7.87,7.67,55.13,55.13,0,0,0,19.85,9.67c1.79.56,3.67.86,5.51,1.27s3.75.57,5.63.86,3.8.35,5.72.45,3.84.15,5.77.11a84.6,84.6,0,0,0,22.57-3.07c.92-.22,1.8-.53,2.68-.84s1.78-.59,2.65-.93c1.71-.74,3.47-1.39,5.11-2.27s3.26-1.76,4.87-2.68,3.1-2,4.53-3.2a55.59,55.59,0,0,0,8-7.62L233,93.21c.57-.74,1.1-1.5,1.65-2.24s1-1.54,1.52-2.34c.24-.4.42-.84.65-1.24a7,7,0,0,1,.81-1.14A75.34,75.34,0,0,0,250,66a51,51,0,0,1-.45,12.62,62.05,62.05,0,0,1-3.21,12.57A11.56,11.56,0,0,1,244.68,94c-.65.88-1.19,1.82-1.83,2.7s-1.27,1.77-1.94,2.63l-2.06,2.54a65.6,65.6,0,0,1-9.5,9c-1.7,1.38-3.55,2.56-5.36,3.77s-3.75,2.24-5.73,3.16-4,1.8-6,2.64c-1,.39-2,.72-3.06,1.08s-2,.71-3.09,1A94.55,94.55,0,0,1,180.88,126c-2.11,0-4.23-.09-6.34-.12s-4.24-.33-6.35-.5c-2.11-.32-4.23-.56-6.34-1s-4.22-.81-6.29-1.45a69.26,69.26,0,0,1-12.21-4.5,61.32,61.32,0,0,1-27.88-27.05,57.49,57.49,0,0,1-2.73-12.74A48.26,48.26,0,0,1,113,66Z"/></svg>