<svg id="tuhod" xmlns="http://www.w3.org/2000/svg" viewBox="0 0 250 220"><defs><style>.cls-1{fill:#249fa6;}.cls-2{fill:none;stroke:#249fa6;stroke-miterlimit:10;stroke-width:10px;}</style></defs><title>inj_tuhod</title><path class="cls-1" d="M277,58c-6.75,1.8-13.55,3.32-20.33,4.74L246.5,64.82a19.52,19.52,0,0,1-2.55.39c-.85.07-1.71.05-2.57.07-1.71,0-3.41.2-5.12.3-13.63.95-27.21,2.12-40.66,3.88a257.55,257.55,0,0,0-39.53,7.91c-3.16,1-6.31,2-9.34,3.22-1.56.58-3,1.23-4.43,1.85a12.32,12.32,0,0,0-1.63.94c-.63.41-1.48,1-2.45,1.55s-1.73.89-2.52,1.29l-2.33,1.15c-1.56.77-3.14,1.53-4.75,2.28a98,98,0,0,1-10,4.08l.65-.27c-2.17,1.07-4.15,1.76-5.73,2.45a11,11,0,0,0-1.78.92c-.17.12-.24.19-.21.17a1.18,1.18,0,0,0,.23-.43l-.27.65a34.15,34.15,0,0,0-3.53,13.29,39.58,39.58,0,0,0,1.74,14c.13,1.21.3,2.43.5,3.66l.32,1.74.08.44a1.48,1.48,0,0,1,0,.18,2.83,2.83,0,0,0,.19.55,15.06,15.06,0,0,0,4.29,5A30,30,0,0,0,121.5,140a20.67,20.67,0,0,0,7.5,2,20.45,20.45,0,0,1-8.2.57,32.85,32.85,0,0,1-8.24-2,24.31,24.31,0,0,1-4-2,17.15,17.15,0,0,1-3.81-3.12,11.19,11.19,0,0,1-.88-1.12l-.45-.69-.29-.48-1.13-2c-.68-1.26-1.38-2.54-2-3.87a8.41,8.41,0,0,1-.62-2.08l-.4-2.14c-.31-1.42-.53-2.87-.74-4.31a49.25,49.25,0,0,1-.29-8.84,44.19,44.19,0,0,1,4.57-17.17l-.27.65a8.89,8.89,0,0,1,1.73-3,11.23,11.23,0,0,1,2-1.79,20.27,20.27,0,0,1,3.49-1.88c2.08-.9,3.86-1.53,5.26-2.23l.31-.16.35-.12a88.24,88.24,0,0,0,9-3.66c1.51-.7,3-1.43,4.53-2.17l2.28-1.13c.74-.37,1.63-.8,2.06-1s1.09-.68,1.89-1.21A22.14,22.14,0,0,1,138,73.41c1.69-.73,3.4-1.51,5.06-2.13,3.34-1.34,6.72-2.43,10.11-3.49a267.06,267.06,0,0,1,41.11-8.25c13.76-1.81,27.53-3,41.28-3.94,1.72-.13,3.44-.2,5.15-.39.86-.09,1.71-.22,2.57-.26a18.69,18.69,0,0,1,2.59.07c3.46.26,6.92.51,10.37.83C263.17,56.46,270.06,57.18,277,58Z"/><path class="cls-1" d="M163,241c.91-9.26,2-18.17,3-27.11s2-17.79,2.85-26.64,1.51-17.68,1.76-26.51c.13-4.42.13-8.84-.08-13.28A95.3,95.3,0,0,0,169,134a42.55,42.55,0,0,1,6.37,12.53,76.7,76.7,0,0,1,3.11,13.76,123.44,123.44,0,0,1,.34,27.9,153.51,153.51,0,0,1-5.12,27.23,130.4,130.4,0,0,1-4.49,13.12A81.79,81.79,0,0,1,163,241Z"/><path class="cls-2" d="M111,137c0,26,5,65,5,91"/><path class="cls-1" d="M121,120a10.55,10.55,0,0,1-3.66-5.76,10.39,10.39,0,0,1-.27-3.69,8.84,8.84,0,0,1,1.38-3.91,8.18,8.18,0,0,1,3.23-2.86,8.81,8.81,0,0,1,3.79-.92A10.09,10.09,0,0,1,132,105c-2.13,1-4,1.66-5.54,2.47a9.18,9.18,0,0,0-1.86,1.2,5.91,5.91,0,0,0-1.14,1.26,11.12,11.12,0,0,0-1.43,4C121.68,115.72,121.45,117.69,121,120Z"/><path class="cls-2" d="M251.71,133.17C227,142,200,149,173.43,147.7"/></svg>