<svg xmlns="http://www.w3.org/2000/svg" viewBox="0 0 3406.93 516.18"><defs><style>.cls-1{fill:#b0d264;}.cls-2,.cls-3{fill:#249fa6;}.cls-3{stroke:#249fa6;stroke-miterlimit:10;}.cls-4{font-size:350px;fill:#fff;font-family:BigJohnPRO-Regular, Big John PRO;letter-spacing:0em;}.cls-5{letter-spacing:-0.02em;}.cls-6{letter-spacing:0em;}.cls-7{letter-spacing:-0.01em;}</style></defs><title>logo_new</title><g id="Layer_9" data-name="Layer 9"><path class="cls-1" d="M250.16,480s111.23-10.22,149.51-148.34a18,18,0,0,0,.45-8.08c-.59-3.15-2.09-6.2-5.85-3.94-3,1.83-5.71,3.63-7.72,5.06a18.19,18.19,0,0,0-5.84,6.91c-7.18,14.79-32.8,66.22-46.52,76.11l-6.78-4.52S390.19,315.58,390.19,288c0-20.88-17.64-5.71-26.18,2.87a32.34,32.34,0,0,0-6.74,10c-8.07,18.63-36.78,82.1-60.58,100.53l-6.78-5s47.43-60.08,61.89-103c9.24-27.42-4-22.38-14.81-15.17a45.09,45.09,0,0,0-15.73,18.4C310.8,319,283,374.21,255.58,394.18l-5.42-4.52s55.11-57.82,65-100.28c0,0,9.22-22.66-13.79-9.9A45.77,45.77,0,0,0,290,288.38a173.36,173.36,0,0,0-24.51,34.88c-14.46,26.65-50.59,66.86-87.63,70.92s-124.22-29.36-145-69.57c-2.29,1.44,47,185.72,217.28,155.39" transform="translate(-8.21 -12.24)"/></g><g id="Layer_8" data-name="Layer 8"><path class="cls-1" d="M159.73,385.16s20.78-9.94,34.33-28.46,55.11-20.78,55.11-20.78S218,397.36,159.73,385.16Z" transform="translate(-8.21 -12.24)"/></g><g id="Layer_7" data-name="Layer 7"><circle class="cls-2" cx="98.48" cy="129.3" r="33.17"/></g><g id="Layer_6" data-name="Layer 6"><path class="cls-2" d="M212.07,12.87c-4.6-14.66,16.67,233.57-203.87,184,13.94,11.35,258.44,108.49,203.87-184" transform="translate(-8.21 -12.24)"/></g><g id="Layer_5" data-name="Layer 5"><path class="cls-2" d="M90.27,366.75S137.95,93,426.45,173.42C426.45,173.42,168.55,175,90.27,366.75Z" transform="translate(-8.21 -12.24)"/></g><g id="Layer_4" data-name="Layer 4"><polygon class="cls-3" points="358.3 211.11 358.3 190.19 369.45 190.19 369.45 211.11 391.77 211.11 391.77 222.73 369.45 222.73 369.45 245.98 358.3 245.98 358.3 222.73 335.98 222.73 335.98 211.11 358.3 211.11"/></g><g id="Layer_3" data-name="Layer 3"><polygon class="cls-3" points="407.27 261.17 407.27 247.22 414.71 247.22 414.71 261.17 429.59 261.17 429.59 268.92 414.71 268.92 414.71 284.42 407.27 284.42 407.27 268.92 392.39 268.92 392.39 261.17 407.27 261.17"/></g><g id="Layer_2" data-name="Layer 2"><polygon class="cls-3" points="306.85 236.22 306.85 229.25 310.57 229.25 310.57 236.22 318 236.22 318 240.1 310.57 240.1 310.57 247.84 306.85 247.84 306.85 240.1 299.41 240.1 299.41 236.22 306.85 236.22"/><text class="cls-4" transform="translate(460.64 340.63)">Aruga<tspan class="cls-5" x="913.84" y="0">K</tspan><tspan class="cls-6" x="1148.35" y="0">ata</tspan><tspan class="cls-7" x="1607.89" y="0">w</tspan><tspan x="1848.34" y="0">an</tspan></text></g></svg>